<?xml version="1.0" encoding="utf-8"?>
<!-- Generator: Adobe Illustrator 21.1.0, SVG Export Plug-In . SVG Version: 6.00 Build 0)  -->
<svg version="1.1" id="Layer_1" xmlns="http://www.w3.org/2000/svg" xmlns:xlink="http://www.w3.org/1999/xlink" x="0px" y="0px"
	 viewBox="0 0 772 501" style="enable-background:new 0 0 772 501;" xml:space="preserve">
<style type="text/css">
	.st0{fill:#DCE0E9;}
	.st1{fill:#8994A1;}
	.st2{opacity:0.22;fill:url(#SVGID_1_);enable-background:new    ;}
	.st3{fill:#E6E9EF;}
	.st4{fill:#DBDFE6;}
	.st5{fill:#EFF1F5;}
	.st6{fill:#FFFFFF;}
	.st7{fill:#FF9E75;}
	.st8{fill:#F5F7F9;}
	.st9{opacity:0.3;fill:url(#SVGID_2_);enable-background:new    ;}
	.st10{fill:#F2F3F5;}
	.st11{fill:#FD6862;}
	.st12{fill:#FBCD5D;}
	.st13{fill:#34CB4B;}
	.st14{fill:#F7EEE2;}
	.st15{fill:#A1D99B;}
	.st16{fill:#77CFF0;}
	.st17{fill:none;}
	.st18{fill:#215493;}
	.st19{opacity:0.2;fill:url(#SVGID_3_);enable-background:new    ;}
	.st20{fill:#47535F;}
	.st21{fill:#C2E1C1;}
	.st22{opacity:0.2;fill:url(#SVGID_4_);enable-background:new    ;}
	.st23{fill:#9EE3F2;}
	.st24{fill:#00A3B6;}
	.st25{fill:none;stroke:#00A3B6;stroke-width:2;stroke-miterlimit:10;}
	.st26{fill:none;stroke:#9EE3F2;stroke-width:2;stroke-miterlimit:10;}
	.st27{opacity:0.3;fill:url(#SVGID_5_);enable-background:new    ;}
	.st28{opacity:0.3;fill:url(#SVGID_6_);enable-background:new    ;}
	.st29{opacity:0.15;fill:url(#SVGID_7_);enable-background:new    ;}
	.st30{fill:none;stroke:#8994A1;stroke-width:0.25;stroke-miterlimit:10;}
	.st31{opacity:0.2;fill:url(#SVGID_8_);enable-background:new    ;}
</style>
<title>Main_Pricing Page - Horizontal</title>
<path class="st0" d="M306.8,366h-161c35.7-6.1,35-50,34.2-61.3h92.5C271.8,316,271.1,359.9,306.8,366z"/>
<path class="st1" d="M145.8,366h161l0,0l0,0c0,6.1-4.9,11-11,11l0,0h-139C150.7,377,145.8,372.1,145.8,366L145.8,366L145.8,366
	L145.8,366z"/>
<linearGradient id="SVGID_1_" gradientUnits="userSpaceOnUse" x1="226.44" y1="140" x2="226.44" y2="197" gradientTransform="matrix(1 0 0 -1 0 502)">
	<stop  offset="0" style="stop-color:#FFFFFF;stop-opacity:0"/>
	<stop  offset="1" style="stop-color:#1F1F1F"/>
</linearGradient>
<path class="st2" d="M295,361.9L295,361.9L157.9,362c23.4-12.6,23-46.7,22.4-57h92.5C272.1,315.3,271.8,349.3,295,361.9z"/>
<image style="overflow:visible;opacity:0.15;enable-background:new    ;" width="453" height="313" xlink:href="CC5A04AB0A234AE6.png" >
</image>
<path class="st3" d="M18.5,4.7h415.8c6.7,0,12.1,5.4,12.1,12.1v275.8c0,6.7-5.4,12.1-12.1,12.1H18.5c-6.7,0-12.1-5.4-12.1-12.1V16.8
	C6.4,10.1,11.8,4.7,18.5,4.7z"/>
<image style="overflow:visible;opacity:0.15;enable-background:new    ;" width="453" height="28" xlink:href="CC5A04AB0A234AEA.png"  transform="matrix(1 0 0 1 0 285)">
</image>
<path class="st4" d="M18.5,304.7h415.8c6,0,11.1-4.4,12-10.3L446,289c-0.1,6.6-5.5,11.8-12.1,11.7H18.1c-5.4,0-10.2-3.5-11.7-8.7
	v0.6C6.4,299.2,11.8,304.6,18.5,304.7z"/>
<path class="st5" d="M18.1,4H434c6,0,11.1,4.4,12,10.3l-0.3,5.3c-0.1-6.5-5.6-11.8-12.1-11.6H17.7C12.3,8,7.5,11.5,6,16.7v-0.6
	C6,9.4,11.4,4,18.1,4z"/>
<path class="st6" d="M421.4,31.2v244.7c0,1.2-0.8,2.1-2,2.2h-386c-1.2,0-2-1-2-2.2V31.2c0-1.2,0.8-2.1,2-2.2h386
	C420.6,29,421.4,30,421.4,31.2z"/>
<path class="st7" d="M421.4,31.2v244.7c0,1.2-0.8,2.1-2,2.2h-386c-1.2,0-2-1-2-2.2V31.2c0-1.2,0.8-2.1,2-2.2h386
	C420.6,29,421.4,30,421.4,31.2z"/>
<path class="st6" d="M65,52h333c1.1,0,2,0.9,2,2v224l0,0H63l0,0V54C63,52.9,63.9,52,65,52z"/>
<rect x="63" y="80" class="st6" width="97" height="27"/>
<rect x="70" y="83" class="st8" width="87" height="23"/>
<rect x="70" y="114.2" class="st8" width="87" height="23"/>
<rect x="70" y="145.3" class="st8" width="87" height="23"/>
<rect x="70" y="176.5" class="st8" width="87" height="23"/>
<rect x="70" y="207.7" class="st8" width="87" height="23"/>
<rect x="70" y="238.8" class="st8" width="87" height="23"/>
<rect x="70" y="270" class="st8" width="87" height="8"/>
<linearGradient id="SVGID_2_" gradientUnits="userSpaceOnUse" x1="227" y1="76" x2="227" y2="125" gradientTransform="matrix(1 0 0 -1 0 502)">
	<stop  offset="0" style="stop-color:#FFFFFF;stop-opacity:0"/>
	<stop  offset="1" style="stop-color:#1F1F1F;stop-opacity:0.5"/>
</linearGradient>
<path class="st9" d="M159.3,377h135.4c25.6,0,46.3,20.7,46.3,46.3v2.7l0,0H113l0,0v-2.7C113,397.7,133.7,377,159.3,377z"/>
<path class="st10" d="M65,52h333c1.1,0,2,0.9,2,2v11.1l0,0H63l0,0V54C63,52.9,63.9,52,65,52z"/>
<circle class="st11" cx="69.6" cy="58.6" r="2.6"/>
<circle class="st12" cx="77.4" cy="58.6" r="2.6"/>
<circle class="st13" cx="85.3" cy="58.6" r="2.6"/>
<path class="st14" d="M400,65v213H163V65H400z"/>
<path class="st15" d="M308.8,139.3c0.4,0.2,0.6,0.6,0.6,1.1c1.1-0.1,2.3,0.4,3.4-0.5c0-0.5-0.3-0.9-0.7-1.2c-1.3-1.2-1.1-2.4,0-3.5
	c0-0.3,0-0.7,0-1l-2.9-0.1c-0.1,0.8,0.2,1.7-0.5,2.4C308.8,137.4,308.8,138.3,308.8,139.3z"/>
<path class="st15" d="M319.4,205.8c0.5,0.3,1,1,1.5,0.4c1-1.2,2.3-0.3,3.9-0.7c-1.7-1.4-3.1-2.6-4.5-3.6c-1.2-0.8-1.9-2.3-3.6-2.3
	c-0.5,0.4-0.4,1-0.4,1.6c0,2.1,0,4.2,0,6.2c0,0.7,0.1,1.5-0.5,2.1l0.5,1.1l1.2,0.1l1.2-0.1c-2-2.2-2.2-4.3-0.9-6.8
	C318.6,204.2,318.7,205.3,319.4,205.8z"/>
<path class="st15" d="M300.5,65h15.3c-0.7,3.8-2.1,7.6-4.6,9.6c-3.7,3-10.8,3.8-11.6-3c-0.1-1.9,0.3-3.9,1-5.7c0-0.1,0-0.2-0.1-0.3
	C300.5,65.4,300.5,65.2,300.5,65z"/>
<path class="st15" d="M327.4,65c-1,2.2-3.6,3.8-5.9,2.8c0.1-0.9,0.3-1.9,0.4-2.8H327.4z"/>
<path class="st15" d="M326.4,173.9c-1.6,2.8-0.6,4.9,2.7,5.2c0.3,0,0.6,0,0.9,0c0.5,0,1-0.2,1.4-0.5c0.3-0.4,0.8-0.7,1.3-0.7
	c0.9-1.2,1.7-2.5,2.4-3.9c-2.6-0.2-5.2-0.5-7.8-0.7C326.9,173.3,326.6,173.5,326.4,173.9z"/>
<path class="st15" d="M247.5,65c0.7,0.2,1.4,0.4,2.1,0.6l0,0c-0.1,2.5-1.9,3.8-3.9,4.4s-3.9-0.8-5.6-1.8c-0.5-0.4-0.6-1-0.2-1.5
	c0,0,0,0,0,0c0.5-0.4,0.7-1.2,1.1-1.7L247.5,65z"/>
<path class="st15" d="M269.8,69.9c-3.4,0.6-6.4-1.8-7.9-4.9h-9.6c0,0.1,0.1,0.2,0.1,0.3c-0.2,0.2-0.4,0.6-0.4,0.9
	c0.1,0.2,0.3,0.4,0.5,0.5c-0.1,0.6-0.3,1.2-0.6,1.7c-1.1,1.7-3.4,2.4-4,4.3c-0.8,2.4,1.8,4.6,2.1,7.1c0.2,2.1-0.9,3.5-2.6,4.7
	c-0.1-0.3-0.4-0.5-0.8-0.6c-1.8-0.6-3-2.1-4.5-3.1l0,0c-0.4-2-0.8-4.1-2.9-5.2c-0.1,1.5-0.2,2.9,1.1,4l0.6,0.6l1.1,0.6
	c0.5,1.9,1.5,3.7,3,5c-1.6,0.9-3.4,1.7-4.9,2.7l0,0c-0.9-0.2-1.8-0.1-2.6,0.4c-0.6,0.3-0.9,0.8-0.4,1.4c0.1,0.2,0.3,0.4,0.4,0.6
	c-0.4,0.6-0.7,1.3-0.9,2.1c1.3,1.6,3.5,2.4,5.5,1.8c0.2,0,0.5,0,0.7,0c1.4-0.1,1.7,0.8,1.3,1.9c-0.6,1.7,0.2,2.1,1.6,2.2
	c0.5,0,1,0,1.4,0c-0.2-1.4,0.6-2.7,0.6-4.1l-0.1-2.4c0.9-0.6,1.7-1.2,2.5-1.9c3-2.5,6.4-5,9.5-7.6c0.1,0.9,0.4,1.7,0.8,2.5
	c0.1,0.2,0.1,0.4,0.1,0.6c1.1-0.8,1.5-1.5,2.3-4c-0.7,0-1.5,0-2.2,0.1c1.2-1.1,2.4-2.2,3.5-3.5l0.7-1c0.3,0.1,0.5,0.2,0.8,0.2
	c0.4-0.8,0.8-1.5,1.2-2.3l-0.5-0.1l0.4-0.6c0,0.2,0,0.5,0,0.7l0,0c0.6-0.4,0.8-1.1,0.6-1.7C269.2,71.7,270.3,69.8,269.8,69.9z"/>
<path class="st15" d="M297.7,138.2c1-0.1,1.9-0.1,2.9-0.1h0.3c0-0.5,0.1-1.1,0.2-1.6l-1.7-0.1l-1.7,0.1c-0.7,0-1.1,0.3-1.1,1
	C296.5,138.4,297.1,138.2,297.7,138.2z"/>
<path class="st15" d="M255,88.7c1.9,1.4,3.2,1.1,4.6-0.9c-0.2-0.6-0.4-1.1-1.1-1.1C257.6,87.8,256.1,87.8,255,88.7z"/>
<path class="st15" d="M222,66.8c-0.5-0.7-1.3-1.2-2.2-1.2c0-0.3-0.3-0.5-0.5-0.6l0,0l0.6,0.6c0.3,1.2-0.8,2-1,3.1
	C220.9,69,220.9,69,222,66.8z"/>
<path class="st15" d="M232.7,73.2l2.4,0.6c0-0.7,0-1.3,0-2c0.3-3.6-0.5-4.4-4.1-4.3l-0.1,5.1C231.6,72.7,232.3,72.5,232.7,73.2z"/>
<path class="st15" d="M275.4,129.3c0.7,0.9,0.2,1.9,0,2.8c0.6,0.2,1.3,0.2,1.9,0c0-1.3,0-2.5,0-3.8
	C276.5,128.1,275.6,128.5,275.4,129.3z"/>
<path class="st15" d="M284.5,137.4c-0.2,0.4,0.1,0.7,0.6,0.7s1,0.1,1.2-0.4s-0.2-0.5-0.5-0.6C285.3,136.9,284.8,136.9,284.5,137.4z"
	/>
<path class="st15" d="M279,130.8c-0.7-0.1-0.6,0.5-0.7,1l1.1-0.1C279.4,131.3,279.4,130.8,279,130.8z"/>
<path class="st15" d="M276.1,139.9h0.2c0.9,0,1.7,0,2.6-0.1c1.3-0.2,1.6-1.3,1.6-2.4s0-2.9-1.4-3.1c-1.6-0.3-3.7-0.9-5,0.4
	s-0.8,3,0,4.6C275,139.3,275.6,139.3,276.1,139.9z"/>
<path class="st15" d="M366,143.4L366,143.4L366,143.4L366,143.4L366,143.4z"/>
<path class="st15" d="M373.2,140c1-1.6,0.6-2.3-1.3-2.3c-1.3-0.1-2.5-0.1-3.8-0.1h-2.9c-1.5,1.4-2.9,2.9-4.9,3.6l-0.7,0.5l0,0
	c0,3.1,0,6.2,0,9.4l-1.1,0.1c0,1-0.3,1.8-1.5,1.7c-2.4-0.4-4.3,0.6-6.2,1.8c-0.1,1.4,0.6,1.9,1.9,1.8c0.7-0.1,1.4-0.3,2.1-0.4
	c2-0.4,3.7-1.8,4.5-3.8c0.1-0.4,0.2-0.7,0.3-1.1l0,0c1.4-1.5,2.4-3.3,2.9-5.2c0.5-1.9,1.2-3.7,2.1-5.4c0.9-1.8,1-1.8,3-1.2l0.2,0.1
	c-0.2,0.4-0.4,0.8-0.6,1.1c-0.7,0.9-1.1,1.9-1.3,3h0.1c2,0.2,2.2-1.4,2.6-2.7c0.7-2.1,0.7-2.2,3.2-1.7c0.3,1.9-1.5,3.2-1.3,5
	c-1.2,0.1-1.7,1.1-2.5,1.8c-4.2,3.8-6.2,9.2-9.8,13.4c1.6,0.2,3.2,0,4.7-0.6c0.3-0.4,0.7-0.6,1.1-0.6l0.6-0.6
	c0.1-0.4,0.2-0.9,0.6-1.1l0.6-0.6c-0.1-0.5,0.2-0.9,0.6-1.2c0.1-0.3,0.3-0.5,0.6-0.6c0-0.5,0.2-0.9,0.6-1.2c-0.1-0.5,0.5-1,0-1.6
	c-0.6-0.2-1.2,0.7-2,0c1.3-0.6,2.3-1.6,3.7-2c0.1-0.6,0-1.3,0.6-1.7c0-0.6-0.1-1.3,0.6-1.8c0-0.6,0-1.2,0-1.8h0.8
	C372.3,142.7,372.4,141.2,373.2,140z"/>
<path class="st15" d="M400,93v8.9c-0.5,1-0.8,2-1,3c-0.2,0.9-0.5,1.9-0.9,2.7c-0.4,1.1-1.4,1.9-2.6,1.9c-1.8,0.1-2.3,0.9-1.6,2.6
	c0.2,0.6,0.5,1.1,0.8,1.5c0.6,0.8,0.8,1.8,0.6,2.7c-0.4-0.1-0.9-0.1-1.1-0.3c-1.3-2.2-3.7-3.7-4.6-6.3c0-0.1-0.1-0.2-0.1-0.3
	c-0.7-1.1-2.6-1.9-3.4-1.4s-1,2.6-0.3,3.8c0.3,0.4,0.6,0.7,1,1.1c1.3,1.3,1.5,3.3,0.5,4.8c-1,1.7-3,2.6-5,2.2c-0.1,0-0.2,0-0.3-0.1
	c-2.1-3.6-3.8,0.3-5.6,0.3c-0.7,0-0.9,0.9-0.9,1.7s-0.1,1.6-1.1,1.7c-1.2-3.1-0.3-4.6,3.2-5.7c0.1-0.8-0.6-1.6-0.2-2.5
	c1.4-3.4,2.5-6.9,4.5-10.1c0.3-0.5,0.6-1,0.9-1.4c1-1.4,1.5-3,1.5-4.7c0.1-0.5,0.2-0.9,0.4-1.4c0.2-0.7,0.8-1.2,1.5-1.1
	c1,0.1,0.8,0.9,0.9,1.6c0,0.2,0.1,0.3,0.1,0.4c0.5,2.2,2.3,4,4.5,4.4c0.3,1,1,1.8,2,1.4c0.8-0.3,1-1.4,0.9-2.2
	c-0.1-0.6-0.3-1.1-0.6-1.6c0.5,0,1,0.2,1.4-0.2c-1.1-1.3-1.1-1.3,0-2.7c0.2-0.3,0.3-0.7,0.4-1.1c0.9,0.3,2,1.2,2.4-0.6
	c1.1-1.4,1.1-1.6-0.2-2.1c-0.5-0.2-1.1-0.2-1.6-0.3l0,0c0.4-0.6,1-0.6,1.6-0.7L400,93z"/>
<path class="st15" d="M357.9,159.1l-1.3,0.2l0.2,0.6C357.3,159.8,357.7,159.7,357.9,159.1z"/>
<path class="st15" d="M389,96.6l-0.3,0.1l0.2,0.1c1.1,0.5,2.4,0.5,3.6,0.1c1.1-0.3,2.1-1,3.3-0.8c0.8-1.1,1.6,0.2,2.4-0.1
	c-0.2-1-1.8-1-1.7-2.3l0,0C394.5,96,391.6,95.9,389,96.6z"/>
<path class="st15" d="M379.1,75.7c-0.7-0.1-1,0-1.2,0.4c-0.4,0.8-0.6,1.6-0.7,2.5c0,0.9,0.6,1.7,1.5,1.9c1,0.1,0.6-1,0.8-1.5
	c0.3-0.6,0.5-1.3,0.5-2C380.1,76.4,379.7,75.9,379.1,75.7z"/>
<path class="st15" d="M352.6,108.3c1.7,1.8,4.1,2.7,6.5,2.4c0.6,0,1.2,0.1,1.7,0.2c0.3-0.1,0.5-0.2,0.8-0.2c0.4-0.1,1-0.2,1.2,0.4
	s-0.4,0.7-0.9,0.8c-0.4,0-0.7,0-1.1,0c0.1,0.5-0.2,0.9-0.6,1.2c0,0.2,0,0.4,0,0.6c0.4,0.4,0.9,1,1.3,1.1h0.1c1.5,0.1,2,0.7,2.3,2.2
	s0.5,2.4-0.8,3.3c-1.1,0.8-0.5,1.9-0.1,2.8l4.7,0.5c-0.2-2.3-0.9-4.6,0.3-6.8c0.5-1,0.8-2.2,1.8-2.9c1.5-1.1,1.6-3.1,2.6-4.5
	c1.1-1.7,3-2.6,5-2.2c0.8,0.2,1.7-0.2,2-1c1.6-2.6,3.2-5,3.8-8.1c0.5-2.9,1.4-3.4,4.5-3.4c0.8,0,1.6-0.1,2.3,0c0.2,0,0.5,0,0.7,0
	c2.2,0.1,4.2-1,5.3-2.9c-0.9-0.1-1.8-0.4-2.7-0.6c-1.6-0.3-3.1-0.4-4.6,1c-0.2,0.2-0.6,0.1-0.9,0.1c-0.3,0-0.7-0.1-1-0.1
	c-2.3,0.1-4.5,0.5-6.7,1.2l-1.7,0.1c-1.6,1.1-3.3,0.7-5,0.4c-1-0.2-2.1-0.3-3.1-0.4c-0.4,1.4-1.7,2.5-3.1,2.5
	c-1.6,0.3-3-0.2-4.6-0.2c-0.9,3.4-1.4,3.9-4.7,4.1c-0.9,0-1.7,0.2-2.4,0.7C355.4,103.2,353.9,105.7,352.6,108.3z"/>
<path class="st15" d="M395,125.2c-1.1,0.1-1.7,0.9-2.6,1.2l0,0c-0.1,0.3-0.3,0.5-0.6,0.6c0,0.8,0.5,1.5,1.2,1.8l5.2,2.3v-7.6
	C397,124.9,397,125,395,125.2z"/>
<path class="st15" d="M217.4,72c0,1.3,1.1,2.2,1.3,3.3c0.8-0.7,1.2-1.8,1.1-2.8c0-0.7,0.1-1.4-0.8-1.6c-0.6-0.2-1.3,0.1-1.6,0.7
	C217.4,71.7,217.4,71.9,217.4,72z"/>
<path class="st15" d="M400,138.2v3.4c-0.6,0.8-1.6,1.2-3.2,1.2h-0.8c0.9,1.9,0.1,4,1.2,5.9c0,1.4-1.1,1.8-2.2,2.1
	c-0.6,0.2-0.6-0.5-0.7-0.9c0.8-1.6,0.9-3.4,0.4-5c-0.5-1.9-0.6-1.9,1.4-2c-0.8-1.5-2.1-2.8-2.2-4.6L400,138.2z"/>
<path class="st15" d="M365.8,143.6l0.2-0.2c0,0-0.1,0-0.1,0C365.9,143.4,365.8,143.6,365.8,143.6z"/>
<path class="st15" d="M360,139.1c0.9,0.1,1.4-0.6,1.7-1.3c0.3-1.1-0.3-2.3-1.3-2.9c-0.4-0.2-0.9-0.1-1.1,0.3c0,0,0,0.1-0.1,0.1
	c-0.1,0.5-0.2,0.9-0.2,1.4C359.3,137.6,358.6,138.9,360,139.1z"/>
<path class="st15" d="M366.8,125.5c-1.9-0.5-3.6-0.3-4.7,1.7c-0.5,1-1.7,1.2-2.6,1.7c-0.5,0.2-0.9,0.4-1.3,0.7
	c-0.3,0.3-0.5,0.7-0.5,1.2c0.2,0,0.3,0.1,0.5,0.1c1.9,0.5,3,2.1,4.4,3.5c0.7,0.7,1.3,1.5,2.3,1.6l0.7-0.2c-0.1-0.4-0.2-0.7-0.3-1.1
	c-1-1.7-0.9-3.8,0.2-5.4C366.2,128.1,366.6,126.8,366.8,125.5z"/>
<path class="st15" d="M369,125.8c0.1,0.7,0.3,1.4,0.5,2.1c0.5,2,0.7,4.1,0.8,6.2c1.1-3.1,1.9-5.5,1.8-8.1l-2.1-0.1L369,125.8z"/>
<path class="st15" d="M375.9,114c0.6-1,1.1-2.1,1.5-3.2c0.2-0.7,0.2-1.4,0-2.1c-1.2,2.2-3.1,3.8-4.2,6.1c-0.7,1.5-1.3,2.9-3,3.7
	c-0.9,0.5-1.3,1.5-1.2,2.5l-0.1,2.6l1.6,0.1l1.4,0.1c-0.2-2.1,0.4-4.3,1.7-6C374.5,116.6,375.2,115.3,375.9,114z"/>
<path class="st15" d="M393.7,88.5c0.3,0.1,0.6,0.3,0.9,0.3c1.5,0.4,3.2,0,4.5,1.3h0.2c0.1-0.3,0.2-0.7,0.2-1l-0.7-0.7l-0.6-0.6
	c-0.8-0.5-1.4-1.1-2-1.9c-0.5-0.6-1.2-1-2-1.1C394.4,86.2,393.3,87.2,393.7,88.5z"/>
<path class="st15" d="M393.6,100.5c-0.6-0.6-1.5-0.6-2.1-0.1c-0.5,0.5-0.3,1,0.3,1.4C392.2,101.1,393.3,101.4,393.6,100.5z"/>
<path class="st15" d="M400,65v14.6l0,0c-0.2-0.4-0.6-0.8-1.1-1c-0.9-0.2-1.9-0.3-2.9-0.1c-0.2,0-0.5,0-0.7,0h-0.1
	c-0.2-0.4-0.6-0.6-1.1-0.5l-0.1-0.1l-0.5-0.5l-0.1-0.1c0.4-1.6-0.6-3.1-0.5-4.6c0.4-0.3,0.6-0.7,0.6-1.2c0.3-0.1,0.3-0.2,0.1-0.2
	c0,0-0.1,0.1-0.1,0.2c-0.4,0.3-0.6,0.7-0.6,1.2h-0.6c-0.5-1.3-2.3-1.8-2.3-3.4c1.1-0.7,2.3-1.4,3.4-2.1c0.3-0.2,0.8-0.4,0.9-0.7
	c0.1-0.5,0.3-1,0.5-1.5H400z"/>
<path class="st15" d="M374.3,134.6c0.1-1.7,0.7-3.4,1.6-4.9c0.6-1,0.6-2.2,0.1-3.3h-1.6c-0.8,3.1-2.4,6-1.9,9.3
	C373.3,135.8,374.2,135.9,374.3,134.6z"/>
<path class="st15" d="M263.5,142.8H262v0.2c-0.1,0.9,0.6,1.4,1.2,2c1.8,1.8,3.7,3.6,5.5,5.5c0.7,0.8,1.6,1.4,2.6,1.7
	c0.2-2.2-1-4.3-3-5.2c-0.8-0.3-1.4-1-1.6-1.9c-0.1-0.6,0.1-1.2,0.4-1.7C265.9,143.2,264.6,143.7,263.5,142.8z"/>
<path class="st15" d="M319.8,233.5L319.8,233.5L319.8,233.5L319.8,233.5C319.8,233.5,319.8,233.5,319.8,233.5z"/>
<path class="st15" d="M290.3,162.9c-0.2-0.1-0.2-0.3-0.2-0.5c0.1-1.8-1.4-2.7-2.3-3.9c-1.5-2-2-1.9-3.5,0c-0.4,0.7-0.9,1.2-1.6,1.7
	c-1.7,0.9-1.2,1.8-0.4,3c1.7,2.2,3.1,4.4,4.5,6.8c1.5,3,2.6,6.2,4,9.4c1.1,2.5,2.3,5,3.4,7.5l0.4-0.1c0-4.7,0.5-9.5-0.2-14.1
	C293.9,169.2,294,165.1,290.3,162.9z"/>
<path class="st15" d="M304.6,268.6c-1.3-1.1-2.6-2.2-3.8-3.5c-0.6-0.6-1.1-1.3-2.2-1.1c-0.8,1.9-2.3,3.5-2.2,5.7
	c1.1,0,2.3,0.1,3.4,0.4c1.7,0.4,3.4,0.4,4.8-0.9l0.1-0.2c0-0.1,0-0.3,0-0.5c0.1,0,0.3,0,0.4,0c2.1-1,2.1-1,3-3
	C306.4,266.1,305.6,267.5,304.6,268.6z"/>
<path class="st15" d="M280.7,156.9c-0.1-0.4-0.2-1-0.5-0.9c-1.2,0.2-2.7-0.1-3.5,1.3c0.7,0.7,1.4,1.4,2.1,2c0.5,0.5,1,1.4,1.9,0.8
	s0.6-1.5,0.2-2.3C280.7,157.4,280.7,157.1,280.7,156.9z"/>
<path class="st15" d="M279,150.5c-3.2-0.2-3.2-0.2-3.7,2.1l2.5,0.1C278.1,152,278.9,151.5,279,150.5z"/>
<path class="st15" d="M347.9,224.7c1-1.2,2-2.4,3.2-3.4c0.6-0.7,1.5-1.3,1.5-2.4c-0.2-0.5-0.5-1,0.3-1.4c0.6-0.3,1.3-0.4,2-0.3
	l1.2-0.6c1.8,0.2,2.7-1,3.6-2.3l0.6-0.6l0.6-0.6l0.6-0.6l0.2-0.3l-0.3,0.2l-0.6,0.6c-0.2,0.2-0.4,0.4-0.6,0.6l-0.6,0.6l-1.1,0.1
	h-5.9l0,0c-0.2,0.5-0.5,0.8-1,1c-2.2,1-4.3,2.2-6.5,3.3c-0.8,0.1-1.5,0.4-2.3,0.5l-5.1,1.3c-2.9,0.6-5.6,1.6-8.2,3.1l-0.7,0.4
	c-0.5,0.2-0.9,0.5-1.4,0.8h-0.1c-4.7,1.4-7.1-6.8-11.4-5c-0.1,0-0.2,0.1-0.3,0.1c0.1-0.4,0.2-0.7,0.4-1c1.2-2.1,1.9-4.7,4.7-5.5
	c0.6-0.2,0.9-0.8,0.7-1.4h-5.5c-0.9,3.4-2,6.8-1.9,10.4c-0.8,2.8-0.4,6.9-0.4,8.9c-0.1,5.4-1.4,10.7-3.6,15.6
	c-0.2,0.5-0.5,1-0.6,1.4c-0.2-0.3-0.4-0.5-0.6-0.7c-1.9-1.3-2.1-3.3-3.2-4.9c-0.5-0.8,0-1.9-1.1-2.6c-0.7,1-0.4,2-0.5,2.9
	s0.3,2-0.5,2.8c0.3,0.6,0.6,1.1,1,1.7c1,0.7,2.4,0.2,3.2,1.2c0.5,0.8,1,1.6,1.3,2.4c0.1,0.8,0.2,1.5,0.3,2.3
	c0.1,1.6-0.4,3.3,0.4,4.7c0.1,0.2,0.3,0.4,0.5,0.6c-0.1,0.2-0.2,0.4-0.3,0.6c0.4,0.2,0.8,0.2,1.2,0.1c0.6,0.3,1.3,0.4,2,0.4
	c-0.3,0.7-0.9,1.1-0.9,1.9c0.8-0.1,1.5-0.5,1.9-1.1c0.5-0.6,1.1-1.2,1.7-1.8l0,0c0.3-0.3,0.7-0.6,0.9-1c0.5-0.5,1-1.1,1.4-1.7
	c0.9-1.3,2.7-2,3.3-3.7l-0.6-1.1c-0.6-0.5-1.2-0.9-1.9-1.2c0-1.4-0.1-2.9-0.3-4.3l0,0l0.1-0.1c0.5-0.7,0.5-1.5,0.2-2.2
	c-0.3-1.2-0.5-2.5-0.4-3.8c0-1,0-2,0-2.9c0-0.2,0-0.5-0.2-0.7c0-0.1,0-0.2,0.1-0.3c0.2-0.5,0.4-1.1,0.7-1.6c0.2-0.1,0.4-0.2,0.5-0.4
	c-0.1,0-0.2,0-0.2,0c0.1-0.1,0.2-0.2,0.2-0.3c0,0.1,0,0.2,0,0.3c1.3-0.3,2.4-1.2,2.8-2.6c0.1-0.3,0.2-0.5,0.2-0.8
	c0.4-0.4,0.9-0.7,1.4-1.1c0.4,0.4,0.9,0.7,1.4,0.9v0.1c0-0.3,0.2-0.6,0.5-0.6c0,0,0,0,0,0c0-1.2,0.7-1.6,1.8-1.8
	c0.2-0.5,0.7-0.7,1.2-0.6H329c0.2-1.4,1.5-1.4,2.4-1.8c0.2-0.1,0.4-0.3,0.5-0.5c0.5-0.2,1-0.4,1.5-0.6c0,0.1,0.1,0.2,0.1,0.3
	c1.4-0.2,2.7-0.6,4-1.1c1-0.5,2.2-0.2,2.8,0.8c0.3,0.5,0.7,0.9,1.1,1.3c0.9-0.9,2.2-1.3,3.5-1.2
	C346.2,222.6,346.9,224.5,347.9,224.7z"/>
<path class="st15" d="M352.6,240.5L352.6,240.5L352.6,240.5z"/>
<path class="st15" d="M272.7,233.3c-0.3,0.5-0.5,1-0.9,1.4c-0.2,0.2-0.4,0.4-0.7,0.5c-0.4,0.1-0.7-0.2-1.1-0.7l-1.1,0.1
	c0,0.2,0,0.4,0,0.7c1,2.9,1,5.9,0,8.8c0,0.3,0,0.6,0,0.9c0,1.3-0.2,2.8,1.9,2.7c1-0.4,1.9-1.2,2.5-2.1c0.5-0.9,0.8-1.8,0.8-2.8
	c0.1-1.7,0.6-3.4,0.8-5.1S274.7,234.1,272.7,233.3z"/>
<path class="st15" d="M361,235.8c-1.6-1.8-1.6-1.8-3.3-0.2c-1.5,1.4-3.6,1-3.9-1c0-1.1-0.9-2-2-2c-1.1,0-2.1-0.2-3.2-0.3
	c-1.2-0.4-2.1-0.4-2.8,0.7s0.6,1.5,1,2.2c0.2,0.2,0.4,0.4,0.6,0.7l0.5,0.5c0.2,0.2,0.4,0.4,0.6,0.6s0.4,0.4,0.6,0.6
	c0.5-0.1,1,0.2,1.2,0.6c0.5,0.2,0.9,0.6,1.1,1.1l0.6,0.7c0.3,0.1,0.5,0.3,0.6,0.6c0.5-0.1,1,0.2,1.2,0.6c0.5,0.2,0.9,0.6,1.1,1.1
	l1.1,0.7c0.9-0.2,1.8-0.4,1.5-1.6c-0.2-1-0.7-2.1,0.8-2.6c1.4-0.5,2.9-0.1,3.9,1c0.9,1,1.2,2.4,2.5,3.1c0.2-1.5,0.9-3,0-4.5
	C363.3,237.9,362,237,361,235.8z"/>
<path class="st15" d="M372.3,190.7c0.6-0.3,0.9-1,0.8-1.7c0-1.3,0-2.7-0.1-4l-1.1-0.1l-0.6,0.1l-1.3,1.1c0,1.1,0,2.3,0.1,3.4
	C370.3,191.2,370.9,191.5,372.3,190.7z"/>
<path class="st15" d="M356.7,252.2c-0.1,1.2-0.9,1.3-1.8,1.1c-0.6-0.1-1.2-0.6-1.8,0.1c0.2,0.4,0.6,0.8,1,1c1.9,1.2,4,2,6.1,2.4h1
	C361.2,254.1,360,252.9,356.7,252.2z"/>
<path class="st15" d="M242.9,185.5c-0.1,0-0.2,0-0.3-0.1c-0.8,2.5,1.6,3.5,2.7,5c0.5,0.7,1.8,0.5,2.1-0.9
	C247,187.3,245.1,185.6,242.9,185.5z"/>
<path class="st15" d="M252.1,154.6c-0.1-1.3-0.6-2.5-1.3-3.6c-1-1.3-2.8-1.7-4.1-2.6c-3.9-2.6-5.7-17.4-11.6-16.2
	c-1.7,0.4-2.3,1.8-2.6,3.3c-0.6,0.4-0.7,1.2-0.3,1.8c-0.1,0.8-0.3,1.6-0.7,2.4c-1.3,1.9,0.4,3.4-1.8,5.3c-0.5,0.4-4.7,0.9-4.9,1.6
	c-0.8,4.6-1.6,9.4-0.5,14s4.6,8.9,9.2,9.5c3.6,0.4,7-1.3,10.6-2.1c3.5-0.8,7.1-0.6,10.4,0.5C253.7,163.7,252.9,159.1,252.1,154.6z"
	/>
<path class="st15" d="M239.1,271.5l-0.6-0.6l0,0c-0.3-0.1-0.5-0.3-0.6-0.6l0,0l-1.4-0.1c-1.3,0-2.8,0-3,1.5s1.4,1.3,2.4,1.5
	c0.2,0,0.4,0.2,0.5,0.2c1.5,0.2,1.8,1.2,1.6,2.5l0,0h2.9c1.3-0.7,1.6-1.6,0.4-2.7C240.6,272.8,239.8,272.2,239.1,271.5z"/>
<path class="st15" d="M255.7,248.7c-1.7,0.1-1.3,1.3-1.3,2.3h1.6l0.7-0.4l1.8-0.1C258,248.8,257.5,248.5,255.7,248.7z"/>
<path class="st15" d="M267.8,172.6L267.8,172.6z"/>
<path class="st15" d="M269,170.9L269,170.9c0-0.7,0-1.4,0-2c-1.4-0.8-2,0.1-2.4,1.3c-0.1,1.7-0.8,3.3-2,4.5c-0.9,0.9-2,1.6-3.2,2.1
	c-0.1,0.4-0.2,0.9-0.2,1.4c0,0.9,0.5,1.1,2.2,1.5c0.8-1,1.1-2.4,2.1-3.2l0.1-0.5c0.2-0.9,0.8-1.7,1.6-2.1c-0.1-0.5,0.1-1,0.6-1.2
	c0.1-0.3,0.3-0.5,0.6-0.6C268.3,171.6,268.5,171.1,269,170.9z"/>
<path class="st15" d="M268.4,172.1L268.4,172.1L268.4,172.1z"/>
<path class="st15" d="M258.4,139.9L258.4,139.9L258.4,139.9z"/>
<path class="st15" d="M272.2,134.5c-1.3,1.1-2.5,2.3-4.4,1.8c-0.4-0.1-1-0.1-1-0.4c-0.7-2.2-2.6-1.2-4-1.4c-1.5,0.8-2.1,2.6-3.7,3.4
	c-0.7,0.3-0.7,1.2-0.6,2v0.1h0.1c3.5,0.8,7,0.5,10.4,0.6l0,0c0.4-0.7,1.1-0.6,1.8-0.6c0.3-0.7,1.1-0.8,1.6-1.2
	C272.6,137.3,272.5,135.9,272.2,134.5z M270.1,138.6c-1.2,0-2.5,0-3.8,0l0,0c-1.2,0-2.3,0-3.5,0c-0.5,0-1-0.2-1.1-0.7s0.5-0.8,1-0.8
	c2.5,0,5,0,7.5,0c0.4,0,0.8,0.3,0.8,0.7c0,0,0,0,0,0C271.1,138.4,270.6,138.6,270.1,138.6z"/>
<path class="st15" d="M230.3,185.7c-0.7,0.1-1.5,0.7-2.1-0.1c-1.6-2.1-3.9-1.6-6.1-1.9c-2-0.3-2.3,1.5-3.5,2.1c-1,0.5,0,1.6,0.1,2.4
	c0,0.5,0.1,1,0.3,1.4c0.4,0.7,0.2,1.5-0.5,1.9c-0.1,0.1-0.3,0.1-0.4,0.2c-0.4,0.2-0.9,0.3-1.4,0.5c-0.6,0.2-0.9,0.8-0.8,1.4
	c0.1,0.8,0.8,0.8,1.3,0.6c0.6-0.3,1.3-0.1,1.6,0.4c0,0.1,0.1,0.1,0.1,0.2c0.4,0.8,0.5,1.5-0.4,2s-1,1.6-1,2.6s0,2.1,0,3.2l2.2,1.8
	c0.8,0.8,2.1,0.7,2.8-0.1c0.1-0.1,0.1-0.1,0.2-0.2c0.2,0,0.3-0.1,0.4-0.3l0.7-0.6l0,0c-0.1-0.5,0.1-1,0.6-1.1l0,0
	c-0.1-0.5,0.1-1,0.6-1.2c0.1-0.3,0.3-0.5,0.6-0.6l0,0c-0.1-0.5,0.2-1,0.6-1.3c2.4-3.8,4.6-7.8,6.4-12
	C232.5,185.1,231.3,185.6,230.3,185.7z"/>
<path class="st15" d="M376.4,202.5c-1.7,1-3.5,1.8-5.4,2.5l-0.5,1c-0.5,1.1,0,1.9,0.9,2.5s1.4-0.2,1.9-0.7c1.1-1.2,2.3-2.3,3.7-3.3
	C378.1,203.7,377.9,203.3,376.4,202.5z"/>
<path class="st15" d="M400,160.6v6.6l-2.5,0.7c-1.1-0.3-2.1-0.8-3-1.4c0.2,0.2,0.4,0.4,0.6,0.7c0.7,1.4,0.6,3.2-0.5,4.4
	c-1,1.2-2.3,2.2-3.7,3c-3.9,2.4-8,4.9-12.6,5.6c-2,0.2-4,0.3-6,0.3c-4.7,0-9.4,0.8-13.9,2.2c-0.1,0.8-0.4,1.5-0.8,2.1
	c-0.5,0.8-0.9,1.7-1.5,2.5c-1.5,2.3-2.2,4.5,0,7c1.1,1.2,0.7,1.6-1.4,1.7c-0.4-0.3-0.8-0.4-1.3-0.4c-0.7-1.9-1-4-0.8-6
	c0-0.6,0.1-1.5-0.9-1.6c-0.8-0.1-0.7,0.7-0.9,1.2c-0.8,1.9-1.5,2-2.9,0.6c-0.5-0.6-1-1.2-1.4-1.8c-1.4-2.1-1.2-2.8,1.3-3
	c1.5-0.1,2.3-1.4,3.7-1.4c0.3,0,0.4-0.2,0.4-0.5c-0.1-0.3-0.2-0.6-0.1-0.9c0,0,0-0.1,0-0.1c-0.3-1.6,0.1-2.1,1.7-1.8
	c0.2,0,0.5,0.1,0.7,0.2c2.8-1.8,4.1-5.9,7.4-6.6c1.1-0.1,2.2-0.2,3.2-0.1c5.3-0.2,9.5-6.2,7.9-11.3c1-0.2,2-0.4,3-0.6
	c0.2-0.3,0.5-0.4,0.8-0.2c0.2-0.1,0.4-0.2,0.6-0.3c4-2.2-1-3.5-1.4-4.6c-0.5-1.8,0.7-3.2,1.6-5c0.4-0.8,1-1.6,1.5-2.4
	c1,0,2.1,0.2,2.6-0.8c0.8-1.3,2-1.1,3.1-1c2.6,0.3,5.1,0.8,7.7,1.1c1.8,4-2.2,3.9-3.4,6.9c-1,2.7,1,6.6,3,8.9
	c-0.2-0.6-0.3-1.2-0.3-1.8c-0.1-1.6-0.4-3.3-0.8-4.9c-0.3-1.6,0.5-3.3,2-4.1c0.7-0.3,1.2-0.1,1.4,0.5
	C395.4,157.1,397.6,159,400,160.6z"/>
<path class="st15" d="M400,209v3.9c-0.1,0.1-0.3,0.1-0.4,0.1c-1,0-1.4-0.6-1.7-1.3c-0.1-0.4-0.3-0.7-0.4-1.2
	c-2.5,0.1-2.2,2.5-3.3,3.9c-1.3-3.4-0.1-6.1,3.1-7.1C398,208.1,398.9,208.7,400,209z"/>
<path class="st15" d="M171.8,99.2c-1.7,1.3-2.6,3.4-2.4,5.6c0,1.4-1.3,2.6-2.2,3.7c-0.5,0.6-1.2,0.5-1.8,0s-1-1.4-1.9-1.1
	c-0.2,0.1-0.3,0.1-0.4,0.2V102c0.9-0.2,1.8,0.3,2.7,0.3c0.5-1.2-0.3-2-0.6-2.8c-0.7-2.3-0.3-3.1,2-3.8c1.9-0.6,4,0.1,5,1.9
	C172.5,98,172.3,98.8,171.8,99.2z"/>
<path class="st15" d="M220.4,108.9h0.6c2.9,0.2,2.8,0.2,2.9-2.8c0.1-2.1-1.2-3.8-1.2-5.9c-1.1,0.1-2.3-0.5-3.4,0
	c0.2,0.9,0.4,1.8,0.8,2.7c1,1.7,1.1,3.7,0.2,5.5C220.3,108.5,220.4,108.7,220.4,108.9z"/>
<path class="st15" d="M168.1,89c-0.9,0.5-1.8,1-2.9,1.6c-0.3-1.2-1-2.4-2-3.1c-0.1,0-0.1-0.1-0.2-0.2v-2.6c0.3-0.3,0.8-0.4,1.4,0.1
	c1.2,0.9,2.1,2.3,3.7,2.7C168.8,87.7,169,88.5,168.1,89z"/>
<path class="st15" d="M176.2,166.2c1.2,0.1,1.5-0.6,1.4-1.6c-1.5,0-3.1-0.2-4.5-0.6c-0.2,0.8-0.4,1.7-0.6,2.5
	c-0.3,2.7-1.7,4.4-4.5,4.7c0,1.2,0.5,2.4,1.2,3.3l1.4-0.1c0.2-0.9,0.8-1.8,1.6-2.3c1.3-0.8,2.1-2.4,2-3.9
	C174,166.7,174.7,166,176.2,166.2z"/>
<path class="st15" d="M192.9,232.8c-3,0.2-3,0.2-2.9,3c0,0.4,0.1,0.7,0.1,1.1c1.8,0.4,3.2,2,5.1,1.8c-0.5-1.9-0.1-3.9-0.7-5.8
	L192.9,232.8z"/>
<path class="st15" d="M192.5,211.6c1-0.3,1.6-1.3,1.5-2.3c-0.2-1.8,0.2-3.5,1.2-5c-0.6-0.1-1.2-0.6-1.4-1.2c-1-0.8-2-1.7-2.8-2.8
	c-1.6,1.2-3-0.1-4.6-0.1c1,2.3-0.3,5.3,2,7.3c0.1,0.1,0.1,0.4,0,0.6c-0.7,1.5,0.7,2,1.4,2.9C190.5,211.8,191.6,212.1,192.5,211.6z"
	/>
<path class="st15" d="M202.8,68c-1.7,0.9-2.6,2.8-2.3,4.7c0.2,2.2-0.4,4.5-1.8,6.3c-0.9,1.3-1.8,2.6-1.7,4.2
	c0.2,0.4,0.4,0.8,0.6,1.2c2.2-0.2,3-1.9,3.5-3.6c0.3-1.1,0.7-2.2,1.1-3.2c0.8-1.5,1.3-3.3,1.3-5c-0.1-0.7,0.1-1.4,0.6-1.8
	c1.5-1.1,1.5-2.8,1.6-4.4l-1.7,0.5C203.8,67.3,203.3,67.7,202.8,68z"/>
<path class="st15" d="M218.1,98.9h3.9c-0.3-2.2-1.8-3.9-2.5-5.8c-0.4-1.1-0.1-1.8,1.1-1.7c2.2,0.2,4.6-0.9,6.5,1.4
	c0.6,0.6,1.7,0.6,2.3,0c0,0,0,0,0.1-0.1c0.7-0.9,0.2-1.8-0.7-2.4c-1.8-1.2-3.9-1.8-6-1.8c-1.4-0.1-2.9,0.3-4.2-0.2
	c-0.1-3.7,0.4-7.3,0.6-10.8c-1.3-0.2-1.1-1.6-1.7-2.3l-0.5-0.7l0,0c-1.9,0.4-2.2,2.7-4,3.1c-0.1,0-0.1,0.3-0.2,0.5
	c-0.8,1.9-1,3.9-0.4,5.9c0.4,1.3,0.7,2.6,1.1,3.9c0.9,3.2,1.2,3-2,4.6c-0.3,0.2-0.6,0.4-0.9,0.7l0,0c5.7,0,4.1-0.8,7.4,4.4
	C218,98,218.1,98.4,218.1,98.9z"/>
<path class="st15" d="M188.4,102.2c0.2-0.3,0.3-0.6,0.4-0.9c0-0.7,0-1.3,0-2c-1.6-3.6-3.3-7.1-4.9-10.7c-1.8,0.4-3.1,1.9-3.3,3.7
	c0,0.1,0,0.3,0,0.4c-0.1,2.4,0.4,4.9-1,7.2c-0.4,0.6,0.1,1,0.6,1.4c1.7,1.4,4,1.3,5.9,2.1C186.9,103.8,187.9,103,188.4,102.2z"/>
<path class="st15" d="M198.9,110c-0.4,0.1-0.7,0.3-1,0.6c-0.4,0.5-0.6,1-0.8,1.5c-0.6,2-1.9,3.6-2.8,5.5c-0.2,0.5-0.9,0.9-0.2,1.4
	s1.2,0.3,1.6-0.5c1.1-2.2,2.2-4.4,4.7-5.4c0.2-0.1,0.3-0.2,0.4-0.3c0.2-0.4,0.2-0.8,0-1.2L198.9,110z"/>
<path class="st15" d="M181.8,192l-0.6,0.1c-2.7-0.3-2.7-0.3-2.9-2.9c0-0.4,0-0.8-0.1-1.2c-0.4-1.1-1.2-2-2.2-2.6
	c-1-0.9-1.5,0.5-2.2,0.8c-1.5,0.7-2.7,1.8-4.5,0.6c-0.8-0.4-1.8-0.1-2.4,0.5c-0.6,0.5-1.3,0.9-1.8,1.5s-1.2,1.1-2,0.6H163v-4.3
	c0.6-0.5,1.7-0.6,2.1-1.4c0.3-0.7,1,0,1.5,0.3c0.6,0.4,1.2,0.6,1.8-0.2c0.8-1,0.1-2.1,0-3.1s-1-1-1.8-1c-2.8-0.2-2.8-0.2-2.7-3h1.5
	c0.3,0,0.6,0,0.9,0c2.9-0.4,5.1,0.3,6,3.5c0.2,0.7,0.6,1.3,1.5,0.9c1.4-0.6,2,0.3,2.9,1.1s1.5,2.3,3.2,2.2c0.5,0,0.8,0.5,0.8,1
	c0,0.1-0.1,0.3-0.1,0.4c-1.9,2.5,0.1,4.1,1.2,5.9C181.7,191.8,181.8,191.9,181.8,192z"/>
<path class="st15" d="M177.1,274.4L177.1,274.4L177.1,274.4z"/>
<path class="st15" d="M178.2,269.2L178.2,269.2L178.2,269.2z"/>
<path class="st15" d="M179.4,272.1L179.4,272.1L179.4,272.1z"/>
<path class="st15" d="M178.8,270.4c-0.4-0.2-0.6-0.7-0.6-1.2c-0.4-0.2-0.6-0.6-0.6-1.1l-1.2-0.2l-2.2,0.1l-1.2,6.9
	c1.3-0.4,2.6-0.6,4-0.6c0.6-1,2.4-0.7,2.4-2.3C178.8,271.7,178.9,271,178.8,270.4z M177.3,273c-1.3,0.8-1.8-0.7-3.1-1
	c1.4-0.9,2.4-1.6,3.3-0.5C177.8,271.9,177.8,272.6,177.3,273z"/>
<path class="st15" d="M178.8,270.3L178.8,270.3L178.8,270.3z"/>
<path class="st16" d="M399.5,73.7c0,1.7-0.2,3.4-0.6,5c-0.6,2.6-1.5,5-2.7,7.3c-0.5,1-1,1.9-1.6,2.8c-0.4,0.7-0.9,1.4-1.3,2
	c-0.8,1.2-1.6,2.3-2.5,3.5c-0.6,0.7-1.2,1.5-1.8,2.2c0,0-0.1,0.1-0.1,0.1c-0.5,0.7-1.1,1.3-1.6,2c-1.5,1.7-2.9,3.4-4.4,5.2
	c-1.9,2.2-3.8,4.5-5.5,6.9c-3,3.9-5.3,8.2-6.8,12.8c-0.2,0.5-0.3,1-0.4,1.6l-0.2,0.8c-0.1,0.7-0.3,1.4-0.4,2
	c-0.5,3.2-0.8,6.5-1.4,9.6c-0.1,0.5-0.2,1-0.4,1.6s-0.2,0.8-0.4,1.2c-0.2,0.6-0.4,1.2-0.6,1.8c-0.2,0.4-0.4,0.8-0.5,1.2
	c-1.7,3.3-4.1,6.2-6.9,8.7l-1.2,1.1c-1,0.9-2.1,1.8-3.2,2.7c-15.7,12.2-35.8,18.8-49,33.6c-12.7,14.2-17.1,34-19.2,52.9
	c-0.8,7.1-1.3,14.4,0.9,21.2s7.9,12.9,15,13.7c-0.3,0.2-0.6,0.5-0.9,0.7h-29.8l1.4-32.5l0.1-2.6c0.1-2.7-0.7-5.4-2.3-7.7
	c-1.3-1.7-2.9-2.4-4.7-1.1c-0.1-5.3-1.5-10.4-4.1-15l10.2,0.7c6.5-12.8,5.2-28.2-3.4-39.7c-1.1-1.4-2.3-2.8-3.5-4.2
	c-0.4-0.4-0.7-0.8-1.1-1.2c-1.8-1.9-3.2-4.1-4.3-6.5c-1.7-4-1.8-8.4-2.6-12.7c-2.2-11.2-9.3-20.9-19.3-26.3
	c-6.1-3.2-12.9-4.8-19.4-7.1c-6.4-2.3-12.4-5.4-18-9.3c-1-0.7-2-1.4-3-2.1c-3.4-2.6-6.6-5.4-9.5-8.5c-6-6.2-10.9-13.3-14.6-21
	c-2.5-5.3-4.4-10.8-6.6-16.1h9.6c9.4,20,22.7,41.1,44.2,46.3c10.6,2.6,23.8,1.8,29.9,10.8c3.6,5.3,3.4,12.6,7.4,17.6l0.1,0.1
	l0.1,0.1c1,1.2,2.2,2.2,3.5,3c1.5,0.9,3,1.6,4.7,2.1c8.3,2.7,18.9,2.3,24.5,9.1c6,7.3,2.7,19.2,8.6,26.7l45.3-27
	c3.7-2.2,7.5-4.5,9.8-8c2.9-4.3,3.1-9.6,3.3-14.9c0-0.4,0-0.8,0-1.3c0-3.2,0.4-6.5,1.2-9.6c0.5-1.9,1.3-3.6,2.3-5.3
	c4.6-7.9,13.4-13.3,20.9-19.1c1.5-1.1,2.9-2.3,4.2-3.6c4-3.8,7.5-8.4,9.3-13.3c1.5-3.9,1.5-8.1,0.1-12c-0.2-0.5-0.4-1-0.7-1.6h3.3
	C399.1,67.9,399.4,70.8,399.5,73.7z"/>
<rect x="163" y="65" class="st17" width="237" height="213"/>
<rect x="63" y="65" class="st18" width="100" height="213"/>
<rect x="63" y="78" class="st6" width="100" height="200"/>
<rect x="70" y="83" class="st8" width="87" height="23"/>
<rect x="70" y="114.2" class="st8" width="87" height="23"/>
<rect x="70" y="145.3" class="st8" width="87" height="23"/>
<rect x="70" y="176.5" class="st8" width="87" height="23"/>
<rect x="70" y="207.7" class="st8" width="87" height="23"/>
<rect x="70" y="238.8" class="st8" width="87" height="23"/>
<rect x="70" y="270" class="st8" width="87" height="8"/>
<g>
	<rect x="70" y="83" class="st8" width="87" height="23"/>
	<rect x="70" y="114.2" class="st8" width="87" height="23"/>
	<rect x="70" y="145.3" class="st8" width="87" height="23"/>
	<rect x="70" y="176.5" class="st8" width="87" height="23"/>
	<rect x="70" y="207.7" class="st8" width="87" height="23"/>
	<rect x="70" y="238.8" class="st8" width="87" height="23"/>
	<rect x="70" y="270" class="st8" width="87" height="8"/>
</g>
<linearGradient id="SVGID_3_" gradientUnits="userSpaceOnUse" x1="186.1" y1="348.5" x2="421.4016" y2="348.5" gradientTransform="matrix(1 0 0 -1 0 502)">
	<stop  offset="0" style="stop-color:#FFFFFF"/>
	<stop  offset="1" style="stop-color:#FFFFFF;stop-opacity:0"/>
</linearGradient>
<path class="st19" d="M380.6,278h38.8c1.2,0,2-1,2-2.2V31.2c0-1.2-0.8-2.1-2-2.2H186.1L380.6,278z"/>
<image style="overflow:visible;opacity:0.15;enable-background:new    ;" width="365" height="241" xlink:href="CC5A04AB0A234AED.png"  transform="matrix(1 0 0 1 339 159)">
</image>
<path class="st3" d="M697.5,175.9v203.8c0,5.1-3.2,9.6-7.9,11.3c-1.3,0.5-2.8,0.8-4.2,0.8H357.6c-6.7,0-12.1-5.4-12.1-12.1V175.9
	c0-6.7,5.4-12.1,12.1-12.1h327.8C692.1,163.8,697.5,169.2,697.5,175.9z"/>
<path class="st1" d="M301,391h441l0,0v3c0,6.1-4.9,11-11,11l0,0H312c-6.1,0-11-4.9-11-11l0,0V391L301,391z"/>
<path class="st20" d="M483,391h83l0,0l0,0c0,2.8-2.2,5-5,5h-73C485.2,396,483,393.8,483,391L483,391L483,391z"/>
<path class="st21" d="M680.5,182v199.2c0,0.9-0.7,1.7-1.6,1.8H364.1c-0.9,0-1.7-0.8-1.6-1.8V182c0-0.9,0.7-1.7,1.6-1.8h314.7
	C679.8,180.3,680.5,181.1,680.5,182z"/>
<path class="st6" d="M652,383H394.6V212c0-1.1,0.9-2,2-2H650c1.1,0,2,0.9,2,2V383z"/>
<path class="st10" d="M396.6,210H650c1.1,0,2,0.9,2,2v8l0,0H394.6l0,0v-8C394.6,210.9,395.5,210,396.6,210z"/>
<circle class="st11" cx="399.6" cy="215" r="2"/>
<circle class="st12" cx="405.7" cy="215" r="2"/>
<circle class="st13" cx="411.7" cy="215" r="2"/>
<linearGradient id="SVGID_4_" gradientUnits="userSpaceOnUse" x1="482.06" y1="220.38" x2="680.5012" y2="220.38" gradientTransform="matrix(1 0 0 -1 0 502)">
	<stop  offset="0" style="stop-color:#FFFFFF"/>
	<stop  offset="1" style="stop-color:#FFFFFF;stop-opacity:0"/>
</linearGradient>
<path class="st22" d="M640.5,383h38.4c0.9,0,1.7-0.8,1.6-1.8V182c0-0.9-0.7-1.7-1.6-1.8H482.1L640.5,383z"/>
<rect x="395" y="220" class="st18" width="257" height="12"/>
<rect x="505" y="257.7" class="st23" width="14.6" height="44.3"/>
<rect x="521.1" y="275.4" class="st24" width="14.6" height="26.6"/>
<rect x="550.6" y="263.9" class="st23" width="14.6" height="38.1"/>
<rect x="566.7" y="270.1" class="st24" width="14.6" height="31.9"/>
<rect x="597.2" y="259.4" class="st23" width="14.6" height="42.6"/>
<rect x="613.4" y="255" class="st24" width="14.6" height="47"/>
<rect x="408" y="257" class="st8" width="20" height="10"/>
<rect x="408" y="271.2" class="st8" width="66" height="23"/>
<rect x="408" y="321" class="st8" width="20" height="10"/>
<rect x="408" y="335.2" class="st8" width="66" height="23"/>
<rect x="408" y="257" class="st8" width="20" height="10"/>
<rect x="408" y="271.2" class="st8" width="66" height="23"/>
<rect x="408" y="321" class="st8" width="20" height="10"/>
<rect x="408" y="335.2" class="st8" width="66" height="23"/>
<polyline class="st25" points="507.8,361 533.1,357.2 564.9,352.4 625,328 "/>
<circle class="st23" cx="509.5" cy="332.5" r="4"/>
<circle class="st24" cx="510" cy="360" r="4"/>
<circle class="st24" cx="567" cy="352" r="4"/>
<circle class="st24" cx="625" cy="327" r="4"/>
<circle class="st23" cx="567" cy="342" r="4"/>
<circle class="st23" cx="625" cy="335" r="4"/>
<polyline class="st26" points="508,332.3 531.7,336.3 567.1,342.4 625,335.2 "/>
<linearGradient id="SVGID_5_" gradientUnits="userSpaceOnUse" x1="523.5" y1="48" x2="523.5" y2="97" gradientTransform="matrix(1 0 0 -1 0 502)">
	<stop  offset="0" style="stop-color:#FFFFFF;stop-opacity:0"/>
	<stop  offset="1" style="stop-color:#1F1F1F;stop-opacity:0.5"/>
</linearGradient>
<path class="st27" d="M321.3,405h404.4c25.6,0,46.3,20.7,46.3,46.3v2.7l0,0H275l0,0v-2.7C275,425.7,295.7,405,321.3,405z"/>
<path class="st5" d="M355.7,164h331.8c4.8,0,8.8,4.5,9.5,10.3l-0.2,5.3c0-6.4-4.3-11.7-9.7-11.7H355.3c-4.5,0-8.2,3.7-9.3,8.7v-0.6
	C346,169.4,350.4,164,355.7,164z"/>
<image style="overflow:visible;opacity:0.15;enable-background:new    ;" width="363" height="25" xlink:href="CC5A04AB0A234AEE.png"  transform="matrix(1 0 0 1 340 374)">
</image>
<path class="st4" d="M355.7,391h331.8c4.9-0.1,8.9-3.7,9.5-8.6l-0.2-4.4c0,5.3-4.3,9.7-9.7,9.7H355.3c-4.4,0-8.2-3-9.3-7.2v0.6
	C345.9,386.4,350.2,390.9,355.7,391z"/>
<linearGradient id="SVGID_6_" gradientUnits="userSpaceOnUse" x1="293" y1="1" x2="293" y2="20" gradientTransform="matrix(1 0 0 -1 0 502)">
	<stop  offset="0" style="stop-color:#FFFFFF;stop-opacity:0"/>
	<stop  offset="1" style="stop-color:#1F1F1F;stop-opacity:0.5"/>
</linearGradient>
<path class="st28" d="M265.7,482h54.6c8.1,0,14.7,6.6,14.7,14.7v4.3l0,0h-84l0,0v-4.3C251,488.6,257.6,482,265.7,482z"/>
<linearGradient id="SVGID_7_" gradientUnits="userSpaceOnUse" x1="283.25" y1="127.695" x2="332" y2="127.695" gradientTransform="matrix(1 0 0 -1 0 502)">
	<stop  offset="0" style="stop-color:#FFFFFF"/>
	<stop  offset="1" style="stop-color:#FFFFFF;stop-opacity:0"/>
</linearGradient>
<path class="st29" d="M332,328.5v101.1L283.2,319h39.3C327.7,319,332,323.3,332,328.5z"/>
<image style="overflow:visible;opacity:0.15;enable-background:new    ;" width="91" height="175" xlink:href="CC5A04AB0A234AEC.png"  transform="matrix(1 0 0 1 247 315)">
</image>
<path class="st3" d="M262.5,319h60c5.2,0,9.5,4.2,9.5,9.5v144c0,5.2-4.2,9.5-9.5,9.5h-60c-5.2,0-9.5-4.2-9.5-9.5v-144
	C253,323.2,257.2,319,262.5,319z"/>
<rect x="259" y="340" class="st6" width="67" height="121"/>
<rect x="259" y="352" class="st0" width="67" height="12"/>
<rect x="259" y="376" class="st8" width="67" height="12"/>
<rect x="259" y="400" class="st8" width="67" height="12"/>
<rect x="259" y="424.2" class="st8" width="67" height="12"/>
<rect x="259" y="448" class="st8" width="67" height="12"/>
<rect x="259" y="340" class="st18" width="67" height="12"/>
<rect x="259" y="453" class="st18" width="67" height="12"/>
<rect x="259" y="340" class="st30" width="67" height="125"/>
<path class="st18" d="M264.5,357h8c0.8,0,1.5,0.7,1.5,1.5l0,0c0,0.8-0.7,1.5-1.5,1.5h-8c-0.8,0-1.5-0.7-1.5-1.5l0,0
	C263,357.7,263.7,357,264.5,357z"/>
<path class="st18" d="M284.1,357h8c0.8,0,1.5,0.7,1.5,1.5l0,0c0,0.8-0.7,1.5-1.5,1.5h-8c-0.8,0-1.5-0.7-1.5-1.5l0,0
	C282.6,357.7,283.3,357,284.1,357z"/>
<path class="st18" d="M304.6,357h8c0.8,0,1.5,0.7,1.5,1.5l0,0c0,0.8-0.7,1.5-1.5,1.5h-8c-0.8,0-1.5-0.7-1.5-1.5l0,0
	C303.1,357.7,303.8,357,304.6,357z"/>
<path class="st18" d="M326,360h-1.5c-0.8,0-1.5-0.7-1.5-1.5s0.7-1.5,1.5-1.5h1.5V360z"/>
<path class="st0" d="M264.5,369h8c0.8,0,1.5,0.7,1.5,1.5l0,0c0,0.8-0.7,1.5-1.5,1.5h-8c-0.8,0-1.5-0.7-1.5-1.5l0,0
	C263,369.7,263.7,369,264.5,369z"/>
<path class="st0" d="M284.1,369h8c0.8,0,1.5,0.7,1.5,1.5l0,0c0,0.8-0.7,1.5-1.5,1.5h-8c-0.8,0-1.5-0.7-1.5-1.5l0,0
	C282.6,369.7,283.3,369,284.1,369z"/>
<path class="st0" d="M304.6,369h8c0.8,0,1.5,0.7,1.5,1.5l0,0c0,0.8-0.7,1.5-1.5,1.5h-8c-0.8,0-1.5-0.7-1.5-1.5l0,0
	C303.1,369.7,303.8,369,304.6,369z"/>
<path class="st0" d="M326,372h-1.5c-0.8,0-1.5-0.7-1.5-1.5s0.7-1.5,1.5-1.5h1.5V372z"/>
<path class="st0" d="M264.5,381h8c0.8,0,1.5,0.7,1.5,1.5l0,0c0,0.8-0.7,1.5-1.5,1.5h-8c-0.8,0-1.5-0.7-1.5-1.5l0,0
	C263,381.7,263.7,381,264.5,381z"/>
<path class="st0" d="M284.1,381h8c0.8,0,1.5,0.7,1.5,1.5l0,0c0,0.8-0.7,1.5-1.5,1.5h-8c-0.8,0-1.5-0.7-1.5-1.5l0,0
	C282.6,381.7,283.3,381,284.1,381z"/>
<path class="st0" d="M304.6,381h8c0.8,0,1.5,0.7,1.5,1.5l0,0c0,0.8-0.7,1.5-1.5,1.5h-8c-0.8,0-1.5-0.7-1.5-1.5l0,0
	C303.1,381.7,303.8,381,304.6,381z"/>
<path class="st0" d="M326,384h-1.5c-0.8,0-1.5-0.7-1.5-1.5s0.7-1.5,1.5-1.5h1.5V384z"/>
<path class="st0" d="M264.5,393h8c0.8,0,1.5,0.7,1.5,1.5l0,0c0,0.8-0.7,1.5-1.5,1.5h-8c-0.8,0-1.5-0.7-1.5-1.5l0,0
	C263,393.7,263.7,393,264.5,393z"/>
<path class="st0" d="M284.1,393h8c0.8,0,1.5,0.7,1.5,1.5l0,0c0,0.8-0.7,1.5-1.5,1.5h-8c-0.8,0-1.5-0.7-1.5-1.5l0,0
	C282.6,393.7,283.3,393,284.1,393z"/>
<path class="st0" d="M304.6,393h8c0.8,0,1.5,0.7,1.5,1.5l0,0c0,0.8-0.7,1.5-1.5,1.5h-8c-0.8,0-1.5-0.7-1.5-1.5l0,0
	C303.1,393.7,303.8,393,304.6,393z"/>
<path class="st0" d="M326,396h-1.5c-0.8,0-1.5-0.7-1.5-1.5s0.7-1.5,1.5-1.5h1.5V396z"/>
<path class="st0" d="M264.5,405h8c0.8,0,1.5,0.7,1.5,1.5l0,0c0,0.8-0.7,1.5-1.5,1.5h-8c-0.8,0-1.5-0.7-1.5-1.5l0,0
	C263,405.7,263.7,405,264.5,405z"/>
<path class="st0" d="M284.1,405h8c0.8,0,1.5,0.7,1.5,1.5l0,0c0,0.8-0.7,1.5-1.5,1.5h-8c-0.8,0-1.5-0.7-1.5-1.5l0,0
	C282.6,405.7,283.3,405,284.1,405z"/>
<path class="st0" d="M304.6,405h8c0.8,0,1.5,0.7,1.5,1.5l0,0c0,0.8-0.7,1.5-1.5,1.5h-8c-0.8,0-1.5-0.7-1.5-1.5l0,0
	C303.1,405.7,303.8,405,304.6,405z"/>
<path class="st0" d="M326,408h-1.5c-0.8,0-1.5-0.7-1.5-1.5s0.7-1.5,1.5-1.5h1.5V408z"/>
<path class="st0" d="M264.5,417h8c0.8,0,1.5,0.7,1.5,1.5l0,0c0,0.8-0.7,1.5-1.5,1.5h-8c-0.8,0-1.5-0.7-1.5-1.5l0,0
	C263,417.7,263.7,417,264.5,417z"/>
<path class="st0" d="M284.1,417h8c0.8,0,1.5,0.7,1.5,1.5l0,0c0,0.8-0.7,1.5-1.5,1.5h-8c-0.8,0-1.5-0.7-1.5-1.5l0,0
	C282.6,417.7,283.3,417,284.1,417z"/>
<path class="st0" d="M304.6,417h8c0.8,0,1.5,0.7,1.5,1.5l0,0c0,0.8-0.7,1.5-1.5,1.5h-8c-0.8,0-1.5-0.7-1.5-1.5l0,0
	C303.1,417.7,303.8,417,304.6,417z"/>
<path class="st0" d="M326,420h-1.5c-0.8,0-1.5-0.7-1.5-1.5s0.7-1.5,1.5-1.5h1.5V420z"/>
<path class="st0" d="M264.5,428.8h8c0.8,0,1.5,0.7,1.5,1.5l0,0c0,0.8-0.7,1.5-1.5,1.5h-8c-0.8,0-1.5-0.7-1.5-1.5l0,0
	C263,429.4,263.7,428.8,264.5,428.8z"/>
<path class="st0" d="M284.1,428.8h8c0.8,0,1.5,0.7,1.5,1.5l0,0c0,0.8-0.7,1.5-1.5,1.5h-8c-0.8,0-1.5-0.7-1.5-1.5l0,0
	C282.6,429.4,283.3,428.8,284.1,428.8z"/>
<path class="st0" d="M304.6,428.8h8c0.8,0,1.5,0.7,1.5,1.5l0,0c0,0.8-0.7,1.5-1.5,1.5h-8c-0.8,0-1.5-0.7-1.5-1.5l0,0
	C303.1,429.4,303.8,428.8,304.6,428.8z"/>
<path class="st0" d="M326,431.8h-1.5c-0.8,0-1.5-0.7-1.5-1.5s0.7-1.5,1.5-1.5h1.5V431.8z"/>
<path class="st0" d="M264.5,441h8c0.8,0,1.5,0.7,1.5,1.5l0,0c0,0.8-0.7,1.5-1.5,1.5h-8c-0.8,0-1.5-0.7-1.5-1.5l0,0
	C263,441.7,263.7,441,264.5,441z"/>
<path class="st0" d="M284.1,441h8c0.8,0,1.5,0.7,1.5,1.5l0,0c0,0.8-0.7,1.5-1.5,1.5h-8c-0.8,0-1.5-0.7-1.5-1.5l0,0
	C282.6,441.7,283.3,441,284.1,441z"/>
<path class="st0" d="M304.6,441h8c0.8,0,1.5,0.7,1.5,1.5l0,0c0,0.8-0.7,1.5-1.5,1.5h-8c-0.8,0-1.5-0.7-1.5-1.5l0,0
	C303.1,441.7,303.8,441,304.6,441z"/>
<path class="st0" d="M326,444h-1.5c-0.8,0-1.5-0.7-1.5-1.5s0.7-1.5,1.5-1.5h1.5V444z"/>
<path class="st5" d="M262.1,319h60.8c1,0,6,1.7,6.1,4v2c0-2.5-5-4.5-6.1-4.5H262c-0.9,0-5.8,1.4-6.1,3.3v-0.2
	C256,321.1,261,319,262.1,319z"/>
<path class="st4" d="M325.4,482h-65.8c-1.1,0-6.4-1.7-6.6-4v-2c0,2.5,5.4,4.5,6.6,4.5h65.8c1,0,6.3-1.4,6.5-3.3v0.2
	C332,479.9,326.6,482,325.4,482z"/>
<linearGradient id="SVGID_8_" gradientUnits="userSpaceOnUse" x1="274" y1="99.5" x2="326" y2="99.5" gradientTransform="matrix(1 0 0 -1 0 502)">
	<stop  offset="0" style="stop-color:#FFFFFF"/>
	<stop  offset="1" style="stop-color:#FFFFFF;stop-opacity:0"/>
</linearGradient>
<polygon class="st31" points="274,340 321.5,465 326,465 326,340 "/>
</svg>
