<?xml version="1.0" encoding="UTF-8"?>
<svg width="48px" height="40px" viewBox="0 0 48 40" version="1.1" xmlns="http://www.w3.org/2000/svg" xmlns:xlink="http://www.w3.org/1999/xlink">
    <!-- Generator: Sketch 44 (41411) - http://www.bohemiancoding.com/sketch -->
    <title>Group 2</title>
    <desc>Created with Sketch.</desc>
    <defs></defs>
    <g id="*Style-Library" stroke="none" stroke-width="1" fill="none" fill-rule="evenodd">
        <g id="Artboard" transform="translate(-1543.000000, -502.000000)" fill-rule="nonzero" fill="#212121">
            <g id="Group-2" transform="translate(1543.000000, 502.000000)">
                <g id="Group">
                    <path d="M1.62712815,7.30534263 L1.62712815,37.0655028 C1.62712815,37.3642761 1.8703335,37.6069971 2.16957372,37.6069971 L45.0171426,37.6069971 C45.3177591,37.6069971 45.5595881,37.3655433 45.5595881,37.0655028 L45.5595881,7.30534263 C45.5595881,7.00656934 45.3163828,6.7638484 45.0171426,6.7638484 L2.16957372,6.7638484 C1.86895714,6.7638484 1.62712815,7.00530223 1.62712815,7.30534263 Z M0,7.30534263 C0,6.10974675 0.969335687,5.14052478 2.16957372,5.14052478 L45.0171426,5.14052478 C46.215365,5.14052478 47.1867163,6.11037589 47.1867163,7.30534263 L47.1867163,37.0655028 C47.1867163,38.2610987 46.2173806,39.2303207 45.0171426,39.2303207 L2.16957372,39.2303207 C0.97135124,39.2303207 0,38.2604696 0,37.0655028 L0,7.30534263 Z" id="Rectangle-2-Copy-4"></path>
                    <path d="M17.0848455,2.16337578 L17.0848455,4.60047262 C17.0848455,4.89834466 17.3276275,5.14052478 17.6268283,5.14052478 L29.559888,5.14052478 C29.8604215,5.14052478 30.1018707,4.89955818 30.1018707,4.60047262 L30.1018707,2.16337578 C30.1018707,1.86550374 29.8590888,1.62332362 29.559888,1.62332362 L17.6268283,1.62332362 C17.3262948,1.62332362 17.0848455,1.86429022 17.0848455,2.16337578 Z M15.4577174,2.16337578 C15.4577174,0.968576327 16.426832,0 17.6268283,0 L29.559888,0 C30.7578549,0 31.7289989,0.969094563 31.7289989,2.16337578 L31.7289989,4.60047262 C31.7289989,5.79527207 30.7598842,6.7638484 29.559888,6.7638484 L17.6268283,6.7638484 C16.4288614,6.7638484 15.4577174,5.79475383 15.4577174,4.60047262 L15.4577174,2.16337578 Z" id="Rectangle-2-Copy-5"></path>
                    <path d="M22.508606,19.7485357 L22.508606,24.6223098 C22.508606,24.9204441 22.7505171,25.161516 23.0507397,25.161516 L24.4071646,25.161516 C24.706148,25.161516 24.9492983,24.9192218 24.9492983,24.6223098 L24.9492983,19.7485357 C24.9492983,19.4504014 24.7073872,19.2093294 24.4071646,19.2093294 L23.0507397,19.2093294 C22.7517563,19.2093294 22.508606,19.4516237 22.508606,19.7485357 Z M20.8814779,19.7485357 C20.8814779,18.5542034 21.8540036,17.5860058 23.0507397,17.5860058 L24.4071646,17.5860058 C25.6052148,17.5860058 26.5764264,18.5530559 26.5764264,19.7485357 L26.5764264,24.6223098 C26.5764264,25.816642 25.6039007,26.7848397 24.4071646,26.7848397 L23.0507397,26.7848397 C21.8526895,26.7848397 20.8814779,25.8177895 20.8814779,24.6223098 L20.8814779,19.7485357 Z" id="Rectangle-2-Copy-6"></path>
                    <polygon id="Line-Copy-8" points="0.542376049 22.7265306 21.695042 22.7265306 21.695042 21.103207 0.542376049 21.103207"></polygon>
                    <polygon id="Line-Copy-9" points="24.9492983 22.7265306 46.9334658 22.7265306 46.9334658 21.103207 24.9492983 21.103207"></polygon>
                </g>
            </g>
        </g>
    </g>
</svg>