<?xml version="1.0" encoding="utf-8"?>
<!-- Generator: Adobe Illustrator 21.1.0, SVG Export Plug-In . SVG Version: 6.00 Build 0)  -->
<svg version="1.1" id="Layer_1" xmlns="http://www.w3.org/2000/svg" xmlns:xlink="http://www.w3.org/1999/xlink" x="0px" y="0px"
	 viewBox="0 0 75.6 75.6" style="enable-background:new 0 0 75.6 75.6;" xml:space="preserve">
<style type="text/css">
	.st0{fill:#DAE9F8;}
	.st1{fill:#BAD5F1;}
	.st2{fill:#FFFFFF;}
	.st3{fill:#215493;}
</style>
<title>icons</title>
<circle class="st0" cx="29.3" cy="29.2" r="23.8"/>
<path class="st1" d="M32.8,51.2c-13.6,0-24.7-11-24.7-24.7c0-7,3-13.7,8.2-18.3c-11.5,7.2-15.1,22.5-7.8,34s22.5,15.1,34,7.8
	c1.2-0.7,2.3-1.6,3.3-2.5C41.9,50,37.4,51.3,32.8,51.2z"/>
<path class="st2" d="M26.3,12.2c7.8-1.1,15.4,3.1,18.4,10.4c2.3,5.6,4.5,4.7,2.2-1.7C44,13.3,36.3,8.8,28.3,9.8
	C23.1,10.6,22.3,12.9,26.3,12.2z"/>
<path class="st3" d="M72.2,67.7L55.1,50.7c-0.8-0.8-2-0.9-2.9-0.3L48.8,47c4.3-4.7,6.9-10.9,6.9-17.8c0,0,0,0,0,0
	c0-14.6-11.8-26.4-26.4-26.4c0,0,0,0,0,0C14.7,2.8,2.8,14.6,2.8,29.2c0,14.6,11.8,26.4,26.4,26.5c6.9,0,13.1-2.6,17.8-6.9l3.4,3.4
	c-0.6,0.9-0.5,2.1,0.2,2.9l17.1,17.1c0.9,0.9,2.3,0.9,3.2,0l0.2-0.2c0,0,0,0,0,0l0.8-0.8c0,0,0,0,0,0l0.2-0.2
	C73,70.1,73,68.6,72.2,67.7z M5.5,29.2c0-13.1,10.6-23.8,23.8-23.8C42.4,5.5,53,16.1,53,29.2c0,0,0,0,0,0c0,6.3-2.4,12-6.4,16.2
	c-0.1,0-0.2,0.1-0.2,0.2l-0.8,0.8c-0.1,0.1-0.1,0.2-0.2,0.2c-4.2,4-9.9,6.4-16.2,6.4C16.1,53,5.5,42.4,5.5,29.2z"/>
</svg>
