<?xml version="1.0" encoding="utf-8"?>
<!-- Generator: Adobe Illustrator 21.1.0, SVG Export Plug-In . SVG Version: 6.00 Build 0)  -->
<svg version="1.1" id="Layer_1" xmlns="http://www.w3.org/2000/svg" xmlns:xlink="http://www.w3.org/1999/xlink" x="0px" y="0px"
	 viewBox="0 0 100.3 67.6" style="enable-background:new 0 0 100.3 67.6;" xml:space="preserve">
<style type="text/css">
	.st0{fill:#BAD5F1;}
	.st1{fill:#215493;}
	.st2{fill:#DAE9F8;}
	.st3{fill:#FFFFFF;}
</style>
<title>icons</title>
<path class="st0" d="M32.6,24.8c0,11.6,14,20.9,31.3,20.9c5.1,0,10.1-0.8,14.9-2.5l7.8,5c0.4,0.3,1.1,0.2,1.4-0.2
	c0.2-0.2,0.2-0.5,0.2-0.8l-1.7-7.9c5.4-3.7,8.7-8.9,8.7-14.5c0-11.6-14-21-31.3-21S32.6,13.2,32.6,24.8z"/>
<path class="st1" d="M87.2,49.4c-0.4,0-0.8-0.1-1.1-0.3l-7.3-4.8c-4.8,1.6-9.8,2.5-14.8,2.4c-17.8,0-32.3-9.8-32.3-22
	S46.1,2.8,63.9,2.8s32.3,9.9,32.3,22c0,5.6-3,10.9-8.6,14.9l1.6,7.2c0.3,1.1-0.4,2.2-1.5,2.4C87.5,49.4,87.3,49.4,87.2,49.4z
	 M78.8,42.2c0.2,0,0.4,0.1,0.5,0.2l7.8,5l-1.6-7.9c-0.1-0.4,0.1-0.8,0.4-1c5.3-3.7,8.2-8.6,8.2-13.6c0-11-13.6-20-30.3-20
	s-30.3,9-30.3,20s13.6,20,30.3,20c5,0,9.9-0.8,14.6-2.5C78.6,42.2,78.7,42.2,78.8,42.2L78.8,42.2z"/>
<path class="st2" d="M67.7,40.2c0,11.6-14,20.9-31.3,20.9c-5.1,0-10.1-0.8-14.9-2.6l-7.8,5c-0.4,0.3-1.1,0.2-1.4-0.2
	c-0.2-0.2-0.2-0.5-0.2-0.8l1.7-7.9c-5.4-3.8-8.7-8.9-8.7-14.5c0-11.6,14-20.9,31.3-20.9S67.7,28.6,67.7,40.2z"/>
<path class="st3" d="M33.2,23.7c17.3,0,31.3,9.4,31.3,20.9c0,2.5-0.6,4.9-1.8,7.1c3.2-3,5-7.1,5.1-11.5c0-11.6-14-20.9-31.3-20.9
	C22.9,19.3,11.4,25,7,33.1C12.6,27.4,22.2,23.7,33.2,23.7z"/>
<path class="st0" d="M40.8,55.6c-5.1,0-10.1-0.8-14.9-2.6l-7.6-3.9c-5.4-3.8-8.7-8.9-8.7-14.5c0-2.4,0.6-4.8,1.8-7
	c-3.9,3.5-6.2,7.8-6.2,12.5c0,5.6,3.3,10.7,8.7,14.5l-1.7,7.9c-0.2,0.5,0.1,1.1,0.7,1.2c0.3,0.1,0.6,0,0.9-0.2l7.8-5
	c4.8,1.7,9.8,2.6,14.9,2.6c13.6,0,25.2-5.8,29.5-14C60.2,52.3,51.1,55.6,40.8,55.6z"/>
<ellipse class="st1" cx="24.9" cy="40.2" rx="3.3" ry="3.3"/>
<ellipse class="st1" cx="35.9" cy="40.2" rx="3.3" ry="3.3"/>
<ellipse class="st1" cx="46.9" cy="40.2" rx="3.3" ry="3.3"/>
<path class="st1" d="M13.2,64.8c-0.4,0-0.8-0.1-1.1-0.3c-0.7-0.5-1-1.3-0.8-2.1l1.6-7.2c-5.6-4.1-8.6-9.3-8.6-14.9
	c0-12.1,14.5-21.9,32.3-21.9s32.3,9.9,32.3,21.9s-14.5,22-32.3,22c-5,0-10-0.8-14.8-2.5l-7.4,4.8C14,64.7,13.6,64.8,13.2,64.8z
	 M36.5,20.3c-16.7,0-30.3,9-30.3,19.9c0,5.1,2.9,9.9,8.3,13.7c0.3,0.2,0.5,0.6,0.4,1l-1.7,7.9l7.8-5c0.3-0.2,0.6-0.2,0.9-0.1
	c4.7,1.7,9.6,2.5,14.6,2.5c16.7,0,30.3-8.9,30.3-20S53.2,20.3,36.5,20.3z"/>
</svg>
