<?xml version="1.0" encoding="utf-8"?>
<!-- Generator: Adobe Illustrator 21.1.0, SVG Export Plug-In . SVG Version: 6.00 Build 0)  -->
<svg version="1.1" id="Layer_1" xmlns="http://www.w3.org/2000/svg" xmlns:xlink="http://www.w3.org/1999/xlink" x="0px" y="0px"
	 viewBox="0 0 468 463.5" style="enable-background:new 0 0 468 463.5;" xml:space="preserve">
<style type="text/css">
	.st0{fill:none;}
	.st1{opacity:0.3;fill:#DAE9F8;enable-background:new    ;}
	.st2{fill:#E9F0F7;}
	.st3{fill:#DAE9F8;}
	.st4{fill:#88B2E4;}
	.st5{fill:#BAD5F1;}
	.st6{fill:#8AAAD2;}
	.st7{fill:#3E91D6;}
	.st8{fill:#FFFFFF;}
	.st9{fill:#B7D3F0;}
	.st10{fill:#266EB5;}
	.st11{fill:#215493;}
	.st12{fill:#184380;}
	.st13{fill:#2061AA;}
	.st14{fill:#123570;}
	.st15{fill:#3584D1;}
	.st16{fill:#1B56A0;}
	.st17{fill:#FBFDFE;}
	.st18{opacity:0.6;fill:#266EB5;enable-background:new    ;}
	.st19{fill:#205393;}
	.st20{fill:#ECF1F5;}
	.st21{opacity:0.2;fill:none;stroke:#4D8AE2;stroke-miterlimit:10;enable-background:new    ;}
	.st22{fill:none;stroke:#215493;stroke-miterlimit:10;}
	.st23{fill:#7E8387;}
</style>
<title>person</title>
<circle class="st0" cx="238" cy="230.6" r="214"/>
<path class="st0" d="M452,248.8c0,0.3-0.1,0.7-0.1,1c-0.1,0.5-0.1,1-0.1,1.6c-0.1,0.6-0.1,1.3-0.2,1.9c0,0.2,0,0.4-0.1,0.6
	c-0.1,0.5-0.1,1-0.2,1.5c0,0.2,0,0.5-0.1,0.7c-0.1,0.9-0.2,1.8-0.3,2.6l0,0c0,0.3-0.1,0.7-0.1,1c-0.1,0.6-0.2,1.3-0.3,1.9
	c-0.3,1.9-0.6,3.8-0.9,5.6c-0.3,1.9-0.7,3.7-1,5.6c-0.2,0.9-0.4,1.8-0.6,2.8c-0.3,1.3-0.6,2.6-0.9,4c0,0.2-0.1,0.3-0.1,0.5
	s-0.1,0.4-0.1,0.6c-0.9,3.7-1.9,7.3-2.9,10.9c-2.7,9.2-6.1,18.3-10.1,27.1c-4,8.8-8.5,17.3-13.6,25.5c-0.6,1-1.2,1.9-1.8,2.9v0.1
	l0,0l0,0l0,0c-0.1,0.2-0.2,0.3-0.3,0.5c-0.4,0.6-0.8,1.3-1.3,1.9l0,0c-0.4,0.6-0.8,1.2-1.3,1.9c-0.5,0.7-1,1.4-1.4,2.1
	c-0.4,0.5-0.8,1.1-1.2,1.6l-5.2,6.9l-0.1,0.1c-0.1,0.1-0.1,0.2-0.2,0.2c-0.3,0.3-0.6,0.7-0.9,1.1c-0.1,0.1-0.2,0.3-0.3,0.4
	c0,0.1-0.1,0.1-0.2,0.2c-1.4,1.8-2.8,3.5-4.3,5.2l0,0l-0.2,0.2l0,0l0,0l0,0l0,0l-0.1,0.2c-0.8,0.9-1.6,1.8-2.4,2.7
	c-1,1.1-2,2.2-3,3.3l0,0l0,0c-0.5,0.5-1,1.1-1.5,1.6s-1,1.1-1.5,1.6c-0.2,0.2-0.4,0.5-0.7,0.7l-0.1,0.1l0,0l0,0
	c-0.1,0.1-0.2,0.2-0.2,0.2c-0.2,0.2-0.4,0.4-0.6,0.6l0,0c-0.1,0.1-0.2,0.2-0.4,0.4c-0.2,0.2-0.4,0.5-0.7,0.7l0,0
	c-0.2,0.2-0.5,0.5-0.8,0.7c-0.2,0.2-0.5,0.5-0.8,0.7c-0.1,0.1-0.1,0.1-0.2,0.2c-0.5,0.5-1.1,1-1.6,1.6c-0.2,0.2-0.4,0.4-0.5,0.5l0,0
	c-0.1,0.1-0.2,0.2-0.3,0.3l0,0c-0.5,0.4-0.9,0.9-1.4,1.3l0,0c-0.5,0.5-1.1,1-1.6,1.5c-0.4,0.4-0.8,0.8-1.2,1.1
	c-0.3,0.3-0.7,0.6-1.1,0.9l-0.1,0.1c-0.3,0.2-0.5,0.5-0.8,0.7l-0.1,0.1c-0.3,0.3-0.6,0.6-0.9,0.8l-0.1,0.1c-0.3,0.3-0.6,0.5-0.9,0.8
	c-0.2,0.2-0.5,0.4-0.7,0.6l0,0c-0.2,0.2-0.4,0.3-0.5,0.5c0,0,0,0-0.1,0c-0.5,0.4-1,0.8-1.5,1.2l-0.1,0.1c-0.2,0.1-0.3,0.3-0.5,0.4
	c-0.3,0.3-0.6,0.5-0.9,0.8c-0.4,0.4-0.8,0.7-1.2,1c-9.3,7.5-19.2,14.1-29.6,19.9c-3.1,1.7-6.2,3.3-9.3,4.9l0,0l0,0
	c-0.9,0.5-1.9,0.9-2.8,1.4c-0.2,0.1-0.3,0.2-0.5,0.3c-0.1,0.1-0.2,0.1-0.4,0.2l0,0l0,0l0,0c-0.6,0.3-1.2,0.5-1.8,0.8
	c-1.6,0.8-3.2,1.5-4.9,2.2c-0.9,0.4-1.9,0.8-2.9,1.2c-1,0.4-1.9,0.8-2.9,1.2c-1,0.4-2,0.8-2.9,1.2c-1.6,0.6-3.3,1.2-5,1.8
	c-0.2,0-0.3,0.1-0.5,0.2s-0.3,0.1-0.5,0.2c-0.7,0.2-1.3,0.5-2,0.7c-0.4,0.1-0.8,0.2-1.2,0.4c-0.3,0.1-0.6,0.2-0.9,0.3
	c-0.5,0.1-0.9,0.3-1.4,0.4c-0.2,0.1-0.4,0.1-0.6,0.2l0,0c-0.7,0.2-1.3,0.4-2,0.6c-1.3,0.4-2.7,0.8-4,1.2l0,0l-1.9,0.5
	c0,0-0.1,0-0.2,0c-0.7,0.2-1.5,0.4-2.2,0.6c-0.6,0.2-1.2,0.3-1.8,0.5l0,0c-0.3,0.1-0.5,0.1-0.8,0.2c-0.4,0.1-0.8,0.2-1.2,0.3
	c-0.6,0.1-1.2,0.3-1.8,0.4c0,0-0.1,0-0.2,0l0,0l0,0c-0.3,0.1-0.5,0.1-0.8,0.2c-0.6,0.1-1.1,0.2-1.7,0.4c-0.2,0.1-0.5,0.1-0.7,0.2
	c-0.3,0.1-0.6,0.1-0.8,0.2h-0.1h-0.1c-0.1,0-0.2,0-0.2,0c-0.4,0.1-0.8,0.2-1.1,0.2c-0.1,0-0.3,0-0.4,0.1c-0.1,0-0.3,0-0.4,0.1
	c-0.2,0-0.5,0.1-0.7,0.1h-0.2l-0.8,0.2c-0.2,0-0.4,0.1-0.6,0.1c-0.4,0.1-0.7,0.2-1.1,0.2l0,0c-0.1,0-0.1,0-0.2,0l0,0h-0.1l0,0
	c-0.5,0.1-1.1,0.2-1.7,0.3c-0.1,0-0.3,0-0.4,0.1c-0.1,0-0.1,0-0.2,0c-0.5,0.1-1,0.2-1.6,0.3c-0.1,0-0.2,0-0.3,0
	c-0.7,0.1-1.3,0.2-2,0.3c-0.2,0-0.3,0-0.5,0.1c-0.2,0-0.4,0.1-0.6,0.1c-0.4,0.1-0.7,0.1-1.1,0.2c-0.6,0.1-1.1,0.2-1.7,0.2
	c-0.8,0.1-1.6,0.2-2.5,0.3c-0.5,0.1-1,0.1-1.6,0.2c-0.2,0-0.3,0-0.5,0s-0.3,0-0.5,0.1c-0.2,0-0.3,0-0.5,0.1c-0.2,0-0.3,0-0.5,0
	c-0.1,0-0.2,0-0.3,0c-0.1,0-0.1,0-0.2,0c0,0,0,0-0.1,0s-0.2,0-0.3,0H259c-0.2,0-0.4,0.1-0.7,0.1c-0.5,0-0.9,0.1-1.4,0.1
	c-0.4,0-0.8,0.1-1.2,0.1c-0.2,0-0.4,0-0.7,0.1c-0.7,0.1-1.4,0.1-2.1,0.2c-1.4,0.1-2.8,0.2-4.2,0.2c-0.1,0-0.2,0-0.2,0
	c-1.5,0.1-2.9,0.1-4.4,0.2h-0.4c-1.5,0-3,0-4.4,0.1c-0.5,0-1.1,0-1.5,0c-3.6,0-7.3-0.1-10.9-0.3c-2.6-0.1-5.2-0.3-7.9-0.5
	c-0.9-0.1-1.9-0.2-2.8-0.3l0,0l0,0c0,0-0.1,0-0.2,0h-0.4h-0.5l0,0l0,0l0,0c0,0,0,0-0.1,0c-73.3-7.9-135.6-52.3-168-115.1
	c-0.3-0.6-0.7-1.3-1-2c-1-1.9-2-3.9-2.9-5.9s-1.8-4-2.7-6c-0.6-1.4-1.1-2.7-1.7-4.1c-0.3-0.7-0.6-1.5-0.9-2.2
	c-0.2-0.6-0.5-1.3-0.7-1.9c-0.2-0.7-0.5-1.3-0.8-2c-0.5-1.4-1-2.9-1.5-4.3c-0.2-0.7-0.5-1.4-0.7-2c-0.2-0.7-0.5-1.4-0.7-2.1
	c-0.7-2.1-1.3-4.2-2-6.4c-0.2-0.5-0.3-1.1-0.5-1.6c-0.3-0.9-0.5-1.8-0.7-2.7c-0.2-0.7-0.4-1.4-0.6-2.2c-0.2-0.8-0.4-1.6-0.6-2.5
	c-0.2-0.6-0.3-1.3-0.5-1.9l0,0c-0.1-0.4-0.2-0.7-0.2-1.1c0-0.2-0.1-0.4-0.1-0.6c-0.2-0.9-0.4-1.9-0.6-2.8c-0.1-0.3-0.1-0.7-0.2-1
	c-0.1-0.4-0.2-0.7-0.2-1.1c-0.6-3-1.1-6-1.6-9c-1.7-11-2.5-22-2.5-33.1c0-2.9,0.1-5.7,0.2-8.5c0-0.8,0.1-1.6,0.1-2.4
	c0.1-1.2,0.1-2.3,0.2-3.5c0-0.2,0-0.3,0-0.5v-0.1c0.1-1,0.1-2,0.2-2.9c0-0.2,0-0.4,0-0.6c0-0.4,0.1-0.9,0.1-1.3
	c0.1-1,0.2-2.1,0.3-3.1c0.3-2.7,0.6-5.3,1-8c0.2-1.1,0.3-2.2,0.5-3.3c0-0.1,0-0.3,0.1-0.4c0-0.2,0-0.3,0.1-0.5
	c0.2-1,0.3-1.9,0.5-2.9c0-0.1,0-0.3,0.1-0.4c0-0.1,0-0.3,0.1-0.5v-0.1c0.2-1.2,0.5-2.4,0.7-3.7c0.3-1.3,0.5-2.6,0.8-3.9
	c0-0.1,0-0.1,0-0.2c0.2-1.1,0.5-2.3,0.8-3.4c0.1-0.3,0.1-0.7,0.2-1c0.3-1.1,0.5-2.2,0.8-3.2c0.7-2.6,1.4-5.1,2.2-7.7
	c0.8-2.5,1.6-5.1,2.4-7.6c0.4-1.3,0.9-2.5,1.3-3.8c0.9-2.5,1.9-5,2.9-7.4c1-2.5,2-4.9,3.1-7.3c0.4-0.9,0.8-1.8,1.3-2.7
	c0.1-0.3,0.3-0.6,0.4-0.9c0.6-1.2,1.1-2.4,1.7-3.6c0.6-1.2,1.2-2.4,1.8-3.5s1.2-2.3,1.8-3.4c0.1-0.1,0.1-0.2,0.2-0.3
	c0.5-0.9,1-1.8,1.5-2.7c0.3-0.5,0.6-1,0.9-1.5c0.5-0.9,1-1.7,1.5-2.5c1.4-2.3,2.8-4.6,4.2-6.8c2.9-4.5,6-8.9,9.2-13.2v0.2l0,0
	c0.8-1,1.5-2,2.3-2.9l0,0l0,0c0.3-0.4,0.6-0.8,0.9-1.2c0.6-0.8,1.2-1.5,1.8-2.3c0.6-0.7,1.2-1.4,1.8-2.1c0.1-0.2,0.3-0.3,0.4-0.5
	c0.4-0.5,0.8-0.9,1.1-1.3c0.2-0.2,0.3-0.4,0.5-0.6c0.1-0.1,0.1-0.2,0.2-0.2c0.2-0.3,0.5-0.6,0.7-0.8c0.6-0.7,1.3-1.5,1.9-2.2l0,0
	c1-1.1,2.1-2.3,3.1-3.4l0,0c1-1.1,2.1-2.2,3.2-3.3l0,0c2.2-2.2,4.4-4.3,6.6-6.4l0.1-0.1c0.1,0,0.1-0.1,0.1-0.1l0,0
	c0.1,0,0.1-0.1,0.2-0.2c0.9-0.9,1.9-1.8,2.9-2.6c0.1-0.1,0.2-0.2,0.2-0.2c0.1-0.1,0.2-0.2,0.3-0.2c1-0.9,1.9-1.7,2.9-2.5
	c0.1-0.1,0.2-0.2,0.3-0.3c0.8-0.7,1.7-1.4,2.5-2.1c0.1-0.1,0.2-0.2,0.3-0.3c0.1-0.1,0.2-0.1,0.2-0.2c0.1-0.1,0.3-0.2,0.4-0.3
	c0.9-0.7,1.8-1.4,2.7-2.1c0,0,0,0,0.1-0.1c0.4-0.3,0.7-0.6,1.1-0.9l0.1-0.1c0.1-0.1,0.2-0.1,0.3-0.2c0.9-0.7,1.9-1.5,2.9-2.2
	c1.2-0.9,2.5-1.8,3.7-2.7l0,0c1.2-0.9,2.5-1.8,3.8-2.7s2.5-1.7,3.8-2.6c2.7-1.8,5.5-3.5,8.3-5.2c0.8-0.5,1.6-0.9,2.4-1.4l0,0
	c0.8-0.5,1.6-0.9,2.4-1.3l0,0c0.7-0.4,1.4-0.8,2.1-1.1c1.7-0.9,3.4-1.8,5.1-2.7c0,0,0.1,0,0.1-0.1c0.4-0.2,0.8-0.4,1.2-0.6
	c0.2-0.1,0.5-0.2,0.7-0.3c0.1,0,0.1-0.1,0.2-0.1c0.1-0.1,0.2-0.1,0.4-0.2c0.3-0.2,0.6-0.3,0.9-0.5c0.3-0.2,0.7-0.3,1-0.5
	c0.1-0.1,0.3-0.1,0.4-0.2c0,0,0.1,0,0.1-0.1l0,0c0.8-0.4,1.7-0.8,2.5-1.2c1.1-0.5,2.2-1,3.3-1.5c0.8-0.4,1.7-0.8,2.6-1.1
	c0.1,0,0.2-0.1,0.3-0.1c0.5-0.2,1-0.4,1.5-0.6c0.5-0.2,1-0.4,1.5-0.6c0.1,0,0.2-0.1,0.3-0.1c0.2-0.1,0.5-0.2,0.7-0.3
	c0.6-0.2,1.1-0.5,1.7-0.7c2.1-0.8,4.1-1.6,6.2-2.3c2.7-1,5.5-1.9,8.2-2.7c0.7-0.2,1.4-0.4,2.1-0.6l0,0c0.1,0,0.2-0.1,0.4-0.1
	c0.1,0,0.2-0.1,0.4-0.1c1.6-0.5,3.3-0.9,4.9-1.4l0,0c1.7-0.4,3.4-0.9,5.2-1.3c1.7-0.4,3.5-0.8,5.2-1.2l0,0c0.9-0.2,1.9-0.4,2.8-0.6
	s1.9-0.4,2.8-0.5l0,0c0.7-0.1,1.5-0.3,2.2-0.4c0.2,0,0.4-0.1,0.6-0.1c0.6-0.1,1.1-0.2,1.7-0.3c0.2,0,0.4-0.1,0.7-0.1
	c0.1,0,0.2,0,0.3,0s0.2,0,0.3,0s0.2,0,0.3,0c0.2,0,0.3-0.1,0.5-0.1c0.5-0.1,1-0.2,1.5-0.2c1.1-0.2,2.1-0.3,3.2-0.5h0.1
	c0.6-0.1,1.2-0.2,1.9-0.2c0.4,0,0.8-0.1,1.2-0.1c0.1,0,0.2,0,0.3,0c0.7-0.1,1.5-0.2,2.2-0.2h0.1c0.9-0.1,1.7-0.2,2.6-0.3
	c0.8-0.1,1.6-0.1,2.5-0.2c1.1-0.1,2.1-0.2,3.2-0.2c0.8-0.1,1.7-0.1,2.5-0.1c0.2,0,0.3,0,0.5,0c0.1,0,0.1,0,0.2,0
	c0.9,0,1.8-0.1,2.7-0.1c0.8,0,1.6-0.1,2.4-0.1c0.2,0,0.3,0,0.5,0c0.9,0,1.8-0.1,2.7-0.1h0.3c0.8,0,1.6,0,2.5,0h0.9
	c0.3,0,0.5,0,0.8,0c0.9,0,1.8,0,2.8,0c0.2,0,0.4,0,0.5,0c0.4,0,0.8,0,1.2,0c0.1,0,0.3,0,0.4,0c0.4,0,0.8,0,1.1,0
	c0.6,0,1.2,0,1.8,0.1c0.9,0,1.9,0.1,2.8,0.1c0.1,0,0.2,0,0.3,0h0.1c2,0.1,4,0.2,6.1,0.4l0,0c0,0,0,0,0.1,0h0.1h0.1
	c0.2,0,0.4,0,0.5,0c1,0.1,1.9,0.2,2.9,0.3c0.8,0.1,1.6,0.2,2.4,0.3l0,0c0.9,0.1,1.8,0.2,2.8,0.3l0,0c0.1,0,0.2,0,0.2,0
	c0.1,0,0.2,0,0.3,0c0.9,0.1,1.8,0.2,2.6,0.4h0.1c0.2,0,0.5,0.1,0.7,0.1c0.6,0.1,1.2,0.2,1.9,0.3c0.2,0,0.3,0,0.5,0.1l0,0
	c1,0.2,2,0.3,3,0.5l0,0c0,0,0,0,0.1,0c2,0.4,4,0.7,6.1,1.2l0,0c1,0.2,2,0.4,3,0.6s2,0.5,3,0.7c0.9,0.2,1.9,0.5,2.8,0.7
	c0.5,0.1,0.9,0.2,1.4,0.3c1.8,0.5,3.7,1,5.5,1.5c4.3,1.2,8.5,2.5,12.7,4c2.1,0.7,4.2,1.5,6.2,2.3c1,0.4,2.1,0.8,3.1,1.2
	c1,0.4,2,0.8,3.1,1.3c1,0.4,2,0.9,3,1.3c1,0.4,2,0.9,3,1.4c4,1.9,8,3.8,11.9,5.9c1.2,0.7,2.4,1.3,3.6,2c0.5,0.3,1.1,0.6,1.7,0.9
	c0,0,0,0,0.1,0s0.1,0.1,0.2,0.1c0.5,0.3,1,0.6,1.5,0.9c0.6,0.3,1.2,0.7,1.7,1c1.2,0.7,2.4,1.5,3.6,2.2c0.6,0.4,1.2,0.7,1.7,1.1
	c1.1,0.7,2.1,1.4,3.2,2.1c0.4,0.2,0.8,0.5,1.1,0.8c0.4,0.2,0.8,0.5,1.1,0.8c0.8,0.5,1.5,1,2.2,1.5c1,0.7,2,1.4,3,2.1
	c0.3,0.2,0.7,0.5,1,0.8c0.7,0.5,1.4,1.1,2.1,1.6c0.1,0.1,0.3,0.2,0.4,0.3c0.7,0.5,1.4,1.1,2.1,1.6c0.3,0.2,0.6,0.5,1,0.7
	c0.4,0.3,0.8,0.6,1.2,0.9c0.4,0.3,0.8,0.6,1.2,0.9c1.1,0.9,2.2,1.8,3.2,2.7c0.1,0.1,0.1,0.1,0.2,0.2c0.6,0.5,1.2,1.1,1.9,1.6
	c0.3,0.2,0.6,0.5,0.9,0.7c0.1,0.1,0.2,0.2,0.4,0.3c0.2,0.2,0.4,0.3,0.5,0.5c0.4,0.3,0.8,0.7,1.2,1c0.7,0.6,1.4,1.2,2,1.9
	c1.7,1.5,3.3,3.1,5,4.7c0.8,0.8,1.6,1.6,2.4,2.4c0.4,0.4,0.8,0.8,1.2,1.2c0.4,0.4,0.8,0.8,1.2,1.2c0.7,0.7,1.4,1.4,2,2.2
	c0.5,0.5,0.9,1,1.4,1.5c0.1,0.2,0.3,0.3,0.4,0.5c0.5,0.5,0.9,1,1.4,1.5c0.2,0.2,0.4,0.5,0.6,0.7c0,0,0,0.1,0.1,0.1
	c0.1,0.1,0.1,0.2,0.2,0.2c0.5,0.5,0.9,1,1.4,1.6c1.3,1.5,2.6,3.1,3.9,4.7c1.4,1.7,2.8,3.5,4.1,5.3l0.1,0.1c0.1,0.1,0.1,0.1,0.2,0.2
	s0.2,0.2,0.2,0.3c0.5,0.7,1.1,1.4,1.6,2.2c0,0,0,0,0.1,0.1c1.2,1.6,2.3,3.2,3.4,4.8c0.1,0.1,0.1,0.2,0.2,0.3c0.3,0.5,0.7,1,1,1.4
	c0.5,0.8,1,1.5,1.5,2.3c0.7,1,1.3,2,1.9,3c2.3,3.6,4.5,7.2,6.5,10.9s4.1,7.6,6,11.6c1.1,2.4,2.2,4.8,3.3,7.2c0.5,1.2,1,2.4,1.5,3.6
	c1.5,3.7,2.9,7.4,4.3,11.2v0.1c1.1,3.2,2.2,6.5,3.2,9.8c3.7,12.5,6.2,25.2,7.6,38.2c0.5,5,0.9,10.1,1.1,15.2
	c0.1,2.5,0.2,5.1,0.2,7.6C452.8,236.6,452.5,242.7,452,248.8z"/>
<path class="st1" d="M23.4,219.6c-1.4,0.7-2.8,1.4-4.3,2.2C20.5,221,22,220.3,23.4,219.6z"/>
<path class="st1" d="M452.8,230.5v0.4c0,1.2,0,2.5,0,3.7c0,1.1,0,2.1-0.1,3.2c0,0.4,0,0.8,0,1.2c-0.1,2-0.2,3.9-0.3,5.9
	c0,0.7-0.1,1.4-0.2,2.1v0.1c-0.1,0.9-0.1,1.7-0.2,2.6c-0.1,0.5-0.1,1-0.1,1.6c-0.1,0.6-0.1,1.3-0.2,1.9v0.1v0.1
	c-0.1,0.6-0.1,1.3-0.2,1.9c0,0.2,0,0.5-0.1,0.7c-0.1,0.9-0.2,1.8-0.3,2.6l0,0c0,0.3-0.1,0.7-0.1,1c-0.1,0.6-0.2,1.3-0.3,1.9
	c-0.3,1.9-0.6,3.8-0.9,5.6c-0.3,1.9-0.7,3.7-1,5.6c-0.2,0.9-0.4,1.8-0.6,2.8c-0.3,1.3-0.6,2.6-0.9,4c0,0.2-0.1,0.3-0.1,0.5
	s-0.1,0.4-0.1,0.6c-0.9,3.7-1.9,7.3-2.9,10.9c-2.7,9.2-6.1,18.3-10.1,27.1c-4,8.8-8.5,17.3-13.6,25.5c-0.6,1-1.2,1.9-1.8,2.9v0.1
	l0,0l0,0l0,0c-0.1,0.2-0.2,0.3-0.3,0.5c-0.4,0.6-0.8,1.3-1.3,1.9l0,0c-0.4,0.6-0.8,1.2-1.3,1.9c-0.5,0.7-1,1.4-1.4,2.1
	c-0.4,0.5-0.8,1.1-1.2,1.6c-1.7,2.3-3.4,4.7-5.2,6.9l-0.1,0.1c-0.1,0.1-0.1,0.2-0.2,0.2c-0.3,0.3-0.6,0.7-0.9,1.1
	c-0.1,0.1-0.2,0.3-0.3,0.4c-1.9,2.4-4.5,5.5-4.7,5.8l0,0c-0.2,0.2-0.4,0.5-0.6,0.7l0,0l0,0c-0.2,0.2-0.4,0.5-0.6,0.7l0,0l0,0
	c-0.2,0.2-0.4,0.5-0.6,0.7l0,0l0,0c-0.2,0.2-0.4,0.5-0.6,0.7l0,0l0,0c-1,1.1-2,2.2-2.9,3.3l0,0l0,0c0,0.1-0.1,0.1-0.1,0.2
	c-0.2,0.2-0.4,0.4-0.6,0.6c-0.2,0.3-0.5,0.5-0.8,0.8s-0.6,0.6-0.8,0.9c-0.2,0.2-0.4,0.5-0.7,0.7l0,0l0,0c0,0,0,0-0.1,0.1l-0.1,0.1
	c-0.2,0.2-0.3,0.4-0.5,0.5l-0.1,0.1l0,0l0,0c-0.1,0.1-0.2,0.2-0.3,0.4c-0.1,0.2-0.3,0.3-0.5,0.5l0,0c-0.1,0.1-0.2,0.2-0.4,0.4
	c-0.2,0.2-0.4,0.5-0.7,0.7l0,0c-0.2,0.2-0.5,0.5-0.8,0.7c-0.3,0.3-0.6,0.6-0.9,0.9c0,0,0,0-0.1,0.1c-0.3,0.3-0.5,0.5-0.8,0.8
	s-0.5,0.5-0.8,0.8c-0.2,0.2-0.4,0.4-0.5,0.5l0,0c-0.1,0.1-0.2,0.2-0.3,0.3l0,0c-0.1,0.1-0.2,0.2-0.4,0.3c-0.3,0.3-0.7,0.6-1,1l0,0
	l0,0c-0.9,0.9-1.9,1.7-2.8,2.6l0,0l0,0l0,0c-0.2,0.2-0.5,0.4-0.8,0.7c-0.1,0.1-0.2,0.2-0.3,0.3l-0.1,0.1c-0.3,0.2-0.5,0.5-0.8,0.7
	l-0.1,0.1c-0.3,0.3-0.6,0.6-0.9,0.8l-0.1,0.1c-0.3,0.3-0.6,0.5-0.9,0.8c-0.2,0.2-0.5,0.4-0.7,0.6l0,0l0,0c-0.2,0.2-0.4,0.3-0.5,0.5
	c0,0,0,0-0.1,0c-0.5,0.4-1,0.8-1.5,1.2l-0.1,0.1c-0.2,0.1-0.3,0.3-0.5,0.4c-0.3,0.3-0.6,0.5-0.9,0.8c-0.1,0.1-0.1,0.1-0.2,0.2
	c-0.2,0.1-0.3,0.2-0.5,0.4c-0.2,0.2-0.3,0.3-0.5,0.4l0,0l0,0l0,0c-0.1,0-0.1,0.1-0.2,0.2c-3.2,2.6-6.5,5.1-9.9,7.4
	c-0.3,0.2-0.6,0.4-0.9,0.7c-0.5,0.4-1.1,0.8-1.7,1.2c-0.2,0.1-0.3,0.2-0.5,0.3l-0.9,0.6c-0.2,0.2-0.5,0.3-0.7,0.5c0,0-0.1,0-0.1,0.1
	c-0.6,0.4-1.1,0.8-1.7,1.1l-0.8,0.5l-3.2,2.1c-2.9,1.8-5.9,3.6-9,5.3c-3,1.7-6.1,3.3-9.2,4.8H334c-0.6,0.3-1.2,0.6-1.9,0.9
	c-0.3,0.1-0.6,0.3-0.9,0.4c-0.2,0.1-0.4,0.2-0.6,0.3c-0.1,0.1-0.3,0.1-0.4,0.2l0,0l0,0c-0.6,0.3-1.2,0.5-1.8,0.8
	c-0.6,0.3-1.2,0.5-1.8,0.8l-0.2,0.1c-1,0.4-1.9,0.8-2.9,1.3c-0.9,0.4-1.9,0.8-2.9,1.2c-1,0.4-1.9,0.8-2.9,1.2
	c-1,0.4-1.9,0.8-2.9,1.1c-0.8,0.3-1.5,0.6-2.3,0.9c-0.5,0.2-0.9,0.3-1.4,0.5c-0.1,0-0.2,0-0.2,0.1c-0.3,0.1-0.7,0.2-1,0.4
	c-0.2,0-0.3,0.1-0.5,0.2s-0.3,0.1-0.5,0.2c-0.7,0.2-1.3,0.5-2,0.7c-0.2,0.1-0.4,0.1-0.6,0.2c-0.5,0.2-0.9,0.3-1.4,0.5
	c-0.5,0.1-0.9,0.3-1.4,0.4c-0.2,0.1-0.4,0.1-0.6,0.2l0,0l0,0c-0.7,0.2-1.3,0.4-2,0.6s-1.3,0.4-2,0.6s-1.3,0.4-2,0.6l0,0l0,0
	l-1.9,0.5c0,0-0.1,0-0.2,0c-0.2,0-0.3,0.1-0.5,0.1c-0.5,0.1-1.1,0.3-1.7,0.4c-0.6,0.2-1.2,0.3-1.8,0.5l0,0l0,0
	c-0.3,0.1-0.5,0.1-0.8,0.2c-0.4,0.1-0.8,0.2-1.2,0.3c-0.6,0.1-1.2,0.3-1.8,0.4c0,0-0.1,0-0.2,0l0,0l0,0c-0.3,0.1-0.5,0.1-0.8,0.2
	c-0.6,0.1-1.1,0.2-1.7,0.4c-0.2,0.1-0.5,0.1-0.7,0.2c-0.3,0.1-0.6,0.1-0.8,0.2h-0.1h-0.1c-0.1,0-0.2,0-0.2,0
	c-0.4,0.1-0.8,0.2-1.1,0.2c-0.1,0-0.3,0-0.4,0.1l0,0c-0.1,0-0.2,0-0.4,0.1c-0.2,0-0.5,0.1-0.7,0.1h-0.2c-0.8,0.2-1.6,0.3-2.5,0.5
	l0,0c-0.1,0-0.1,0-0.2,0l0,0h-0.1c-0.5,0.1-1.1,0.2-1.7,0.3c-0.1,0-0.3,0-0.4,0.1c-0.1,0-0.1,0-0.2,0c-0.5,0.1-1,0.2-1.6,0.3
	c-0.1,0-0.2,0-0.3,0c-0.4,0.1-0.8,0.1-1.2,0.2c-0.2,0-0.5,0.1-0.7,0.1s-0.3,0-0.5,0.1c-0.2,0-0.4,0.1-0.6,0.1
	c-0.4,0.1-0.7,0.1-1.1,0.2c-0.6,0.1-1.1,0.2-1.7,0.2c-0.8,0.1-1.6,0.2-2.5,0.3c-0.5,0.1-1,0.1-1.6,0.2c-0.4,0-0.7,0.1-1,0.1
	c-0.2,0-0.3,0-0.5,0.1c-0.2,0-0.3,0-0.5,0s-0.4,0-0.6,0c-0.1,0-0.2,0-0.3,0c-0.2,0-0.5,0.1-0.7,0.1c-0.5,0-0.9,0.1-1.4,0.1
	c-0.4,0-0.8,0.1-1.2,0.1c-0.2,0-0.4,0-0.7,0.1c-0.7,0.1-1.4,0.1-2.1,0.2c-1.4,0.1-2.8,0.2-4.2,0.2c-0.1,0-0.2,0-0.2,0
	c-1.5,0.1-2.9,0.1-4.4,0.2l0,0l0,0l0,0c0.2,0.1,0.1,0.1-0.1,0l0,0l0,0l0,0h-0.3c-1.5,0-3,0-4.4,0.1c-0.5,0-1.1,0-1.5,0
	c-3.6,0-7.3-0.1-10.9-0.3c-2.6-0.1-5.2-0.3-7.9-0.5c-0.9-0.1-1.9-0.2-2.8-0.3l0,0l0,0c0,0-0.1,0-0.2,0h-0.4h-0.5l0,0l0,0l0,0
	c0,0,0,0-0.1,0l0,0v-0.1v-0.1c-1.3-0.1-2.6-0.3-3.9-0.4c-1.2-0.1-2.4-0.3-3.5-0.5s-2.3-0.3-3.5-0.5c-0.5-0.1-1-0.2-1.5-0.2
	c-0.1,0-0.2,0-0.3,0c-0.8-0.1-1.5-0.3-2.3-0.4s-1.5-0.3-2.3-0.4c-0.7-0.1-1.4-0.3-2.1-0.4c-0.8-0.2-1.6-0.3-2.4-0.5
	c-0.5-0.1-1.1-0.2-1.6-0.3c-1.2-0.3-2.5-0.5-3.7-0.9c-0.8-0.2-1.6-0.4-2.4-0.6c-0.4-0.1-0.9-0.2-1.3-0.3c-1.7-0.5-3.5-0.9-5.2-1.4
	c-0.7-0.2-1.4-0.4-2.1-0.6c-0.8-0.2-1.5-0.4-2.3-0.7c-0.7-0.2-1.4-0.4-2-0.6c-0.9-0.3-1.9-0.6-2.8-0.9c-0.7-0.2-1.3-0.4-2-0.7
	c-0.4-0.1-0.8-0.3-1.1-0.4c-0.4-0.1-0.7-0.3-1.1-0.4c-0.8-0.3-1.5-0.5-2.2-0.8c-0.8-0.3-1.5-0.6-2.3-0.9c-0.7-0.3-1.4-0.6-2.1-0.8
	c-0.5-0.2-0.9-0.4-1.3-0.5c-0.3-0.1-0.6-0.2-0.8-0.3c-0.6-0.2-1.2-0.5-1.8-0.7c-3-1.3-6-2.6-8.9-4c-0.8-0.4-1.5-0.7-2.3-1.1
	c-0.2-0.1-0.5-0.2-0.7-0.3c-0.5-0.2-1-0.5-1.5-0.7c-0.3-0.2-0.6-0.3-0.9-0.5c-0.4-0.2-0.7-0.4-1.1-0.5c-0.8-0.4-1.7-0.9-2.5-1.3
	c-0.4-0.2-0.8-0.4-1.1-0.6c-0.7-0.4-1.5-0.8-2.2-1.2c-0.6-0.3-1.1-0.6-1.7-1c-1.7-0.9-3.4-1.9-5-2.9c-0.8-0.5-1.6-1-2.4-1.5
	c-1.6-1-3.2-2-4.7-3c-0.8-0.5-1.5-1-2.3-1.5c-2.9-2-5.8-4-8.6-6.1c-0.5-0.4-1.1-0.8-1.6-1.2c-0.8-0.6-1.6-1.2-2.4-1.9
	c-1.2-0.9-2.3-1.9-3.5-2.8c-0.7-0.5-1.4-1.1-2-1.7c-2.2-1.9-4.4-3.8-6.5-5.8c-0.9-0.9-1.9-1.7-2.8-2.6c-0.5-0.4-0.9-0.9-1.4-1.3
	c0,0,0,0-0.1,0c-0.4-0.4-0.9-0.8-1.3-1.3c-2.3-2.3-4.6-4.6-6.8-7c-0.7-0.8-1.4-1.5-2.1-2.3c-2-2.3-4.1-4.6-6-6.9
	c-0.1-0.2-0.3-0.3-0.4-0.5c-0.4-0.5-0.8-1-1.2-1.5c-0.4-0.4-0.7-0.9-1.1-1.3l-0.4-0.5c-0.2-0.3-0.4-0.6-0.7-0.9
	c-0.2-0.3-0.4-0.5-0.6-0.8c-0.5-0.6-0.9-1.2-1.4-1.8c-0.2-0.3-0.5-0.7-0.7-1c-0.7-0.9-1.3-1.8-2-2.6c-0.8-1-1.5-2.1-2.2-3.1
	c-1.1-1.5-2.1-3.1-3.1-4.6c-0.2-0.3-0.3-0.5-0.5-0.8c0-0.1-0.1-0.1-0.1-0.2c-0.2-0.3-0.5-0.7-0.7-1c-0.5-0.7-0.9-1.4-1.3-2.1
	c-0.3-0.4-0.5-0.9-0.8-1.3c-0.6-1-1.2-1.9-1.8-2.9l-0.1-0.1c-0.3-0.6-0.7-1.2-1-1.7c-0.4-0.6-0.7-1.3-1.1-1.9l0,0
	c-0.4-0.6-0.7-1.2-1.1-1.9c-0.3-0.6-0.7-1.2-1-1.8v-0.1c-1.8-3.4-3.6-6.8-5.2-10.3c-0.2-0.5-0.5-1-0.7-1.4c-0.3-0.6-0.5-1.1-0.8-1.7
	c-0.7-1.4-1.3-2.9-1.9-4.3c-0.3-0.7-0.6-1.3-0.8-2c-1.5-3.6-3-7.3-4.3-11.1c-0.1-0.4-0.3-0.9-0.5-1.3c-0.1-0.3-0.2-0.7-0.3-1
	c-0.1-0.4-0.3-0.7-0.4-1.1c-1.3-3.8-2.4-7.6-3.5-11.4c-0.1-0.5-0.3-0.9-0.4-1.4c-0.2-0.7-0.4-1.4-0.6-2.2c-0.2-0.8-0.4-1.6-0.6-2.5
	c-0.1-0.3-0.1-0.5-0.2-0.8c-0.1-0.4-0.2-0.7-0.3-1.1l0,0c-0.1-0.4-0.2-0.7-0.2-1.1c0-0.2-0.1-0.4-0.1-0.6s-0.1-0.4-0.1-0.5
	c-0.2-1.1-0.5-2.2-0.7-3.3c-0.1-0.4-0.2-0.7-0.2-1.1c-0.6-3-1.1-6-1.6-9c-1.7-11-2.5-22-2.5-33.1c0-2.9,0.1-5.7,0.2-8.5
	c0-0.8,0.1-1.6,0.1-2.4c0.1-1.2,0.1-2.3,0.2-3.5c0-0.2,0-0.3,0-0.5v-0.1c0.1-1,0.1-2,0.2-2.9c0-0.2,0-0.4,0-0.6
	c0-0.4,0.1-0.9,0.1-1.3c0.1-1,0.2-2.1,0.3-3.1c0.3-2.7,0.6-5.3,1-8c0.2-1.1,0.3-2.2,0.5-3.3c0-0.1,0-0.3,0.1-0.4
	c0-0.2,0-0.3,0.1-0.5c0.2-1,0.3-1.9,0.5-2.9c0-0.1,0-0.3,0.1-0.4c0-0.1,0-0.3,0.1-0.5v-0.1c0.2-1.2,0.5-2.4,0.7-3.7
	c0.2-1.1,0.4-2.1,0.7-3.2c0-0.2,0.1-0.4,0.2-0.7c0-0.1,0-0.1,0-0.2c0.1-0.6,0.3-1.2,0.4-1.8c0.1-0.5,0.2-1,0.4-1.6
	c0.1-0.3,0.1-0.7,0.2-1c0.3-1.1,0.5-2.2,0.8-3.2c0.7-2.6,1.4-5.1,2.2-7.7c0.8-2.5,1.6-5.1,2.4-7.6c0.4-1.3,0.9-2.5,1.3-3.8
	c0.9-2.5,1.9-5,2.9-7.4c1-2.5,2-4.9,3.1-7.3c0.4-0.9,0.8-1.8,1.3-2.7c0.1-0.3,0.3-0.6,0.4-0.9c0.2-0.4,0.3-0.7,0.5-1.1
	c0.2-0.5,0.5-1,0.7-1.5c0.2-0.3,0.3-0.7,0.5-1c0.1-0.2,0.2-0.4,0.3-0.6c0.5-1,1-1.9,1.5-2.9c0.6-1.1,1.2-2.3,1.8-3.4
	c0.1-0.1,0.1-0.2,0.2-0.3c0.5-0.9,1-1.8,1.5-2.7c0.3-0.5,0.6-1,0.9-1.5c0.5-0.9,1-1.7,1.5-2.5c1.4-2.3,2.8-4.6,4.2-6.8
	c2.9-4.5,6-8.9,9.2-13.2V101c0.2-1.4,0.5-2.7,0.7-4.1c-0.3,1.3-0.5,2.7-0.7,4.1c0.8-1,1.5-2,2.3-2.9l0,0l0,0
	c0.3-0.4,0.6-0.8,0.9-1.2c0.6-0.8,1.2-1.5,1.8-2.3c0.6-0.7,1.2-1.4,1.8-2.1c0.1-0.2,0.3-0.3,0.4-0.5c0.4-0.5,0.8-0.9,1.1-1.3
	c0.2-0.2,0.3-0.4,0.5-0.6c0.1-0.1,0.1-0.2,0.2-0.2c0.2-0.3,0.5-0.6,0.7-0.8c0.6-0.7,1.3-1.5,1.9-2.2l0,0c1-1.1,2.1-2.3,3.1-3.4l0,0
	c1-1.1,2.1-2.2,3.2-3.3l0,0c2.2-2.2,4.4-4.3,6.6-6.4l0.1-0.1c0.1,0,0.1-0.1,0.1-0.1l0,0c0.1,0,0.1-0.1,0.2-0.2
	c0.9-0.9,1.9-1.8,2.9-2.6c0.1-0.1,0.2-0.2,0.2-0.2c0.1-0.1,0.2-0.2,0.3-0.2c1-0.9,1.9-1.7,2.9-2.5c0.1-0.1,0.2-0.2,0.3-0.3
	c0.8-0.7,1.7-1.4,2.5-2.1c0.1-0.1,0.2-0.2,0.3-0.3c0.1-0.1,0.2-0.1,0.2-0.2c0.1-0.1,0.3-0.2,0.4-0.3c0.9-0.7,1.8-1.4,2.7-2.1
	c0,0,0,0,0.1-0.1c0.4-0.3,0.7-0.6,1.1-0.9l0.1-0.1c0.1-0.1,0.2-0.1,0.3-0.2c0.9-0.7,1.9-1.5,2.9-2.2c1.2-0.9,2.5-1.8,3.7-2.7l0,0
	c1.2-0.9,2.5-1.8,3.8-2.7s2.5-1.7,3.8-2.6c2.7-1.8,5.5-3.5,8.3-5.2H128l0,0h1.3c0.8-0.5,1.6-0.9,2.4-1.4l0,0
	c0.4-0.2,0.8-0.5,1.2-0.7s0.8-0.4,1.2-0.7l0,0c0.7-0.4,1.4-0.8,2.1-1.1c0.1-0.1,0.2-0.1,0.3-0.2c1.6-0.8,3.2-1.7,4.8-2.5
	c0,0,0.1,0,0.1-0.1c0.6-0.3,1.3-0.6,1.9-0.9c0.1,0,0.1-0.1,0.2-0.1c0.1-0.1,0.2-0.1,0.4-0.2c0.3-0.2,0.6-0.3,0.9-0.5
	c0.3-0.2,0.7-0.3,1-0.5c0.1,0,0.2-0.1,0.3-0.2l0,0c0,0,0.1,0,0.1-0.1l0,0c0.8-0.4,1.7-0.8,2.5-1.2c1.1-0.5,2.2-1,3.3-1.5
	c0.8-0.4,1.7-0.8,2.6-1.1c0.1,0,0.2-0.1,0.3-0.1c0.5-0.2,1-0.4,1.5-0.6c0.5-0.2,1-0.4,1.5-0.6c0.1,0,0.2-0.1,0.3-0.1
	c0.2-0.1,0.5-0.2,0.7-0.3c0.6-0.2,1.1-0.5,1.7-0.7c0.5-0.2,1.1-0.4,1.7-0.7l0,0c0.8-0.3,1.7-0.6,2.5-0.9c0.1,0,0.2-0.1,0.3-0.1
	s0.1,0,0.1,0c0.5-0.2,1-0.4,1.6-0.6c0.2-0.1,0.3-0.1,0.5-0.2c2.5-0.9,5.1-1.8,7.7-2.5c0.7-0.2,1.4-0.4,2.1-0.6l0,0
	c0.1,0,0.2-0.1,0.4-0.1c0.1,0,0.2-0.1,0.4-0.1c0.6-0.2,1.2-0.4,1.9-0.5c0.1,0,0.3-0.1,0.4-0.1c0.9-0.2,1.7-0.5,2.6-0.7l0,0
	c0.9-0.2,1.8-0.5,2.7-0.7l0,0c0.8-0.2,1.6-0.4,2.4-0.6c1.7-0.4,3.5-0.8,5.2-1.2l0,0c0.9-0.2,1.9-0.4,2.8-0.6s1.9-0.4,2.8-0.5l0,0
	c0.7-0.1,1.5-0.3,2.2-0.4c0.2,0,0.4-0.1,0.6-0.1c0.8-0.1,1.5-0.3,2.3-0.4c0.1,0,0.2,0,0.3,0s0.2,0,0.3,0s0.2,0,0.3,0
	c0.2,0,0.3-0.1,0.5-0.1c1.6-0.3,3.2-0.5,4.7-0.7h0.1c0.6-0.1,1.2-0.2,1.9-0.2c0.2,0,0.4,0,0.6-0.1c0.2,0,0.4,0,0.6-0.1
	c0.1,0,0.2,0,0.3,0c0.7-0.1,1.5-0.2,2.2-0.2h0.1c0.9-0.1,1.7-0.2,2.6-0.3c0.8-0.1,1.6-0.1,2.5-0.2c0.2,0,0.5,0,0.7-0.1
	c0.8-0.1,1.7-0.1,2.5-0.2s1.7-0.1,2.5-0.1c0.2,0,0.3,0,0.5,0c0.1,0,0.1,0,0.2,0c0.9,0,1.8-0.1,2.7-0.1c0.8,0,1.6-0.1,2.4-0.1
	c0.2,0,0.3,0,0.5,0c0.1,0,0.2,0,0.2,0c0.8,0,1.7,0,2.5,0h0.3c0.8,0,1.6,0,2.5,0h0.9c0.3,0,0.5,0,0.8,0c0.9,0,1.8,0,2.8,0
	c0.2,0,0.4,0,0.5,0c0.4,0,0.8,0,1.1,0h0.1c0.1,0,0.3,0,0.4,0c0.4,0,0.8,0,1.1,0c0.6,0,1.2,0,1.8,0.1c1,0,2,0.1,3.1,0.2h0.1
	c2,0.1,4,0.2,6.1,0.4l0,0c0,0,0,0,0.1,0h0.1h0.1c0.2,0,0.4,0,0.5,0c1,0.1,1.9,0.2,2.9,0.3c0.7,0.1,1.5,0.2,2.2,0.2
	c0.1,0,0.1,0,0.2,0l0,0c0.9,0.1,1.8,0.2,2.8,0.3l0,0c0.1,0,0.2,0,0.2,0c0.1,0,0.2,0,0.3,0c0.9,0.1,1.8,0.2,2.6,0.4h0.1
	c0.2,0,0.5,0.1,0.7,0.1c0.3,0,0.5,0.1,0.8,0.1s0.7,0.1,1,0.2c0.2,0,0.3,0,0.5,0.1l0,0c1,0.2,2,0.3,3,0.5l0,0c0,0,0,0,0.1,0
	c1,0.2,2,0.4,3,0.5c1,0.2,2,0.4,3,0.6l0,0c0.7,0.1,1.3,0.3,1.9,0.4c0.4,0.1,0.7,0.2,1.1,0.2c1,0.2,2,0.5,3,0.7
	c0.9,0.2,1.9,0.5,2.8,0.7c0.5,0.1,0.9,0.2,1.4,0.3c0.2,0.1,0.5,0.1,0.7,0.2c0.2,0,0.3,0.1,0.5,0.1c0.1,0,0.2,0.1,0.3,0.1
	c0.5,0.1,1,0.3,1.4,0.4c0.1,0,0.1,0,0.2,0c0.8,0.2,1.6,0.5,2.4,0.7c4.3,1.2,8.5,2.5,12.7,4c2.1,0.7,4.2,1.5,6.2,2.3
	c1,0.4,2.1,0.8,3.1,1.2c0.8,0.3,1.6,0.7,2.4,1c0.2,0.1,0.4,0.2,0.7,0.3c0.4,0.2,0.8,0.3,1.2,0.5c0.6,0.3,1.2,0.5,1.8,0.8
	c1,0.4,2,0.9,3,1.4c4,1.9,8,3.8,11.9,5.9c1.2,0.7,2.4,1.3,3.6,2c0.5,0.3,1.1,0.6,1.7,0.9c0,0,0,0,0.1,0s0.1,0.1,0.2,0.1
	c0.5,0.3,1,0.6,1.5,0.9c0.6,0.3,1.2,0.7,1.7,1c1.2,0.7,2.4,1.5,3.6,2.2c0.6,0.4,1.2,0.7,1.7,1.1c1.1,0.7,2.1,1.4,3.2,2.1
	c0.4,0.2,0.8,0.5,1.1,0.8c0.4,0.2,0.8,0.5,1.1,0.8c0.8,0.5,1.5,1,2.2,1.5c1,0.7,2,1.4,3,2.1c0.3,0.2,0.7,0.5,1,0.8
	c0.7,0.5,1.4,1.1,2.1,1.6c0.1,0.1,0.3,0.2,0.4,0.3c0.7,0.5,1.4,1.1,2.1,1.6c0.3,0.2,0.6,0.5,1,0.7c0.4,0.3,0.8,0.6,1.2,0.9
	c0.4,0.3,0.8,0.6,1.2,0.9c1.1,0.9,2.2,1.8,3.2,2.7c0.1,0.1,0.1,0.1,0.2,0.2c0.6,0.5,1.2,1.1,1.9,1.6c0.3,0.2,0.5,0.5,0.8,0.7
	c0,0,0,0,0.1,0c0.1,0.1,0.2,0.2,0.4,0.3c0.2,0.2,0.4,0.3,0.5,0.5c0.4,0.3,0.8,0.7,1.2,1c0.7,0.6,1.4,1.2,2,1.9
	c1.7,1.5,3.3,3.1,5,4.7c0.8,0.8,1.6,1.6,2.4,2.4c0.4,0.4,0.8,0.8,1.2,1.2c0.4,0.4,0.8,0.8,1.2,1.2c0.7,0.7,1.4,1.4,2,2.2
	c0.5,0.5,0.9,1,1.4,1.5c0.1,0.2,0.3,0.3,0.4,0.5c0.5,0.5,0.9,1,1.4,1.5c0.2,0.2,0.4,0.5,0.6,0.7c0,0,0,0.1,0.1,0.1
	c0.1,0.1,0.1,0.2,0.2,0.2c0.5,0.5,0.9,1,1.4,1.6c1.3,1.5,2.6,3.1,3.9,4.7c1.4,1.7,2.8,3.5,4.1,5.3l0.1,0.1c0.1,0.1,0.1,0.1,0.2,0.2
	s0.2,0.2,0.2,0.3c0.5,0.7,1.1,1.4,1.6,2.2c0,0,0,0,0.1,0.1c1.2,1.6,2.3,3.2,3.4,4.8c0.1,0.1,0.1,0.2,0.2,0.3c0.3,0.5,0.7,1,1,1.4
	c0.5,0.8,1,1.5,1.5,2.3c0.7,1,1.3,2,1.9,3c2.3,3.6,4.5,7.2,6.5,10.9c2,3.7,4.1,7.6,6,11.6c1.1,2.4,2.2,4.8,3.3,7.2
	c0.5,1.2,1,2.4,1.5,3.6c1.5,3.7,2.9,7.4,4.3,11.2v0.1c1.1,3.2,2.2,6.5,3.2,9.8c3.7,12.5,6.2,25.2,7.6,38.2c0.5,5,0.9,10.1,1.1,15.2
	C452.7,225.4,452.8,227.9,452.8,230.5z"/>
<path class="st2" d="M23.4,219.6c-1.4,0.7-2.8,1.4-4.3,2.2C20.5,221,22,220.3,23.4,219.6z"/>
<path class="st2" d="M66.7,100.3L66.7,100.3c0-0.1,0-0.2,0-0.2V100.3C66.8,100.2,66.7,100.2,66.7,100.3z"/>
<path class="st2" d="M452.8,230.5v0.4c0,1.2,0,2.5,0,3.7c0,1.1,0,2.1-0.1,3.2c0,0.4,0,0.8,0,1.2c-0.1,2-0.2,3.9-0.3,5.9
	c0,0.7-0.1,1.4-0.2,2.1v0.1c-0.1,0.9-0.1,1.7-0.2,2.6c-0.1,0.5-0.1,1-0.1,1.6c-0.1,0.6-0.1,1.3-0.2,1.9v0.1v0.1c0,0.1,0,0.3,0,0.4
	c-0.1,0.5-0.1,1-0.2,1.5c0,0.2,0,0.5-0.1,0.7c-0.1,0.9-0.2,1.8-0.3,2.6l0,0c0,0.3-0.1,0.7-0.1,1c-0.1,0.6-0.2,1.3-0.3,1.9
	c-0.3,1.9-0.6,3.8-0.9,5.6c-0.3,1.9-0.7,3.7-1,5.6c-0.2,0.9-0.4,1.8-0.6,2.8c-0.3,1.3-0.6,2.6-0.9,4c0,0.2-0.1,0.3-0.1,0.5
	s-0.1,0.4-0.1,0.6c-0.9,3.7-1.9,7.3-2.9,10.9c-2.7,9.2-6.1,18.3-10.1,27.1c-4,8.8-8.5,17.3-13.6,25.5c-0.6,1-1.2,1.9-1.8,2.9v0.1
	l0,0l0,0l0,0c-0.1,0.2-0.2,0.3-0.3,0.5c-0.4,0.6-0.8,1.3-1.3,1.9l0,0c-0.4,0.6-0.8,1.2-1.3,1.9c-0.5,0.7-1,1.4-1.4,2.1
	c-0.4,0.5-0.8,1.1-1.2,1.6L408,362l-0.1,0.1c-0.1,0.1-0.1,0.2-0.2,0.2c-0.3,0.3-0.6,0.7-0.9,1.1c-0.1,0.1-0.2,0.3-0.3,0.4
	c0,0.1-0.1,0.1-0.2,0.2c-1.4,1.8-2.8,3.5-4.3,5.2l0,0l-0.2,0.2l0,0l0,0l0,0l0,0c-0.2,0.2-0.4,0.5-0.6,0.7l0,0l0,0
	c-0.2,0.2-0.4,0.5-0.6,0.7l0,0l0,0c-0.2,0.2-0.4,0.5-0.6,0.7l0,0l0,0c-0.2,0.2-0.4,0.5-0.6,0.7l0,0l0,0c-1,1.1-2,2.2-2.9,3.3l0,0
	l0,0c0,0.1-0.1,0.1-0.1,0.2c-0.2,0.2-0.4,0.4-0.6,0.6c-0.2,0.3-0.5,0.5-0.8,0.8s-0.6,0.6-0.8,0.9c-0.2,0.2-0.4,0.5-0.7,0.7l0,0l0,0
	c0,0,0,0-0.1,0.1l-0.1,0.1c-0.2,0.2-0.3,0.4-0.5,0.5l-0.1,0.1l0,0c-0.1,0.1-0.3,0.3-0.4,0.4c-0.1,0.2-0.3,0.3-0.5,0.5l0,0
	c-0.1,0.1-0.2,0.2-0.4,0.4c-0.2,0.2-0.4,0.5-0.7,0.7l0,0c-0.2,0.2-0.5,0.5-0.8,0.7c-0.3,0.3-0.6,0.6-0.9,0.9c0,0,0,0-0.1,0.1
	c-0.3,0.3-0.5,0.5-0.8,0.8s-0.5,0.5-0.8,0.8c-0.2,0.2-0.4,0.4-0.5,0.5l0,0c-0.1,0.1-0.2,0.2-0.3,0.3l0,0c-0.1,0.1-0.2,0.2-0.4,0.3
	c-0.3,0.3-0.7,0.6-1,1l0,0l0,0c-0.9,0.9-1.9,1.7-2.8,2.6l0,0l0,0l0,0c-0.2,0.2-0.5,0.4-0.8,0.7c-0.1,0.1-0.2,0.2-0.3,0.3l-0.1,0.1
	c-0.3,0.2-0.5,0.5-0.8,0.7l-0.1,0.1c-0.3,0.3-0.6,0.6-0.9,0.8l-0.1,0.1c-0.3,0.3-0.6,0.5-0.9,0.8c-0.2,0.2-0.5,0.4-0.7,0.6l0,0l0,0
	c-0.2,0.2-0.4,0.3-0.5,0.5c0,0,0,0-0.1,0c-0.5,0.4-1,0.8-1.5,1.2l-0.1,0.1c-0.2,0.1-0.3,0.3-0.5,0.4c-0.3,0.3-0.6,0.5-0.9,0.8
	c-0.1,0.1-0.1,0.1-0.2,0.2c-0.2,0.1-0.3,0.2-0.5,0.4c-0.2,0.2-0.3,0.3-0.5,0.4l0,0l0,0l0,0c-0.1,0-0.1,0.1-0.2,0.2l-1,0.8l-5.6,4.2
	l-2.4,1.8l-0.9,0.7c-0.3,0.2-0.6,0.4-0.9,0.7c-0.5,0.4-1.1,0.8-1.7,1.2c-0.2,0.1-0.3,0.2-0.5,0.3l-0.9,0.6c-0.2,0.2-0.5,0.3-0.7,0.5
	c0,0-0.1,0-0.1,0.1c-0.6,0.4-1.1,0.8-1.7,1.1l-0.8,0.5l-3.2,2.1l-0.6,0.4l-1,0.6l-15.1,8.4l-1,0.6l-0.4,0.2H334
	c-0.6,0.3-1.2,0.6-1.9,0.9c-0.3,0.1-0.6,0.3-0.9,0.4c-0.2,0.1-0.4,0.2-0.6,0.3c-0.1,0.1-0.3,0.1-0.4,0.2l0,0l0,0
	c-0.6,0.3-1.2,0.5-1.8,0.8c-0.6,0.3-1.2,0.5-1.8,0.8l-0.2,0.1l-1.2,0.5l-1.5,0.6l-6.5,2.7l-1.5,0.6l-0.9,0.4
	c-0.8,0.3-1.5,0.6-2.3,0.9c-0.5,0.2-0.9,0.3-1.4,0.5c-0.1,0-0.2,0-0.2,0.1c-0.3,0.1-0.7,0.2-1,0.4c-0.2,0-0.3,0.1-0.5,0.2
	s-0.3,0.1-0.5,0.2c-0.7,0.2-1.3,0.5-2,0.7c-0.2,0.1-0.4,0.1-0.6,0.2c-0.5,0.2-0.9,0.3-1.4,0.5c-0.5,0.1-0.9,0.3-1.4,0.4
	c-0.2,0.1-0.4,0.1-0.6,0.2l0,0l0,0c-0.7,0.2-1.3,0.4-2,0.6s-1.3,0.4-2,0.6s-1.3,0.4-2,0.6l0,0l0,0l-1.9,0.5c0,0-0.1,0-0.2,0
	c-0.2,0-0.3,0.1-0.5,0.1c-0.5,0.1-1.1,0.3-1.7,0.4c-0.6,0.2-1.2,0.3-1.8,0.5l0,0l0,0c-0.3,0.1-0.5,0.1-0.8,0.2
	c-0.4,0.1-0.8,0.2-1.2,0.3c-0.6,0.1-1.2,0.3-1.8,0.4c-0.1,0-0.1,0-0.2,0l0,0c-0.3,0.1-0.5,0.1-0.8,0.2c-0.6,0.1-1.1,0.2-1.7,0.4
	c-0.2,0.1-0.5,0.1-0.7,0.2c-0.3,0.1-0.6,0.1-0.8,0.2h-0.1h-0.1c-0.1,0-0.2,0-0.2,0c-0.4,0.1-0.8,0.2-1.1,0.2c-0.1,0-0.3,0-0.4,0.1
	l0,0c-0.1,0-0.2,0-0.4,0.1c-0.2,0-0.5,0.1-0.7,0.1h-0.2l-0.8,0.2c-0.2,0-0.4,0.1-0.6,0.1c-0.4,0.1-0.7,0.2-1.1,0.2l0,0
	c-0.1,0-0.1,0-0.2,0l0,0h-0.1l0,0c-0.5,0.1-1.1,0.2-1.7,0.3c-0.1,0-0.3,0-0.4,0.1c-0.1,0-0.1,0-0.2,0c-0.5,0.1-1,0.2-1.6,0.3
	c-0.1,0-0.2,0-0.3,0c-0.4,0.1-0.8,0.1-1.2,0.2c-0.2,0-0.5,0.1-0.7,0.1s-0.3,0-0.5,0.1c-0.2,0-0.4,0.1-0.6,0.1
	c-0.4,0.1-0.7,0.1-1.1,0.2c-0.6,0.1-1.1,0.2-1.7,0.2c-0.8,0.1-1.6,0.2-2.5,0.3c-0.7,0.1-1.4,0.2-2.1,0.2c-0.2,0-0.3,0-0.5,0.1
	c-0.2,0-0.3,0-0.5,0.1c-0.2,0-0.3,0-0.5,0c-0.1,0-0.2,0-0.3,0c-0.1,0-0.1,0-0.2,0c0,0,0,0-0.1,0s-0.2,0-0.3,0H259
	c-0.2,0-0.4,0.1-0.7,0.1c-0.5,0-0.9,0.1-1.4,0.1c-0.4,0-0.8,0.1-1.2,0.1c-0.2,0-0.4,0-0.7,0.1c-0.7,0.1-1.4,0.1-2.1,0.2
	c-1.4,0.1-2.8,0.2-4.2,0.2c-0.1,0-0.2,0-0.2,0c-1.4,0.1-3.7,0.3-4.3,0.2l0,0c-0.1,0-0.1,0-0.1,0l0,0l0,0c-0.1,0-0.1,0-0.2,0
	c-0.3,0-1.2,0-2.2,0c-0.2,0-0.4,0-0.6,0c-0.6,0-1.2,0-1.8,0c-0.5,0-1.1,0-1.5,0c-3.6,0-7.3-0.1-10.9-0.3c-2.6-0.1-5.2-0.3-7.9-0.5
	c-0.9-0.1-1.9-0.2-2.8-0.3l0,0l0,0c0,0-0.1,0-0.2,0h-0.4h-0.5l0,0l0,0l0,0c0,0,0,0-0.1,0l0,0v-0.1v-0.1c-1.3-0.1-2.6-0.3-3.9-0.4
	c-1.2-0.1-2.4-0.3-3.5-0.5s-2.3-0.3-3.5-0.5c-0.5-0.1-1-0.2-1.5-0.2c-0.1,0-0.2,0-0.3,0c-0.8-0.1-1.5-0.3-2.3-0.4s-1.5-0.3-2.3-0.4
	c-0.7-0.1-1.4-0.3-2.1-0.4c-0.8-0.2-1.6-0.3-2.4-0.5c-0.5-0.1-1.1-0.2-1.6-0.3c-1.2-0.3-2.5-0.5-3.7-0.9c-0.8-0.2-1.6-0.4-2.4-0.6
	c-0.4-0.1-0.9-0.2-1.3-0.3c-1.7-0.5-3.5-0.9-5.2-1.4c-0.7-0.2-1.4-0.4-2.1-0.6c-0.8-0.2-1.5-0.4-2.3-0.7c-0.7-0.2-1.4-0.4-2-0.6
	c-0.9-0.3-1.9-0.6-2.8-0.9c-0.7-0.2-1.3-0.4-2-0.7c-0.4-0.1-0.8-0.3-1.1-0.4c-0.4-0.1-0.7-0.3-1.1-0.4c-0.8-0.3-1.5-0.5-2.2-0.8
	c-0.8-0.3-1.5-0.6-2.3-0.9c-0.7-0.3-1.4-0.6-2.1-0.8c-0.5-0.2-0.9-0.4-1.3-0.5c-0.3-0.1-0.6-0.2-0.8-0.3c-0.6-0.2-1.2-0.5-1.8-0.7
	c-3-1.3-6-2.6-8.9-4c-0.8-0.4-1.5-0.7-2.3-1.1c-0.2-0.1-0.5-0.2-0.7-0.3c-0.5-0.2-1-0.5-1.5-0.7c-0.3-0.2-0.6-0.3-0.9-0.5
	c-0.4-0.2-0.7-0.4-1.1-0.5c-0.8-0.4-1.7-0.9-2.5-1.3c-0.4-0.2-0.8-0.4-1.1-0.6c-0.7-0.4-1.5-0.8-2.2-1.2c-0.6-0.3-1.1-0.6-1.7-1
	c-1.7-0.9-3.4-1.9-5-2.9c-0.8-0.5-1.6-1-2.4-1.5c-1.6-1-3.2-2-4.7-3c-0.8-0.5-1.5-1-2.3-1.5c-2.9-2-5.8-4-8.6-6.1
	c-0.5-0.4-1.1-0.8-1.6-1.2c-0.8-0.6-1.6-1.2-2.4-1.9c-1.2-0.9-2.3-1.9-3.5-2.8c-0.7-0.5-1.4-1.1-2-1.7c-2.2-1.9-4.4-3.8-6.5-5.8
	c-0.9-0.9-1.9-1.7-2.8-2.6c-0.4-0.4-0.9-0.8-1.3-1.2c0,0,0,0,0-0.1c0,0,0,0-0.1,0c-0.4-0.4-0.9-0.8-1.3-1.3c-2.3-2.3-4.6-4.6-6.8-7
	c-0.7-0.8-1.4-1.5-2.1-2.3c-2-2.3-4.1-4.6-6-6.9c-0.1-0.2-0.3-0.3-0.4-0.5c-0.4-0.5-0.8-1-1.2-1.5c-0.4-0.4-0.7-0.9-1.1-1.3
	l-0.4-0.5c-0.2-0.3-0.4-0.6-0.7-0.9c-0.2-0.3-0.4-0.5-0.6-0.8c-0.5-0.6-0.9-1.2-1.4-1.8c-0.2-0.3-0.5-0.7-0.7-1
	c-0.7-0.9-1.3-1.8-2-2.6c-0.8-1-1.5-2.1-2.2-3.1c-1.1-1.5-2.1-3.1-3.1-4.6c-0.2-0.3-0.3-0.5-0.5-0.8c0-0.1-0.1-0.1-0.1-0.2
	c-0.2-0.3-0.5-0.7-0.7-1c-0.5-0.7-0.9-1.4-1.3-2.1c-0.3-0.4-0.5-0.9-0.8-1.3c-0.6-1-1.2-1.9-1.8-2.9l-0.1-0.1
	c-0.3-0.6-0.7-1.2-1-1.7c-0.4-0.6-0.7-1.3-1.1-1.9l0,0c-0.4-0.6-0.7-1.2-1.1-1.9c-0.3-0.6-0.7-1.2-1-1.8V333
	c-1.8-3.4-3.6-6.8-5.2-10.3c-0.2-0.5-0.5-1-0.7-1.4c-0.3-0.6-0.5-1.1-0.8-1.7c-0.7-1.4-1.3-2.9-1.9-4.3c-0.3-0.7-0.6-1.3-0.8-2
	c-1.5-3.6-3-7.3-4.3-11.1c-0.1-0.4-0.3-0.9-0.5-1.3c-0.1-0.3-0.2-0.7-0.3-1c-0.1-0.4-0.3-0.7-0.4-1.1c-1.3-3.8-2.4-7.6-3.5-11.4
	c-0.1-0.5-0.3-0.9-0.4-1.4c-0.2-0.7-0.4-1.4-0.6-2.2c-0.2-0.8-0.4-1.6-0.6-2.5c-0.1-0.3-0.1-0.5-0.2-0.8c-0.1-0.4-0.2-0.7-0.3-1.1
	l0,0c-0.1-0.4-0.2-0.7-0.2-1.1c0-0.2-0.1-0.4-0.1-0.6s-0.1-0.4-0.1-0.5c-0.2-1.1-0.5-2.2-0.7-3.3c-0.1-0.4-0.2-0.7-0.2-1.1
	c-0.6-3-1.1-6-1.6-9c-1.7-11-2.5-22-2.5-33.1c0-2.9,0.1-5.7,0.2-8.5c0-0.8,0.1-1.6,0.1-2.4c0.1-1.2,0.1-2.3,0.2-3.5
	c0-0.2,0-0.3,0-0.5v-0.1c0.1-1,0.1-2,0.2-2.9c0-0.2,0-0.4,0-0.6c0-0.4,0.1-0.9,0.1-1.3c0.1-1,0.2-2.1,0.3-3.1c0.3-2.7,0.6-5.3,1-8
	c0.2-1.1,0.3-2.2,0.5-3.3c0-0.1,0-0.3,0.1-0.4c0-0.2,0-0.3,0.1-0.5c0.2-1,0.3-1.9,0.5-2.9c0-0.1,0-0.3,0.1-0.4c0-0.1,0-0.3,0.1-0.5
	v-0.1c0.2-1.2,0.5-2.4,0.7-3.7c0.2-1.1,0.4-2.1,0.7-3.2c0-0.2,0.1-0.4,0.2-0.7c0-0.1,0-0.1,0-0.2c0.1-0.6,0.3-1.2,0.4-1.8
	c0.1-0.5,0.2-1,0.4-1.6c0.1-0.3,0.1-0.7,0.2-1c0.3-1.1,0.5-2.2,0.8-3.2c0.7-2.6,1.4-5.1,2.2-7.7c0.8-2.5,1.6-5.1,2.4-7.6
	c0.4-1.3,0.9-2.5,1.3-3.8c0.9-2.5,1.9-5,2.9-7.4c1-2.5,2-4.9,3.1-7.3c0.4-0.9,0.8-1.8,1.3-2.7c0.1-0.3,0.3-0.6,0.4-0.9
	c0.2-0.4,0.3-0.7,0.5-1.1c0.2-0.5,0.5-1,0.7-1.5c0.2-0.3,0.3-0.7,0.5-1c0.1-0.2,0.2-0.4,0.3-0.6c0.5-1,1-1.9,1.5-2.9
	c0.6-1.1,1.2-2.3,1.8-3.4c0.1-0.1,0.1-0.2,0.2-0.3c0.5-0.9,1-1.8,1.5-2.7c0.3-0.5,0.6-1,0.9-1.5c0.5-0.9,1-1.7,1.5-2.5
	c1.4-2.3,2.8-4.6,4.2-6.8c2.9-4.5,6-8.9,9.2-13.2V101l0,0c0.8-1,1.5-2,2.3-2.9l0,0l0,0c0.3-0.4,0.6-0.8,0.9-1.2
	c0.6-0.8,1.2-1.5,1.8-2.3c0.6-0.7,1.2-1.4,1.8-2.1c0.1-0.2,0.3-0.3,0.4-0.5c0.4-0.5,0.8-0.9,1.1-1.3c0.2-0.2,0.3-0.4,0.5-0.6
	c0.1-0.1,0.1-0.2,0.2-0.2c0.2-0.3,0.5-0.6,0.7-0.8c0.6-0.7,1.3-1.5,1.9-2.2l0,0c1-1.1,2.1-2.3,3.1-3.4l0,0c1-1.1,2.1-2.2,3.2-3.3
	l0,0c2.2-2.2,4.4-4.3,6.6-6.4l0.1-0.1c0.1,0,0.1-0.1,0.1-0.1l0,0c0.1,0,0.1-0.1,0.2-0.2c0.9-0.9,1.9-1.8,2.9-2.6
	c0.1-0.1,0.2-0.2,0.2-0.2c0.1-0.1,0.2-0.2,0.3-0.2c1-0.9,1.9-1.7,2.9-2.5c0.1-0.1,0.2-0.2,0.3-0.3c0.8-0.7,1.7-1.4,2.5-2.1
	c0.1-0.1,0.2-0.2,0.3-0.3c0.1-0.1,0.2-0.1,0.2-0.2c0.1-0.1,0.3-0.2,0.4-0.3c0.9-0.7,1.8-1.4,2.7-2.1c0,0,0,0,0.1-0.1
	c0.4-0.3,0.7-0.6,1.1-0.9l0.1-0.1c0.1-0.1,0.2-0.1,0.3-0.2c0.9-0.7,1.9-1.5,2.9-2.2c1.2-0.9,2.5-1.8,3.7-2.7l0,0
	c1.2-0.9,2.5-1.8,3.8-2.7s2.5-1.7,3.8-2.6c2.7-1.8,5.5-3.5,8.3-5.2h-1.3l0,0h1.3c0.8-0.5,1.6-0.9,2.4-1.4l0,0
	c0.4-0.2,0.8-0.5,1.2-0.7s0.8-0.4,1.2-0.7l0,0c0.7-0.4,1.4-0.8,2.1-1.1c0.1-0.1,0.2-0.1,0.3-0.2c1.6-0.8,3.2-1.7,4.8-2.5
	c0,0,0.1,0,0.1-0.1c0.4-0.2,0.8-0.4,1.2-0.6c0.2-0.1,0.5-0.2,0.7-0.3c0.1,0,0.1-0.1,0.2-0.1c0.1-0.1,0.2-0.1,0.4-0.2
	c0.3-0.2,0.6-0.3,0.9-0.5c0.3-0.2,0.7-0.3,1-0.5c0.1,0,0.2-0.1,0.3-0.2l0,0c0,0,0.1,0,0.1-0.1l0,0c0.8-0.4,1.7-0.8,2.5-1.2
	c1.1-0.5,2.2-1,3.3-1.5c0.8-0.4,1.7-0.8,2.6-1.1c0.1,0,0.2-0.1,0.3-0.1c0.5-0.2,1-0.4,1.5-0.6c0.5-0.2,1-0.4,1.5-0.6
	c0.1,0,0.2-0.1,0.3-0.1c0.2-0.1,0.5-0.2,0.7-0.3c0.6-0.2,1.1-0.5,1.7-0.7c0.5-0.2,1.1-0.4,1.7-0.7l0,0c0.8-0.3,1.7-0.6,2.5-0.9
	c0.1,0,0.2-0.1,0.3-0.1s0.1,0,0.1,0c0.5-0.2,1-0.4,1.6-0.6c0.2-0.1,0.3-0.1,0.5-0.2c2.5-0.9,5.1-1.8,7.7-2.5
	c0.7-0.2,1.4-0.4,2.1-0.6l0,0c0.1,0,0.2-0.1,0.4-0.1c0.1,0,0.2-0.1,0.4-0.1c0.6-0.2,1.2-0.4,1.9-0.5c0.1,0,0.3-0.1,0.4-0.1
	c0.9-0.2,1.7-0.5,2.6-0.7l0,0c0.9-0.2,1.8-0.5,2.7-0.7l0,0c0.8-0.2,1.6-0.4,2.4-0.6c1.7-0.4,3.5-0.8,5.2-1.2l0,0
	c0.9-0.2,1.9-0.4,2.8-0.6s1.9-0.4,2.8-0.5l0,0c0.7-0.1,1.5-0.3,2.2-0.4c0.2,0,0.4-0.1,0.6-0.1c0.6-0.1,1.1-0.2,1.7-0.3
	c0.2,0,0.4-0.1,0.7-0.1c0.1,0,0.2,0,0.3,0s0.2,0,0.3,0s0.2,0,0.3,0c0.2,0,0.3-0.1,0.5-0.1c0.5-0.1,1-0.2,1.5-0.2
	c0.8-0.1,1.6-0.2,2.4-0.3c0.3,0,0.5-0.1,0.8-0.1h0.1c0.6-0.1,1.2-0.2,1.9-0.2c0.2,0,0.4,0,0.6-0.1c0.2,0,0.4,0,0.6-0.1l1.9-0.2
	c0.2,0,0.4,0,0.6-0.1h0.1c0.9-0.1,1.7-0.2,2.6-0.3c0.8-0.1,1.6-0.1,2.5-0.2c0.2,0,0.5,0,0.7-0.1c0.8-0.1,1.7-0.1,2.5-0.2
	s1.7-0.1,2.5-0.1c0.2,0,0.3,0,0.5,0c0.1,0,0.1,0,0.2,0c0.9,0,1.8-0.1,2.7-0.1c0.8,0,1.6-0.1,2.4-0.1c0.2,0,0.3,0,0.5,0
	c0.1,0,0.2,0,0.2,0c0.8,0,1.7,0,2.5,0h0.3c0.7,0,1.5,0,2.2,0c0.1,0,0.1,0,0.2,0h0.9c0.3,0,0.5,0,0.8,0c0.9,0,1.8,0,2.8,0
	c0.2,0,0.4,0,0.5,0c0.4,0,0.8,0,1.1,0h0.1c0.1,0,0.3,0,0.4,0c0.4,0,0.8,0,1.1,0c1.5,0,3.1,0.1,4.6,0.2c0.1,0,0.2,0,0.3,0h0.1
	c1.9,0.1,3.9,0.3,5.9,0.4c0.1,0,0.1,0,0.2,0l0,0c0,0,0,0,0.1,0h0.1h0.1c0.2,0,0.4,0,0.5,0c1,0.1,1.9,0.2,2.9,0.3
	c0.7,0.1,1.5,0.2,2.2,0.2c0.1,0,0.1,0,0.2,0c0.9,0.1,1.8,0.2,2.8,0.3l0,0c0.1,0,0.2,0,0.2,0c0.1,0,0.2,0,0.3,0
	c0.9,0.1,1.8,0.2,2.6,0.4h0.1c0.2,0,0.5,0.1,0.7,0.1c0.3,0,0.5,0.1,0.8,0.1s0.7,0.1,1,0.2c0.2,0,0.3,0,0.5,0.1l0,0
	c1,0.2,2,0.3,3,0.5l0,0c0,0,0,0,0.1,0c1,0.2,2,0.4,3,0.5c1,0.2,2,0.4,3,0.6l0,0c0.7,0.1,1.3,0.3,1.9,0.4c0.4,0.1,0.7,0.2,1.1,0.2
	c1,0.2,2,0.5,3,0.7c0.9,0.2,1.9,0.5,2.8,0.7c0.5,0.1,0.9,0.2,1.4,0.3c0.2,0.1,0.5,0.1,0.7,0.2c0.2,0,0.3,0.1,0.5,0.1
	c0.1,0,0.2,0.1,0.3,0.1c0.5,0.1,1,0.3,1.4,0.4c0.1,0,0.1,0,0.2,0c0.8,0.2,1.6,0.5,2.4,0.7c4.3,1.2,8.5,2.5,12.7,4
	c2.1,0.7,4.2,1.5,6.2,2.3c1,0.4,2.1,0.8,3.1,1.2c0.8,0.3,1.6,0.7,2.4,1c0.2,0.1,0.4,0.2,0.7,0.3c0.4,0.2,0.8,0.3,1.2,0.5
	c0.6,0.3,1.2,0.5,1.8,0.8c1,0.4,2,0.9,3,1.4c4,1.9,8,3.8,11.9,5.9c1.2,0.7,2.4,1.3,3.6,2c0.5,0.3,1.1,0.6,1.7,0.9c0,0,0,0,0.1,0
	s0.1,0.1,0.2,0.1c0.5,0.3,1,0.6,1.5,0.9c0.6,0.3,1.2,0.7,1.7,1c1.2,0.7,2.4,1.5,3.6,2.2c0.6,0.4,1.2,0.7,1.7,1.1
	c1.1,0.7,2.1,1.4,3.2,2.1c0.4,0.2,0.8,0.5,1.1,0.8c0.4,0.2,0.8,0.5,1.1,0.8c0.8,0.5,1.5,1,2.2,1.5c1,0.7,2,1.4,3,2.1
	c0.3,0.2,0.7,0.5,1,0.8c0.7,0.5,1.4,1.1,2.1,1.6c0.1,0.1,0.3,0.2,0.4,0.3c0.7,0.5,1.4,1.1,2.1,1.6c0.3,0.2,0.6,0.5,1,0.7
	c0.4,0.3,0.8,0.6,1.2,0.9c0.4,0.3,0.8,0.6,1.2,0.9c1.1,0.9,2.2,1.8,3.2,2.7c0.1,0.1,0.1,0.1,0.2,0.2c0.6,0.5,1.2,1.1,1.9,1.6
	c0.3,0.2,0.5,0.5,0.8,0.7c0,0,0,0,0.1,0c0.1,0.1,0.2,0.2,0.4,0.3c0.2,0.2,0.4,0.3,0.5,0.5c0.4,0.3,0.8,0.7,1.2,1
	c0.7,0.6,1.4,1.2,2,1.9c1.7,1.5,3.3,3.1,5,4.7c0.8,0.8,1.6,1.6,2.4,2.4c0.4,0.4,0.8,0.8,1.2,1.2c0.4,0.4,0.8,0.8,1.2,1.2
	c0.7,0.7,1.4,1.4,2,2.2c0.5,0.5,0.9,1,1.4,1.5c0.1,0.2,0.3,0.3,0.4,0.5c0.5,0.5,0.9,1,1.4,1.5c0.2,0.2,0.4,0.5,0.6,0.7
	c0,0,0,0.1,0.1,0.1c0.1,0.1,0.1,0.2,0.2,0.2c0.5,0.5,0.9,1,1.4,1.6c1.3,1.5,2.6,3.1,3.9,4.7c1.4,1.7,2.8,3.5,4.1,5.3l0.1,0.1
	c0.1,0.1,0.1,0.1,0.2,0.2s0.2,0.2,0.2,0.3c0.5,0.7,1.1,1.4,1.6,2.2c0,0,0,0,0.1,0.1c1.2,1.6,2.3,3.2,3.4,4.8
	c0.1,0.1,0.1,0.2,0.2,0.3c0.3,0.5,0.7,1,1,1.4c0.5,0.8,1,1.5,1.5,2.3c0.7,1,1.3,2,1.9,3c2.3,3.6,4.5,7.2,6.5,10.9s4.1,7.6,6,11.6
	c1.1,2.4,2.2,4.8,3.3,7.2c0.5,1.2,1,2.4,1.5,3.6c1.5,3.7,2.9,7.4,4.3,11.2v0.1c1.1,3.2,2.2,6.5,3.2,9.8c3.7,12.5,6.2,25.2,7.6,38.2
	c0.5,5,0.9,10.1,1.1,15.2C452.7,225.4,452.8,227.9,452.8,230.5z"/>
<path class="st3" d="M237.8,440.2c1.6,1.3,3.3,2.7,5,4h-0.2l-25.4-3.6l0,0c0.3-1.5,0.5-2.9,0.7-4.2c0.1-0.4,0.1-0.9,0.2-1.3
	c0-0.3,0.1-0.5,0.1-0.8s0.1-0.5,0.1-0.8c0-0.1,0-0.2,0-0.2l0,0v-0.1l0,0l0.1-0.4c0-0.1,0-0.1,0-0.2s-0.1-0.2,0-0.4s0-0.3,0.1-0.6
	c0-0.3,0.1-0.6,0.1-0.8c0.1-0.5,0.1-1.1,0.2-1.5c0-0.2,0.1-0.5,0.1-0.7c0-0.1,0-0.2,0.1-0.3c0-0.1,0-0.2,0-0.3
	c0.1-0.3,0.1-0.5,0.2-0.8l0.1-0.3c0.2-0.4,0.3-0.6,0.6-0.6l0,0c0.1,0,0.1,0,0.2,0.1c0.1,0,0.2,0.1,0.3,0.1
	C222.4,427.4,229.6,433.6,237.8,440.2L237.8,440.2z"/>
<path class="st3" d="M255.8,444.5c0.5,0,1.1-0.1,1.6-0.1c-0.6,0.1-1.3,0.1-1.9,0.2C255.6,444.6,255.7,444.5,255.8,444.5z"/>
<path class="st3" d="M268.8,443.1c1-0.1,1.9-0.3,2.9-0.4c-0.7,0.1-1.5,0.3-2.2,0.4C269.2,443,269,443,268.8,443.1z"/>
<path class="st3" d="M267.7,443.2c0.4-0.1,0.7-0.1,1.1-0.2c-2.4,0.4-4.9,0.7-7.3,0.9C263.5,443.8,265.6,443.5,267.7,443.2z"/>
<path class="st3" d="M418.5,347.2c-0.1,0.2-0.2,0.3-0.3,0.5c-3.3,5.1-6.9,10.1-10.6,14.9c-1.8,2.4-5.9,7.3-5.9,7.3
	c-0.8,1-1.7,1.9-2.5,2.9c-2,2.2-4,4.4-6,6.5c-3.6,3.8-7.3,7.4-11.2,10.8c-3.1,2.8-6.3,5.5-9.6,8.2c-17.6,14.1-37.2,25.3-58,33.2
	c-13.7,5.2-28,9-42.6,11.3c14.6-2.3,28.8-6.1,42.5-11.3c0.8-0.3,1.7-0.6,2.5-1c2.2-0.8,4.3-1.7,6.5-2.7c4-1.7,7.9-3.5,11.7-5.5
	c5.1-2.6,10.2-5.4,15.1-8.4c5.3-3.2,10.5-6.7,15.5-10.4c2.1-1.6,4.2-3.2,6.2-4.8c0.2-0.1,0.3-0.2,0.4-0.3c3.3-2.6,6.5-5.3,9.6-8.2
	c-0.2-0.1-0.3-0.2-0.5-0.4c-8.3-6.1-24.2-2.6-24.2-2.6s-16.4,8.2-21,8.2s-16.6-0.7-33-6.8c-9.4-3.5-19-15-27.3-26.5
	c-6.2-8.5-11.6-17.2-15.7-22.7c-2.2-3.1-4.2-6.3-6-9.7l119,12.7l8.5,0.9l2.4,0.2l23.5,2.5l10.9,1.2L418.5,347.2z"/>
<path class="st4" d="M418.4,347.2c-0.1,0.2-0.2,0.3-0.3,0.5l0,0c-3.3,5.1-6.9,10.1-10.6,14.9c-1.8,2.4-5.9,7.3-5.9,7.3
	c-0.8,1-1.7,1.9-2.5,2.9l-23.4-2.7l-39.6-4.6c-2.3-0.3-3.9-2.3-3.6-4.6c0.1-1.1,0.7-2.1,1.6-2.8l0.1-0.1c0.3-0.2,0.7-0.4,1.1-0.5
	l7.1-2.4l34.9-11.8l12.8,1.2l20.6,2L418.4,347.2z"/>
<path class="st5" d="M202.3,139.2c-3.8,8.2-1.7,13.7-3.1,27.3s-9.6,29.4-12.3,38.9s-2.1,13-13,15.7c-14.5-10.3-13.1-23-11.5-44.7
	c1.3-17,14-29,17.6-48.9c8.2-6.2,0.7,12.3,2.7,21.2s8.2,6.1,8.5-10.9c0.3-14,9.5-17.9,11-32.7C204,128.2,206.1,131,202.3,139.2z"/>
<path class="st6" d="M174,221.1l-11.2,2.8l0,0c-2.4-6.2-6.6-11.6-12-15.5c-4.5-3.2-13.3-5.9-20.6-11.7c-7.5-5.9-17.2-9.5-26.2-11.7
	c-5.4-1.3-10.8-2.2-16.3-2.8l0,0l-0.6-0.1c-2.2-0.2-4-0.4-5.5-0.4l0,0l0.1-0.1l4.7,0.1h0.1c3.7,0.1,8.4,0.2,13.4,0.4
	c12.2,0.4,26.3,1.1,33.9,2.1c15.2,2.1,20.4-2.7,17-2.8s-8.1-10.9-2-9.5s6.8,1.4,10.9-5.5s4.8-10.2,8.9-15.7s3.4-17.1,11.6-23.2
	c-3.6,19.9-16.3,31.9-17.6,48.9C160.8,198.1,159.5,210.8,174,221.1z"/>
<path class="st7" d="M420.2,344.1c-0.6,1-1.2,1.9-1.8,2.9l-0.1,0.1c-0.1,0.2-0.2,0.3-0.3,0.5c-3.3,5.1-6.9,10.1-10.6,14.9l0,0
	c-1.8,2.4-5.9,7.2-5.9,7.2l-3.4-0.4l-60.3-7c-0.1,0-0.2,0-0.3,0h-0.2c-0.1,0-0.2,0-0.2-0.1c-0.1,0-0.2-0.1-0.3-0.1l-0.3-0.1
	c-1.2-0.6-2-1.8-2.2-3.1c0-0.2-0.1-0.4-0.1-0.6v-0.4c0-0.2,0.1-0.4,0.1-0.6s0.1-0.4,0.2-0.5c0.4-1.1,1.3-2,2.5-2.4h0.1l0.2-0.1
	l35.9-12.1l5.8-2l4.4,0.4L420.2,344.1z"/>
<path class="st8" d="M452.6,222.9c0.1,2.5,0.1,5,0.1,7.6c0,15.2-1.6,30.3-4.8,45.1c-0.3,1.3-0.6,2.6-0.9,4c0,0.2-0.1,0.3-0.1,0.5
	s-0.1,0.4-0.1,0.6c-0.9,3.7-1.9,7.3-2.9,10.9l0,0l-41.9-2.8l-2.7-0.2l0,0l-126.8-8.4c-5.7-0.4-10.2-5.1-10.2-10.9V126.1
	c0-6,4.9-10.9,10.9-10.9l0,0h145.9c2.3,3.6,4.5,7.2,6.5,10.9c2.1,3.7,4.1,7.6,6,11.6c1.1,2.4,2.2,4.8,3.3,7.2c0.5,1.2,1,2.4,1.5,3.6
	c1.5,3.7,2.9,7.4,4.3,11.2v0.1c1.1,3.2,2.2,6.5,3.2,9.8c3.7,12.5,6.2,25.2,7.6,38.2C452.1,212.7,452.5,217.8,452.6,222.9z"/>
<path class="st9" d="M453,222.9c0.1,2.5,0.1,5,0.1,7.6c0,15.2-1.6,30.3-4.8,45.1c-0.3,1.3-0.6,2.6-0.9,4l-152.7-7.9l0,0l-9.9-0.5
	c-5.1-0.3-9-4.5-9-9.6V135.7c0-5.3,4.3-9.6,9.6-9.6l0,0H426c2.1,3.8,4.1,7.6,6,11.6c1.1,2.4,2.2,4.8,3.3,7.2c0.5,1.2,1,2.4,1.5,3.6
	c1.5,3.7,2.9,7.4,4.3,11.2v0.1c1.1,3.2,2.2,6.5,3.2,9.8c3.7,12.5,6.2,25.2,7.6,38.2C452.5,212.7,452.8,217.8,453,222.9z"/>
<path class="st8" d="M392.9,379.2c-3.6,3.8-7.3,7.4-11.2,10.8c-3.1,2.8-6.3,5.5-9.6,8.2l0,0c-7.4,6-15.3,11.4-23.5,16.4l-5.2-0.6
	l-46.6-5l-21.2-47l0,0c0.9,0.1,47.8,6.9,92.7,13.6C376.8,376.8,385,378,392.9,379.2z"/>
<path class="st5" d="M401.5,369.8c-0.8,1-1.7,1.9-2.5,2.9c-2,2.2-4,4.4-6,6.5c-3.6,3.8-7.3,7.4-11.2,10.8c-3.1,2.8-6.3,5.5-9.6,8.2
	l-15.1-11.1c5.4-4.5,8.3-8.4,11.4-11.6c2.1-2.2,4.4-4.1,7.1-5.5h0.1c7.4-4,5.4,1.4,15.6,0c2.6-0.4,4.9-0.6,6.8-0.6h0.1
	C399.4,369.4,401.5,369.8,401.5,369.8z"/>
<path class="st10" d="M202.4,105.1c-1.5,14.8-10.7,18.7-11,32.7c-0.3,17.1-6.5,19.8-8.5,10.9s5.5-27.3-2.7-21.2
	c-8.2,6.2-7.5,17.8-11.6,23.2s-4.8,8.9-8.9,15.7s-4.8,6.8-10.9,5.5s-1.4,9.5,2,9.5s-1.8,4.8-17,2.8c-7.6-1-21.8-1.7-33.9-2.1
	c-5-0.2-9.7-0.3-13.4-0.4h-0.1l-4.7-0.1l-3.3-0.1h-0.6l0,0l0,0c-0.1-0.6-0.2-1.1-0.4-1.7s-0.2-1.1-0.4-1.7c0-0.1,0-0.1,0-0.2
	c-0.7-3.2-1.4-6.4-2.4-10.5l-0.1-0.4c-0.1-0.3-0.2-0.6-0.2-1v-0.1c-1.4-5.7-3.5-13.2-6.7-24.7l-0.2-0.9c-0.1-0.4-0.2-0.9-0.3-1.3
	c0-0.1,0-0.1,0-0.2c-0.3-1.2-0.5-2.4-0.7-3.7c-0.2-1.5-0.4-3.1-0.6-4.7c0-0.1,0-0.1,0-0.2c-0.3-3-0.4-6.2-0.4-9.5v-0.6
	c0-1,0-2.1,0.1-3.1c0-0.5,0-1.1,0.1-1.6l0,0c0-0.9,0.1-1.8,0.2-2.7l0.1-1.7c0-0.2,0-0.3,0-0.5c0.1-1.2,0.2-2.3,0.3-3.5
	c0-0.4,0.1-0.8,0.2-1.3c0.1-1.3,0.3-2.5,0.5-3.8l0.2-1c14.9-19.7,33-36.6,53.6-50.2c2.7-1.8,5.5-3.5,8.3-5.2c-0.4,0-0.4,0,0,0
	c4.7,0.1,9.3,0.5,14,1.4c4.4,0.8,8.6,1.7,12.6,2.7c0.5,0.1,1,0.2,1.5,0.4c1,0.3,1.9,0.5,2.9,0.8l1.4,0.4c0.9,0.3,1.9,0.6,2.8,0.9
	l1.3,0.5c0.9,0.3,1.8,0.7,2.6,1c0.4,0.2,0.9,0.3,1.3,0.5c1.2,0.5,2.5,1.1,3.7,1.6c0.4,0.2,0.9,0.4,1.3,0.6l1.6,0.9
	c15.3,8.1,24.2,20,26.4,36C202.6,97.3,202.7,101.2,202.4,105.1z"/>
<path class="st11" d="M382.3,389.2c-3.1,2.8-6.3,5.5-9.6,8.2c-0.1,0.1-0.3,0.2-0.4,0.3c-2,1.7-4.1,3.2-6.2,4.8
	c-5,3.7-10.2,7.2-15.5,10.4c-4.9,3-9.9,5.8-15.1,8.4c-3.8,2-7.8,3.8-11.7,5.5c-2.1,0.9-4.3,1.8-6.5,2.7c-0.8,0.3-1.7,0.7-2.5,1
	c-14.4,5.5-29.5,9.4-44.9,11.7c-0.6,0.1-1.1,0.2-1.7,0.2c-2.1,0.3-4.2,0.5-6.2,0.8c-0.2,0-0.3,0-0.5,0.1c-0.4,0-0.9,0.1-1.3,0.1
	c-0.1,0-0.1,0-0.2,0c0,0,0,0-0.1,0c-0.1,0-0.2,0-0.3,0h-0.1c-1.1,0.1-2.1,0.2-3.2,0.3c-0.2,0-0.4,0-0.7,0.1
	c-0.7,0.1-1.4,0.1-2.1,0.2c-1.4,0.1-2.8,0.2-4.2,0.2c-0.1,0-0.2,0-0.2,0c-1.5,0.1-2.9,0.1-4.4,0.2l0,0l0,0l0,0l0,0l0,0l-0.8-0.6
	l-0.5-0.3c-1.7-1.3-3.4-2.7-5.1-4l0,0c-8.2-6.6-18.4-13.8-18.6-13.4l-0.1,0.3c-0.1,0.2-0.1,0.5-0.2,0.8c0,0.1,0,0.2,0,0.3
	c0,0.1,0,0.2-0.1,0.3c0,0.2-0.1,0.4-0.1,0.7c-0.1,0.5-0.1,1-0.2,1.5c0,0.3-0.1,0.6-0.1,0.8c0,0.3,0,0.4-0.1,0.6s0,0.3,0,0.4
	c0,0.1,0,0.1,0,0.2l-0.1,0.4l0,0v0.1l0,0c0,0.1,0,0.2,0,0.2c0,0.3-0.1,0.5-0.1,0.8c0,0.3-0.1,0.5-0.1,0.8c-0.1,0.4-0.1,0.8-0.2,1.3
	c-0.2,1.3-0.4,2.7-0.7,4.2c0,0.3-0.1,0.6-0.2,0.9c-0.1,0.7-0.3,1.4-0.4,2.2c0,0.2-0.1,0.4-0.1,0.6l0,0c0,0-0.1,0-0.2,0h-0.4h-0.5
	l0,0v-0.1l0,0h-0.1c-1.3-0.1-2.6-0.3-3.9-0.4c-1.2-0.1-2.4-0.3-3.5-0.5s-2.3-0.3-3.5-0.5c-0.5-0.1-1-0.2-1.5-0.2c-0.1,0-0.2,0-0.3,0
	c-0.8-0.1-1.5-0.3-2.3-0.4c-0.8-0.1-1.5-0.3-2.3-0.4c-0.1,0-0.3-0.1-0.4-0.1c-0.5-0.1-1-0.2-1.5-0.3c-0.1,0-0.1,0-0.2,0
	c-0.8-0.2-1.6-0.3-2.4-0.5c-0.5-0.1-1.1-0.2-1.6-0.3c-1.2-0.3-2.5-0.5-3.7-0.9c-0.8-0.2-1.6-0.4-2.4-0.6c-0.4-0.1-0.9-0.2-1.3-0.3
	c-1.7-0.5-3.5-0.9-5.2-1.4h-0.1c-0.4-0.1-0.8-0.2-1.2-0.3c-0.3-0.1-0.6-0.2-0.8-0.2c-0.8-0.2-1.5-0.4-2.3-0.7
	c-0.7-0.2-1.4-0.4-2-0.6c-0.9-0.3-1.9-0.6-2.8-0.9c-0.7-0.2-1.3-0.4-2-0.7c-0.4-0.1-0.8-0.3-1.1-0.4c-0.4-0.1-0.7-0.3-1.1-0.4
	c-0.8-0.3-1.5-0.5-2.2-0.8c-0.8-0.3-1.5-0.6-2.3-0.9c-0.7-0.3-1.4-0.6-2.1-0.8c-0.5-0.2-0.9-0.4-1.3-0.5c-0.3-0.1-0.6-0.2-0.8-0.3
	c-0.6-0.2-1.2-0.5-1.8-0.7c-3-1.3-6-2.6-8.9-4c-0.3-0.1-0.7-0.3-1-0.4c-0.5-0.2-0.9-0.4-1.4-0.7c-0.2-0.1-0.5-0.2-0.7-0.3
	c-0.5-0.2-1-0.5-1.5-0.7c-0.3-0.2-0.6-0.3-0.9-0.5c-0.4-0.2-0.7-0.4-1.1-0.5c-0.8-0.4-1.7-0.9-2.5-1.3c-0.4-0.2-0.8-0.4-1.1-0.6
	c-0.7-0.4-1.5-0.8-2.2-1.2c-0.6-0.3-1.1-0.6-1.7-1c-1.7-0.9-3.4-1.9-5-2.9c-0.8-0.5-1.6-1-2.4-1.5c-1.6-1-3.2-2-4.7-3
	c-0.8-0.5-1.5-1-2.3-1.5c-2.9-2-5.8-4-8.6-6.1c-0.5-0.4-1.1-0.8-1.6-1.2c-0.8-0.6-1.6-1.2-2.4-1.9c-1.2-0.9-2.3-1.9-3.5-2.8
	c-0.7-0.5-1.4-1.1-2-1.7c-2.2-1.9-4.4-3.8-6.5-5.8c-0.9-0.9-1.9-1.7-2.8-2.6c-0.4-0.4-0.9-0.8-1.3-1.2c0,0,0,0,0-0.1c0,0,0,0-0.1,0
	c-0.4-0.4-0.9-0.8-1.3-1.3c-2.3-2.3-4.6-4.6-6.8-7c-0.7-0.8-1.4-1.5-2.1-2.3c-2-2.3-4.1-4.6-6-6.9c-0.1-0.2-0.3-0.3-0.4-0.5
	c-0.4-0.5-0.8-1-1.2-1.5c-0.4-0.4-0.7-0.9-1.1-1.3c-0.4-0.5-0.7-0.9-1.1-1.4c-0.2-0.3-0.4-0.5-0.6-0.8c-0.7-0.9-1.4-1.8-2.1-2.8
	c-0.7-0.9-1.3-1.8-2-2.6c-0.8-1-1.5-2.1-2.2-3.1c-1.1-1.5-2.1-3.1-3.1-4.6c-0.4-0.7-0.9-1.4-1.3-2c-0.5-0.7-0.9-1.4-1.3-2.1
	c-0.3-0.4-0.5-0.9-0.8-1.3c-0.6-1-1.2-1.9-1.8-2.9c-0.4-0.6-0.7-1.2-1.1-1.9c-0.4-0.6-0.7-1.3-1.1-1.9c-0.4-0.6-0.7-1.2-1.1-1.9
	c-0.4-0.6-0.7-1.3-1-1.9c-1.8-3.4-3.6-6.8-5.2-10.3c-0.5-1-1-2.1-1.5-3.1c-0.7-1.4-1.3-2.9-1.9-4.3c-0.3-0.7-0.6-1.3-0.8-2
	c-1.5-3.6-3-7.3-4.3-11.1c-0.1-0.4-0.3-0.9-0.5-1.3c-0.1-0.3-0.2-0.7-0.3-1c-0.1-0.4-0.3-0.7-0.4-1.1c-1.3-3.8-2.4-7.6-3.5-11.4
	c-0.3-1.2-0.6-2.4-0.9-3.6c-0.2-0.8-0.4-1.6-0.6-2.5c-0.3-1.4-0.7-2.7-1-4.1c-0.2-1.1-0.5-2.2-0.7-3.3c-0.1-0.4-0.2-0.7-0.2-1.1
	c-0.6-3-1.1-6-1.6-9c-1.7-11-2.5-22-2.5-33.2c0-2.9,0.1-5.7,0.2-8.5c0-0.8,0.1-1.6,0.1-2.4c0.2-0.1,0.5-0.2,0.7-0.3
	c1.1-0.5,2.2-1,3.3-1.5c2.1-0.9,4-1.7,5.8-2.3c2.4-1,4.9-1.6,7.4-1.8c1.2,0,2.3-0.2,3.5-0.4c0.8-0.2,1.7-0.4,2.7-0.7l0.4-0.1
	l0.4-0.1c2.6-0.9,5.1-2.1,7.5-3.5c0.7-0.4,1.4-0.9,2.1-1.4c0.7-0.5,1.4-1,2-1.5c0.4-0.4,0.9-0.7,1.3-1.1c0.4-0.4,0.9-0.8,1.3-1.3
	c0.5-0.5,0.9-1,1.4-1.5c0.5-0.5,0.8-1,1.2-1.4c0.4-0.5,0.8-1,1.2-1.5c0,0,0,0,0-0.1c0.4-0.5,0.8-1.1,1.3-1.6c0.4-0.6,0.8-1,1.2-1.6
	c0.2-0.3,0.5-0.6,0.7-1c0.8-1.1,1.5-2.2,2.2-3.2c0-0.1,0.1-0.1,0.1-0.2l1.1-1.6c0.7-1,1.3-1.9,1.8-2.8c0.1-0.1,0.1-0.2,0.2-0.2
	c0.7-1.1,1.3-2,1.8-2.8l0.3-0.5c0.7-1.1,1.1-1.8,1.1-1.9h0.6c0.6,0,1.7,0.1,3.2,0.2c1.5,0.1,3.3,0.2,5.5,0.5l0.6,0.1
	c5.5,0.6,11,1.5,16.4,2.8c9,2.2,18.7,5.8,26.3,11.7c7.3,5.8,16.1,8.5,20.6,11.7c5.4,3.9,9.6,9.2,12,15.5c0.5,1.2,0.9,2.4,1.2,3.7
	c1.6,6.2,4.2,12.6,7.9,14c7.5,2.7,59.5,21.9,66.4,44.5c5.2,17.3,9.7,31.9,15.8,43.6c1.8,3.4,3.8,6.7,6,9.8
	c4.1,5.5,9.5,14.1,15.7,22.7c8.3,11.5,17.9,23,27.4,26.6c16.4,6.2,28.5,6.8,33.1,6.8s21-8.2,21-8.2s15.9-3.5,24.2,2.6
	C382,388.9,382.1,389.1,382.3,389.2z"/>
<path class="st11" d="M248.8,445c-0.1,0-0.2,0-0.2,0c-1.5,0.1-2.9,0.1-4.4,0.2l0,0l0,0l0,0l0,0l0,0l-0.8-0.6l-0.5-0.3
	c0,0,0,0-0.1-0.1h0.1L248.8,445z"/>
<path class="st12" d="M219.8,426.1L219.8,426.1l-1.5,6.9l0,0v0.1l0,0l-0.2,1v0.2c0,0,0,0,0,0.1l-1.3,6l-0.7,3.1l-0.1,0.6l0,0l0,0
	l0,0h-0.5l0,0l0,0l0,0h-0.1c-73.3-7.9-135.6-52.3-168-115.1c-0.3-0.6-0.7-1.3-1-2c-1-2-1.9-3.9-2.9-5.9c-0.9-2-1.8-4-2.7-6
	c-0.6-1.4-1.1-2.7-1.7-4.1c-0.3-0.7-0.6-1.5-0.9-2.2c-0.2-0.6-0.5-1.3-0.7-1.9c-0.2-0.7-0.5-1.3-0.8-2c-0.5-1.4-1-2.9-1.5-4.3
	c-0.2-0.7-0.5-1.4-0.7-2c-0.2-0.7-0.5-1.4-0.7-2.1c-0.7-2.1-1.3-4.3-2-6.4c-0.2-0.5-0.3-1.1-0.5-1.6c-0.3-0.9-0.5-1.8-0.7-2.7
	c-0.2-0.7-0.4-1.4-0.6-2.2c-0.2-0.8-0.4-1.6-0.6-2.5c-0.1-0.3-0.1-0.6-0.2-0.8c-0.1-0.4-0.2-0.7-0.3-1.1l0,0
	c-0.1-0.4-0.2-0.7-0.2-1.1c0-0.2-0.1-0.4-0.1-0.6c-0.2-0.9-0.4-1.9-0.6-2.8c-0.1-0.7-0.3-1.4-0.4-2.1c-0.6-3-1.1-6-1.6-9
	c0.2,0.1,0.5,0.1,0.8,0.2c8.9,2.4,17.3,5.1,23,7.7c23.7,10.8,44.2,49.7,51,75s70.8,22.2,77.6,37.3c1,2.1,1.9,3.9,2.7,5.4
	c0.1,0.2,0.2,0.4,0.3,0.6c1.5,2.7,2.9,4.4,4.2,5.8c1.5,1.5,3,2.5,4.7,3.8c0.2,0.2,0.5,0.3,0.7,0.5c2,1.5,4,3.2,5.8,5
	c5.8,5.8,14,13.1,18.9,17.5l1.1,0.9l0,0l0.8,0.7C218.6,425.1,219.5,425.8,219.8,426.1L219.8,426.1L219.8,426.1z"/>
<path class="st13" d="M175.6,57.5L175.6,57.5c-36.8-5.3-50.8,11-62.8,48c-5,15.4,1.2,30.6,4.8,42.7c0.2,0.8,0.4,1.6,0.7,2.4
	c2.1,7.8,2.5,14-2.8,17.9c-6.3,4.6-13.4,8-20.9,10.1c-2.5,0.7-4.9,1.3-7,1.7s-4,0.7-5.6,0.9c-1.5,0.2-2.9,0.3-4.4,0.4l0,0
	c-0.1-0.6-0.2-1.1-0.4-1.7s-0.2-1.1-0.4-1.7c0-0.1,0-0.1,0-0.2c-0.4-1.9-0.9-3.9-1.3-6c-0.2-0.9-0.4-1.9-0.7-2.9
	c-0.1-0.5-0.3-1.1-0.4-1.7l-0.1-0.4c-0.1-0.3-0.2-0.6-0.2-1v-0.1c-1.4-5.7-3.4-13.2-6.7-24.7c-0.9-3.5-1.5-7.1-1.9-10.7
	c0-0.1,0-0.1,0-0.2c-0.3-2.8-0.5-5.7-0.4-8.5v-1.6c0-1,0-2.1,0.1-3.1c0-0.5,0-1.1,0.1-1.6l0,0c0-0.9,0.1-1.8,0.2-2.7l0.1-1.7
	c0-0.2,0-0.3,0-0.5c0.1-1.1,0.2-2.2,0.3-3.3V107c0-0.4,0.1-0.8,0.2-1.3c0.1-1.3,0.3-2.5,0.5-3.8c0-0.3,0.1-0.6,0.1-1
	c0.2-1.4,0.2-1.4,0,0c14.9-19.6,33-36.6,53.5-50.1c2.7-1.8,5.5-3.5,8.3-5.2c-0.4,0-0.4,0,0,0c4.7,0.1,9.3,0.5,13.9,1.3
	c4.4,0.8,8.6,1.7,12.6,2.7c0.5,0.1,1,0.2,1.5,0.4c1,0.3,1.9,0.5,2.9,0.8c0.5,0.1,1,0.3,1.4,0.4c0.9,0.3,1.9,0.6,2.8,0.9l1.3,0.5
	c0.9,0.3,1.8,0.7,2.6,1c0.4,0.2,0.9,0.3,1.3,0.5c1.2,0.5,2.5,1.1,3.7,1.6c0.4,0.2,0.9,0.4,1.3,0.6C174.5,56.9,175.1,57.2,175.6,57.5
	z"/>
<path class="st14" d="M99.5,220.4c-19-7-24-8-39-5c-9.5,1.9-25.2,1-37.1,6.5c0-0.8,0.1-1.6,0.1-2.4c3.2-1.5,6.4-2.9,9.7-4.1
	c2.4-0.9,4.9-1.6,7.4-1.8c1.2,0,2.3-0.2,3.5-0.4c0.8-0.2,1.7-0.4,2.7-0.7l0.4-0.1l0.5-0.1c2.6-0.9,5.1-2.1,7.5-3.5
	c1.4-0.9,2.8-1.8,4.1-2.9c0.4-0.4,0.9-0.7,1.3-1.1s0.9-0.8,1.3-1.3s0.9-1,1.4-1.5c6.4-7.2,14.1-20,14.4-20.4l0,0c0,0,1.5,0,4,0
	c1.3,0,2.8,0,4.5,0.1l0.1,0.1l0.7,0.4l0.5,0.3c-0.2,0.4-0.5,0.7-0.7,1.1c-5.6,8.8-8.7,19.2,6.7,26.9
	C109.5,218.4,118.5,227.4,99.5,220.4z"/>
<path class="st14" d="M372.1,398.2c-0.4,0.3-0.8,0.6-1.1,0.9c-2.6,2.1-5.2,4.1-7.9,6c-4,2.8-8,5.5-12.1,8.1
	c-5.6,3.5-11.3,6.6-17.1,9.6c-3,1.5-6.1,3-9.2,4.3c-3.1,1.4-6.3,2.7-9.5,3.9c-5.5,2.1-11.1,4-16.8,5.7c-3.3,1-6.7,1.9-10.1,2.7
	c-0.6,0.1-1.2,0.3-1.8,0.4c0,0-0.1,0-0.2,0c0,0,0,0-0.1,0c-0.3,0.1-0.5,0.1-0.8,0.2c-0.6,0.1-1.1,0.2-1.7,0.4
	c-0.2,0.1-0.5,0.1-0.7,0.2c-0.3,0.1-0.6,0.1-0.8,0.2h-0.1c-0.1,0-0.2,0-0.3,0.1c-0.5,0.1-1.1,0.2-1.6,0.3c-0.7,0.1-1.4,0.3-2,0.4
	c-0.2,0-0.4,0.1-0.6,0.1c-0.5,0.1-1,0.2-1.5,0.3c-0.6,0.1-1.1,0.2-1.7,0.3c-0.1,0-0.3,0-0.4,0.1c-0.7,0.1-1.4,0.2-2.1,0.3
	c-0.7,0.1-1.3,0.2-2,0.3c-0.2,0-0.3,0-0.5,0.1c-0.2,0-0.4,0.1-0.6,0.1c-1,0.1-1.9,0.3-2.8,0.4c-0.8,0.1-1.6,0.2-2.5,0.3
	c-0.7,0.1-1.4,0.2-2.1,0.2c-0.2,0-0.3,0-0.5,0.1c-0.4,0-0.9,0.1-1.3,0.1c-0.1,0-0.1,0-0.2,0c0,0,0,0-0.1,0s-0.2,0-0.3,0h0
	c-0.2,0-0.4,0.1-0.7,0.1c-0.5,0-0.9,0.1-1.4,0.1c-0.6,0.1-1.2,0.1-1.8,0.2c-0.7,0.1-1.4,0.1-2.1,0.2c-1.4,0.1-2.8,0.2-4.2,0.2
	c-0.1,0-0.2,0-0.2,0c-1.5,0.1-2.9,0.1-4.4,0.2c-0.3-0.2-0.5-0.4-0.8-0.6c-0.2-0.1-0.3-0.2-0.5-0.4c-10.4-8.2-20.7-17.1-22.9-18.1
	l0,0c-0.1,0-0.2-0.1-0.3-0.1l0,0c-0.2,0-0.4,0.3-0.6,0.7l-0.1,0.3c-0.1,0.2-0.1,0.5-0.2,0.7c0,0.1,0,0.2,0,0.3c0,0.1,0,0.2-0.1,0.3
	c0,0.2-0.1,0.4-0.1,0.7c-0.1,0.5-0.2,1-0.2,1.5c0,0.3-0.1,0.6-0.1,0.8c0,0.3,0,0.4-0.1,0.5v0.4c0,0.1,0,0.2,0,0.3l-0.1,0.4l0,0
	c0,0.1,0,0.2,0,0.3c0,0.3-0.1,0.6-0.1,1c0,0,0,0,0,0.1c0,0.2,0,0.4-0.1,0.6c-0.2,1.7-0.5,3.5-0.9,5.5c-0.1,0.3-0.1,0.6-0.2,0.9
	c-0.1,0.7-0.3,1.4-0.4,2.2c0,0.2-0.1,0.4-0.1,0.6c0,0,0,0,0,0.1l0,0l0,0l0,0c0,0-0.1,0-0.2,0h-0.4h-0.5v-0.1l0,0c-0.1,0-0.1,0-0.2,0
	c-24.4-2.6-48.1-9.3-70-19.9c-0.5-0.2-0.9-0.4-1.4-0.7c-0.2-0.1-0.5-0.2-0.7-0.3c-0.5-0.2-1-0.5-1.5-0.7c-0.3-0.2-0.6-0.3-0.9-0.5
	c-0.4-0.2-0.7-0.4-1.1-0.5c-0.8-0.4-1.7-0.9-2.5-1.3c-5.6-3-11-6.2-16.4-9.7c0.4,0.1,0.9,0.2,1.3,0.2c64,11.6,60-16.3,59-20.8
	c-0.1-0.3-0.1-0.5-0.2-0.6c0.2,0.3,2.3,2.7,5.6,6.2l1.5,1.6l2.2,2.3c0.2,0.2,0.4,0.4,0.5,0.6c6.8,7.2,16.3,16.5,24.8,22.7
	c0.3,0.2,0.6,0.5,1,0.7l0,0c0.3,0.2,0.6,0.4,0.9,0.7c4.6,3.2,8.9,5.3,12.2,5.5c15,1,27,12,40-2s6,8.7,38,0.7
	c11.4-2.8,24.2-8.3,35.9-14.1c9.2-4.5,17.6-9.2,24.1-13.1c1.4-0.8,2.8-1.7,4-2.4C371.8,398.4,372,398.3,372.1,398.2z"/>
<path class="st9" d="M244.2,445.2c-2,0-3.9,0.1-5.9,0.1c-7.3,0-14.5-0.4-21.7-1.1l-1.1-0.1l1-3.7l2.1-8.4l0,0c0,0,1.1-4.4,1.5-5.9
	l0,0c0,0,1.1-0.5,4.6,2.4c4.6,3.9,18.2,15.7,18.2,15.7L244.2,445.2z"/>
<path class="st15" d="M418.4,347l-0.1,0.1c-0.1,0.2-0.2,0.3-0.3,0.5l0,0c0,0-35.7-4.2-36.6-4.1l0,0l0.3-0.4c0.5-0.8,1.1-1.6,1.6-2.5
	c0.2-0.2,0.3-0.5,0.5-0.8c0.2-0.4,0.4-0.7,0.6-1.1c0.1-0.1,0.1-0.2,0.2-0.3c0.2-0.4,0.5-0.9,0.7-1.3s0.5-1,0.8-1.4s0.5-0.9,0.7-1.3
	c0.1-0.3,0.3-0.6,0.4-0.8c0.3-0.6,0.6-1.2,0.9-1.8l0.4-1c0.2-0.4,0.4-0.9,0.6-1.4c0.6-1.2,1.1-2.5,1.6-3.9c0.7-1.8,1.4-3.6,2.1-5.4
	c1.3-3.7,2.5-7.6,3.5-11.5c0.3-1,0.5-2.1,0.8-3.2c0.1-0.6,0.3-1.3,0.4-1.9l0.3-1.3c0.1-0.4,0.2-0.9,0.2-1.3s0.2-0.9,0.2-1.4
	s0.1-0.7,0.2-1.1s0.1-0.7,0.2-1.1c0.4-2.9,0.7-5.9,0.8-8.9l0,0l2.7,0.2l41.9,2.8c-5.5,18.5-13.5,36.2-23.7,52.5
	C419.6,345.1,419,346.1,418.4,347z"/>
<path class="st15" d="M407.4,362.4c-1.8,2.4-5.9,7.2-5.9,7.2l-3.4-0.4l-60.3-7c-0.1,0-0.2,0-0.3,0h-0.1l0,0c-0.1,0-0.2,0-0.2-0.1
	c-1.3-0.4-2.4-1.4-2.8-2.7c-0.1-0.2-0.1-0.4-0.2-0.6c0-0.2-0.1-0.4-0.1-0.6c0-0.1,0-0.2,0-0.4c0-0.2,0-0.4,0.1-0.6
	c0-0.2,0.1-0.4,0.2-0.5c0.4-1.2,1.4-2.1,2.6-2.5h0.1h0.1l5.2,0.6L407.4,362.4z"/>
<path class="st16" d="M88.8,162.7c2.9,4.2,3.2,7.8,1.6,10.7l0,0c-0.3,0.5-0.6,0.9-0.9,1.4c-1.3,1.6-3,3-4.8,3.9
	c-2.2,1.2-4.5,2.1-6.9,2.7h-0.1c-0.3-1.6-1.7-7.8-2.1-9.5c-0.2-0.9-0.4-1.9-0.7-2.9c-1.4-6-3.6-14-7.4-27.9
	c-0.1-0.3-0.1-0.6-0.2-0.8c-0.1-0.4-0.2-0.9-0.3-1.3c0-0.1,0-0.1,0-0.2c-0.3-1.2-0.5-2.5-0.7-3.7c-0.8-4.4-1.2-8.8-1.2-13.3v-1.6
	c0-1.6,0-3.2,0.1-4.8s0.2-3.2,0.3-4.9c0.1-1.1,0.2-2.2,0.3-3.3c0.2-2.1,0.5-4.2,0.8-6.2v0c0.4-1.6,10-12.3,15.4-18
	c-2.4,5.3-4.4,10.8-5.8,16.4C69.8,123.7,77.5,146.7,88.8,162.7z"/>
<g>
	<path class="st17" d="M453,222.9c0.1,2.5,0.1,5,0.1,7.6c0,15.2-1.6,30.3-4.8,45.1c-0.3,1.3-0.6,2.6-0.9,4c0,0.2-0.1,0.3-0.1,0.5
		L294.8,272V139.2c0-0.9,0.7-1.5,1.5-1.6l0,0H432c1.1,2.4,2.2,4.8,3.3,7.2c0.5,1.2,1,2.4,1.5,3.6c1.5,3.7,2.9,7.4,4.3,11.2v0.1
		c1.1,3.2,2.2,6.5,3.2,9.8c3.7,12.5,6.2,25.2,7.6,38.2C452.5,212.7,452.8,217.8,453,222.9z"/>
	<circle class="st18" cx="298.7" cy="143.6" r="1.5"/>
	<circle class="st18" cx="303.4" cy="143.6" r="1.5"/>
	<circle class="st18" cx="308.1" cy="143.6" r="1.5"/>
	<path class="st19" d="M441.2,159.6C441.2,159.6,441.2,159.7,441.2,159.6l-146.3-1.3v-9.9h142C438.4,152.1,439.9,155.9,441.2,159.6z
		"/>
	<path class="st20" d="M441.2,159.7c1.1,3.2,2.2,6.5,3.2,9.8l-149.5-1.4v-9.9L441.2,159.7L441.2,159.7z"/>
	<path class="st21" d="M453,222.9l-119.1-4.1v-13.5l118,2.5"/>
	<circle class="st22" cx="340.9" cy="211.3" r="2.5"/>
	<line class="st22" x1="342.6" y1="213.2" x2="344.6" y2="215.3"/>
	<path class="st23" d="M348.7,214.9V211h0.5v3.9H348.7z"/>
	<path class="st23" d="M350.6,211L350.6,211c-0.1,0.3-0.1,0.5-0.2,0.7s-0.2,0.5-0.3,0.7h-0.3c0.1-0.4,0.2-0.9,0.3-1.4H350.6z"/>
	<path class="st23" d="M354.9,215.1v-2c0-0.2,0-0.4-0.1-0.6c-0.1-0.1-0.3-0.2-0.5-0.2s-0.5,0.1-0.6,0.2c-0.2,0.2-0.2,0.5-0.2,0.8
		v1.7H353v-2c0-0.2,0-0.4-0.1-0.6c-0.1-0.1-0.3-0.2-0.5-0.2s-0.5,0.1-0.6,0.2c-0.2,0.3-0.2,0.5-0.2,0.8v1.6h-0.5v-3h0.4l0.1,0.4l0,0
		c0.1-0.1,0.2-0.3,0.4-0.3c0.2-0.1,0.3-0.1,0.5-0.1c0.4,0,0.7,0.2,0.9,0.5l0,0c0.1-0.2,0.2-0.3,0.4-0.4c0.2-0.1,0.4-0.1,0.6-0.1
		c0.3,0,0.5,0.1,0.8,0.3c0.2,0.2,0.3,0.6,0.2,0.9v2L354.9,215.1z"/>
	<path class="st23" d="M358.1,215.2h-0.5v-4.4h0.5V215.2z"/>
	<path class="st23" d="M361.3,212.5c-0.2-0.3-0.6-0.5-1-0.5s-0.8,0.1-1,0.4c-0.3,0.3-0.4,0.8-0.4,1.2c0,0.3,0,0.6,0.2,0.9
		c0.1,0.2,0.3,0.4,0.5,0.6c0.2,0.1,0.5,0.2,0.7,0.2c0.4,0,0.8-0.1,1-0.4c0.3-0.4,0.4-0.8,0.4-1.2
		C361.6,213.3,361.5,212.8,361.3,212.5z M360.9,214.7c-0.2,0.2-0.4,0.3-0.7,0.3c-0.3,0-0.5-0.1-0.7-0.3c-0.2-0.3-0.3-0.6-0.2-0.9
		l0,0c0-0.3,0.1-0.6,0.2-0.9c0.2-0.2,0.4-0.3,0.7-0.3c0.3,0,0.5,0.1,0.7,0.3C361.2,213.4,361.2,214.1,360.9,214.7L360.9,214.7z"/>
	<path class="st23" d="M364.6,212.5l-0.1-0.1c-0.6-0.5-1.4-0.4-1.8,0.1l0,0c-0.3,0.4-0.4,0.8-0.4,1.2c0,0.3,0,0.6,0.2,0.9
		c0.1,0.2,0.3,0.4,0.5,0.6c0.2,0.2,0.4,0.2,0.7,0.2c0.4,0,0.8-0.1,1-0.4c0.3-0.4,0.4-0.8,0.4-1.2C365,213.3,364.9,212.8,364.6,212.5
		z M364.2,214.8c-0.2,0.2-0.4,0.3-0.7,0.3c-0.3,0-0.5-0.1-0.7-0.3c-0.2-0.3-0.3-0.7-0.2-1l0,0c0-0.3,0-0.7,0.2-1
		c0.2-0.2,0.4-0.3,0.7-0.3c0.3,0,0.5,0.1,0.7,0.3C364.6,213.4,364.6,214.1,364.2,214.8L364.2,214.8z"/>
	<path class="st23" d="M366.2,213.7c0.1-0.1,0.2-0.3,0.4-0.5l1-1.1h0.5l-1.2,1.4l1.3,2h-0.5l-1-1.6l-0.3,0.3v1.2H366v-4.7h0.4v3
		L366.2,213.7z"/>
	<path class="st23" d="M368.6,212.2v3.4h0.5v-3.4H368.6z M369,211L369,211c-0.1-0.1-0.3-0.1-0.4,0s-0.1,0.2-0.1,0.3s0,0.2,0.1,0.2
		l0,0c0.1,0.1,0.3,0.1,0.4,0C369.1,211.3,369.1,211.1,369,211L369,211z"/>
	<path class="st23" d="M372,215.6v-2.2c0-0.2,0-0.4-0.2-0.6c-0.1-0.1-0.3-0.2-0.5-0.2c-0.3,0-0.5,0.1-0.7,0.3
		c-0.2,0.3-0.2,0.7-0.2,1v1.8H370v-3.4h0.4l0.1,0.5l0,0c0.1-0.2,0.2-0.3,0.4-0.4c0.2-0.1,0.4-0.1,0.5-0.1c0.3,0,0.6,0.1,0.8,0.3
		c0.2,0.3,0.3,0.6,0.3,1v2.2L372,215.6z"/>
	<path class="st23" d="M375.8,212.2h-1c-0.1,0-0.3-0.1-0.4-0.1c-0.3,0-0.6,0.1-0.8,0.3c-0.2,0.2-0.3,0.6-0.3,0.9
		c0,0.2,0,0.4,0.1,0.6c0.2,0,0.4,0.1,0.4,0.3s-0.1,0.4-0.3,0.4l0,0c-0.1,0.1-0.1,0.2-0.1,0.3s0,0.2,0.1,0.3c0,0.1,0.1,0.1,0.2,0.2
		c-0.2,0-0.4,0.1-0.5,0.3s-0.2,0.3-0.2,0.5c0,0.3,0.1,0.5,0.3,0.7c0.3,0.2,0.6,0.3,0.9,0.3c0.4,0,0.8,0,1.2-0.3
		c0.3-0.2,0.4-0.5,0.4-0.9c0-0.3-0.1-0.5-0.3-0.7c-0.2-0.2-0.5-0.3-0.7-0.3h-0.5c-0.1,0-0.2,0-0.3-0.1c-0.1,0-0.1-0.1-0.1-0.2
		c0-0.2,0.1-0.4,0.3-0.4h0.3c0.3,0,0.6-0.1,0.8-0.3c0.2-0.2,0.3-0.5,0.3-0.8c0-0.1,0-0.3-0.1-0.4c0-0.1-0.1-0.2-0.1-0.3l0.5-0.1
		L375.8,212.2z M374.1,215.6h0.5c0.2,0,0.4,0,0.6,0.1c0.1,0.1,0.2,0.3,0.1,0.4c0,0.2-0.1,0.4-0.3,0.5c-0.3,0.1-0.5,0.2-0.8,0.2
		c-0.2,0-0.4-0.1-0.6-0.2c-0.1-0.1-0.2-0.3-0.2-0.4c0-0.2,0-0.3,0.2-0.5C373.7,215.6,373.9,215.6,374.1,215.6L374.1,215.6z
		 M374.4,214c-0.2,0-0.4-0.1-0.5-0.2c-0.1-0.2-0.2-0.4-0.2-0.6c0-0.2,0-0.4,0.2-0.6c0.1-0.1,0.3-0.2,0.5-0.2c0.4,0,0.7,0.3,0.7,0.8
		S374.8,214,374.4,214z"/>
	<path class="st23" d="M379.1,212.6h-0.8v3.2h-0.5v-3.1h-0.5v-0.2l0.5-0.2V212c0-0.9,0.3-1.3,1-1.3c0.2,0,0.4,0,0.5,0.1l-0.1,0.4
		c-0.1-0.1-0.3-0.1-0.4-0.1c-0.2,0-0.3,0.1-0.4,0.2c-0.1,0.2-0.1,0.4-0.1,0.7v0.2h0.8V212.6z"/>
	<path class="st23" d="M381.9,212.6c-0.1-0.1-0.2-0.2-0.3-0.3c-0.6-0.4-1.3-0.3-1.7,0.3l0,0c-0.3,0.4-0.4,0.9-0.4,1.4
		c0,0.3,0,0.7,0.2,1c0.1,0.3,0.3,0.5,0.5,0.7s0.4,0.2,0.7,0.2c0.4,0,0.8-0.1,1-0.5c0.3-0.4,0.4-0.9,0.4-1.4
		C382.3,213.6,382.1,213.1,381.9,212.6z M381.5,215.2c-0.1,0.2-0.4,0.4-0.7,0.4c-0.3,0-0.5-0.1-0.7-0.4c-0.2-0.3-0.2-0.7-0.2-1.1
		V214c0-0.3,0.1-0.7,0.2-1c0.1-0.2,0.4-0.4,0.7-0.4c0.3,0,0.5,0.1,0.7,0.4C381.8,213.7,381.8,214.5,381.5,215.2z"/>
	<path class="st23" d="M384.4,212.2c0.1,0,0.2,0,0.4,0l-0.1,0.5c-0.1,0-0.2-0.1-0.3-0.1c-0.3,0-0.5,0.1-0.6,0.4
		c-0.2,0.3-0.3,0.6-0.2,0.9v2H383v-3.7h0.3v0.7l0,0c0.1-0.2,0.2-0.4,0.4-0.6C383.9,212.2,384.2,212.2,384.4,212.2z"/>
	<path class="st23" d="M385.2,215.6c0-0.1,0-0.2,0.1-0.3s0.1-0.1,0.2-0.1s0.2,0,0.2,0.1c0.1,0.1,0.1,0.2,0.1,0.4
		c0,0.1,0,0.2-0.1,0.3s-0.1,0.1-0.2,0.1s-0.2,0-0.2-0.1C385.2,215.9,385.2,215.8,385.2,215.6z"/>
	<path class="st23" d="M386.6,215.7c0-0.1,0-0.2,0.1-0.4c0.1-0.1,0.1-0.1,0.2-0.1s0.2,0,0.2,0.1c0.1,0.1,0.1,0.2,0.1,0.4
		c0,0.1,0,0.2-0.1,0.3s-0.1,0.1-0.2,0.1s-0.2,0-0.2-0.1S386.6,215.8,386.6,215.7z"/>
	<path class="st23" d="M388.1,215.7c0-0.1,0-0.2,0.1-0.4c0.1-0.1,0.1-0.1,0.2-0.1s0.2,0,0.2,0.1c0.1,0.1,0.1,0.2,0.1,0.4
		c0,0.1,0,0.2-0.1,0.3s-0.1,0.1-0.2,0.1s-0.2,0-0.2-0.1C388.1,216,388.1,215.8,388.1,215.7z"/>
</g>
<path class="st3" d="M294.5,267.7l153.5,7.9c-0.3,1.3-0.6,2.6-0.9,4l-152.7-7.9l0,0l-9.9-0.5c-5.1-0.3-9-4.5-9-9.6v-4
	c0,5.1,3.9,9.2,9,9.6L294.5,267.7z"/>
<polyline class="st0" points="401.5,369.8 401.5,369.8 401.5,369.8 "/>
<path class="st3" d="M244.2,445.2"/>
</svg>
