<?xml version="1.0" encoding="UTF-8"?>
<svg width="40px" height="40px" viewBox="0 0 40 40" version="1.1" xmlns="http://www.w3.org/2000/svg" xmlns:xlink="http://www.w3.org/1999/xlink">
    <style>
        path,polygon {
            fill: #205493;
        }
    </style>
    <!-- Generator: Sketch 44 (41411) - http://www.bohemiancoding.com/sketch -->
    <title>Group 3</title>
    <desc>Created with Sketch.</desc>
    <defs></defs>
    <g id="*Style-Library" stroke="none" stroke-width="1" fill="none" fill-rule="evenodd">
        <g id="Artboard" transform="translate(-1453.000000, -502.000000)">
            <g id="Group-3" transform="translate(1453.000000, 502.000000)">
                <g id="Group" transform="translate(17.196511, 6.238655)" fill="#434343">
                    <path d="M1.73114153,7.25245722 C1.19730347,7.21180484 0.712392071,7.09054945 0.277578571,6.8880513 L0.154755132,6.83085087 L0.154755132,5.20555775 L0.462976414,5.33649183 C0.875078865,5.5115552 1.22166433,5.63412781 1.50112927,5.70425317 C1.77612034,5.77325591 2.02498675,5.8073938 2.24740988,5.8073938 C2.49634149,5.8073938 2.67601276,5.76474206 2.78941466,5.68743907 C2.88485318,5.62238122 2.93098762,5.52884182 2.93098762,5.38441718 C2.93098762,5.31069984 2.91078444,5.24935502 2.8692982,5.19419233 C2.81759999,5.12545115 2.73628629,5.05458445 2.62427318,4.9834491 C2.50320483,4.90656311 2.23957614,4.77536532 1.84195095,4.59524612 C1.44320877,4.41666489 1.14050879,4.24308094 0.931970007,4.07111284 C0.720074161,3.89637639 0.550152567,3.69215255 0.4232448,3.45943625 C0.292189519,3.21911447 0.227476168,2.94170948 0.227476168,2.62977177 C0.227476168,2.04327513 0.441625434,1.57012545 0.86773981,1.2274908 C1.10521966,1.03653544 1.39109028,0.900718523 1.72381842,0.819000498 L1.72381842,0.752394398 C1.72381842,0.388070183 2.01546245,0.0927270513 2.38087437,0.0927270513 C2.74352583,0.0927270513 3.03755654,0.38309054 3.03792997,0.751691384 C3.2127348,0.771073808 3.38332773,0.801417749 3.54964687,0.84274852 C3.85610271,0.918903656 4.17538223,1.02567006 4.50761889,1.16290764 L4.70540129,1.24460597 L4.11140504,2.60827386 L3.90958483,2.52940094 C3.58497789,2.40254201 3.31857765,2.31467289 3.11218538,2.26584213 C2.91102448,2.21824907 2.71413053,2.1945704 2.5211832,2.1945704 C2.31921296,2.1945704 2.17751894,2.23556338 2.08766863,2.31022775 C2.00210822,2.38132729 1.96165899,2.46904838 1.96165899,2.58902258 C1.96165899,2.66267151 1.97807916,2.72153391 2.00981524,2.77006359 C2.04647093,2.82611615 2.11151738,2.88654275 2.20670617,2.94881441 C2.31214426,3.01779107 2.58650301,3.15411999 3.01775044,3.35024568 C3.63055089,3.62930668 4.05712189,3.91346177 4.29872661,4.21174987 C4.54622727,4.51731717 4.66944815,4.8903059 4.66944815,5.3232934 C4.66944815,5.9231261 4.43729654,6.40731998 3.97767598,6.75758544 C3.71847588,6.95511542 3.40464573,7.09458744 3.03748412,7.17723031 C3.02468287,7.53013663 2.73801088,7.81225407 2.38087437,7.81225407 C2.05144466,7.81225407 1.77863915,7.57265304 1.73114153,7.25245722 Z" id="Combined-Shape"></path>
                </g>
                <g id="Group-2" fill-rule="nonzero" fill="#212121">
                    <path d="M1.5633192,2.08094746 L1.5633192,37.2695026 C1.5633192,37.5587705 1.7960864,37.7907862 2.08590674,37.7907862 L37.2275806,37.7907862 C37.5166794,37.7907862 37.7501681,37.5577856 37.7501681,37.2695026 L37.7501681,2.08094746 C37.7501681,1.79167949 37.5174009,1.55966387 37.2275806,1.55966387 L2.08590674,1.55966387 C1.7968079,1.55966387 1.5633192,1.79266446 1.5633192,2.08094746 Z M0,2.08094746 C0,0.931671912 0.933023674,0 2.08590674,0 L37.2275806,0 C38.3795951,0 39.3134873,0.929101004 39.3134873,2.08094746 L39.3134873,37.2695026 C39.3134873,38.4187781 38.3804637,39.35045 37.2275806,39.35045 L2.08590674,39.35045 C0.933892257,39.35045 0,38.421349 0,37.2695026 L0,2.08094746 Z" id="Rectangle-2"></path>
                    <polygon id="Line" points="1.13589282 34.572549 38.5163541 34.572549 38.5163541 33.0128852 1.13589282 33.0128852"></polygon>
                    <polygon id="Line-Copy" points="1.13589282 29.8935574 38.5163541 29.8935574 38.5163541 28.3338936 1.13589282 28.3338936"></polygon>
                    <polygon id="Line-Copy-2" points="1.13589282 25.2145658 38.5163541 25.2145658 38.5163541 23.654902 1.13589282 23.654902"></polygon>
                    <polygon id="Line-Copy-3" points="1.13589282 20.5355742 38.5163541 20.5355742 38.5163541 18.9759104 1.13589282 18.9759104"></polygon>
                    <path d="M19.5027148,17.4240166 C15.9013677,17.4240166 13.02766,14.1419258 13.02766,10.1417002 C13.02766,6.14147449 15.9013677,2.85938375 19.5027148,2.85938375 C23.104062,2.85938375 25.9777697,6.14147449 25.9777697,10.1417002 C25.9777697,14.1419258 23.104062,17.4240166 19.5027148,17.4240166 Z M19.5027148,15.8643527 C22.1901184,15.8643527 24.4144505,13.3239205 24.4144505,10.1417002 C24.4144505,6.95947981 22.1901184,4.41904762 19.5027148,4.41904762 C16.8153112,4.41904762 14.5909792,6.95947981 14.5909792,10.1417002 C14.5909792,13.3239205 16.8153112,15.8643527 19.5027148,15.8643527 Z" id="Oval"></path>
                </g>
            </g>
        </g>
    </g>
</svg>