<?xml version="1.0" encoding="UTF-8"?>
<svg width="52px" height="40px" viewBox="0 0 52 40" version="1.1" xmlns="http://www.w3.org/2000/svg" xmlns:xlink="http://www.w3.org/1999/xlink">
    <style>
        path,polygon {
            fill: #205493;
        }
    </style>
    <!-- Generator: Sketch 44 (41411) - http://www.bohemiancoding.com/sketch -->
    <title>Group</title>
    <desc>Created with Sketch.</desc>
    <defs></defs>
    <g id="*Style-Library" stroke="none" stroke-width="1" fill="none" fill-rule="evenodd">
        <g id="Artboard" transform="translate(-1627.000000, -502.000000)" fill-rule="nonzero" fill="#212121">
            <g id="Group" transform="translate(1627.000000, 502.000000)">
                <path d="M50.9554433,14.517047 L26.0602619,0.11462073 C25.7962835,-0.0376728173 25.4710487,-0.0376728173 25.2070703,0.11462073 L0.426595774,14.3986372 C0.163008316,14.5510351 0.00069357597,14.8322662 0.00069357597,15.1365673 C0.00069357597,15.4408684 0.163008316,15.7220995 0.426595774,15.8744975 L10.2553624,21.55817 L10.2553624,30.2731346 C10.2553099,30.5773834 10.4175206,30.8586023 10.6810102,31.0110648 L25.3208292,39.4816314 C25.5848076,39.633925 25.9100424,39.633925 26.1740207,39.4816314 L40.6991329,31.1076872 C40.9632806,30.955296 41.1259242,30.6735922 41.1257286,30.3688098 L41.1257286,21.6595288 L42.7818682,20.7046719 L42.7818682,24.3801134 C42.1547369,24.6673018 41.7172888,25.2540245 41.6213413,25.9366579 C41.5253938,26.6192912 41.7841745,27.3037254 42.3078729,27.7524258 C42.101211,28.2705873 41.9182488,28.969679 41.7390786,29.8828558 C41.4802771,31.209046 41.286887,32.8033162 41.286887,33.3366341 C41.2997696,33.9705356 41.5105674,34.5845697 41.8898091,35.0928889 C42.3467405,35.7133565 42.9818943,36.0685861 43.6312678,36.0685861 C44.2806414,36.0685861 44.9157951,35.7124093 45.3736746,35.0928889 C45.7530681,34.584946 45.9641907,33.9712622 45.9775446,33.3375814 C45.9775446,32.8042635 45.7879465,31.2147297 45.5253531,29.883803 C45.3471308,28.9706263 45.1641686,28.2734292 44.9565587,27.7533731 C45.4802571,27.3046727 45.7390379,26.6202385 45.6430903,25.9376051 C45.5471428,25.2549718 45.1096947,24.6682491 44.4825634,24.3810607 L44.4825634,19.7213965 L50.9478593,15.9938546 C51.2114468,15.8414566 51.3737615,15.5602256 51.3737615,15.2559244 C51.3737615,14.9516233 51.2114468,14.6703922 50.9478593,14.5179943 L50.9554433,14.517047 Z M43.6360078,26.5238053 L43.5478446,26.5238053 C43.3910009,26.4797958 43.29072,26.3268766 43.3129491,26.1656114 C43.3351783,26.0043463 43.4730977,25.8842119 43.6360078,25.8842119 C43.7989178,25.8842119 43.9368372,26.0043463 43.9590664,26.1656114 C43.9812956,26.3268766 43.8810146,26.4797958 43.7241709,26.5238053 L43.6360078,26.5238053 Z M43.6360078,34.3634843 C43.414178,34.3634843 42.9970621,33.818799 42.9970621,33.3356868 C42.9970621,33.0657124 43.1146129,31.8996122 43.3392867,30.6340478 C43.4416697,30.0571551 43.5421567,29.5920412 43.6360078,29.2273389 C43.7308068,29.5939357 43.8256059,30.0571551 43.9327288,30.6340478 C44.1574026,31.8996122 44.2749534,33.0657124 44.2749534,33.3356868 C44.2711615,33.8178517 43.8578376,34.3644316 43.6360078,34.3644316 L43.6360078,34.3634843 Z M39.4202935,29.8771721 L25.7493209,37.7585314 L11.9617455,29.7824442 L11.9617455,22.5509182 L25.3208292,30.2797656 C25.5848076,30.4320591 25.9100424,30.4320591 26.1740207,30.2797656 L39.4202935,22.6399624 L39.4202935,29.8771721 Z M43.5914522,18.2711127 L29.1118436,10.2192433 C28.700299,9.99251332 28.1827566,10.1410238 27.9543072,10.5514022 C27.7258578,10.9617806 27.8725288,11.4794902 28.2823519,11.7093128 L41.8680053,19.261019 L25.7521649,28.5528764 L2.55957465,15.1403564 L25.6317701,1.83772079 L48.8215164,15.251188 L43.5914522,18.2711127 Z" id="Shape"></path>
            </g>
        </g>
    </g>
</svg>