<?xml version="1.0" encoding="UTF-8"?>
<svg width="41px" height="40px" viewBox="0 0 41 40" version="1.1" xmlns="http://www.w3.org/2000/svg" xmlns:xlink="http://www.w3.org/1999/xlink">
    <!-- Generator: Sketch 44 (41411) - http://www.bohemiancoding.com/sketch -->
    <title>Shape</title>
    <desc>Created with Sketch.</desc>
    <defs></defs>
    <g id="*Style-Library" stroke="none" stroke-width="1" fill="none" fill-rule="evenodd">
        <g id="Artboard" transform="translate(-1370.000000, -502.000000)" fill-rule="nonzero" fill="#212121">
            <path d="M1409.67166,513.999487 L1403.56257,510.218794 L1403.56257,503.635986 C1403.56257,503.147624 1403.14836,502.751728 1402.63741,502.751728 L1396.57253,502.751728 C1396.06158,502.751728 1395.64737,503.147624 1395.64737,503.635986 L1395.64737,505.320988 L1390.50764,502.141591 C1390.202,501.952803 1389.80897,501.952803 1389.50333,502.141591 L1370.42772,513.903201 C1370.10823,514.097958 1369.9453,514.459242 1370.01654,514.814969 L1370.01654,514.835602 L1370.01654,541.115742 C1370.01654,541.604104 1370.43074,542 1370.94169,542 L1409.15254,542 C1409.66349,542 1410.0777,541.604104 1410.0777,541.115742 L1410.0777,514.90536 C1410.14726,514.552621 1409.98682,514.194686 1409.67166,513.999487 Z M1397.49562,504.518279 L1401.71021,504.518279 L1401.71021,509.073189 L1397.49562,506.463646 L1397.49562,504.518279 Z M1390.00394,503.934669 L1406.18794,513.951344 L1373.76341,513.951344 L1390.00394,503.934669 Z M1385.73179,540.184324 L1385.73179,527.902966 L1394.36655,527.902966 L1394.36655,540.184324 L1385.73179,540.184324 Z M1408.22431,540.231484 L1396.21686,540.231484 L1396.21686,527.018709 C1396.21686,526.530347 1395.80265,526.134451 1395.2917,526.134451 L1384.80664,526.134451 C1384.29569,526.134451 1383.88149,526.530347 1383.88149,527.018709 L1383.88149,540.231484 L1371.87095,540.231484 L1371.87095,515.71986 L1408.22739,515.71986 L1408.22431,540.231484 Z" id="Shape"></path>
        </g>
    </g>
</svg>