<?xml version="1.0" encoding="UTF-8"?>
<svg width="33px" height="40px" viewBox="0 0 33 40" version="1.1" xmlns="http://www.w3.org/2000/svg" xmlns:xlink="http://www.w3.org/1999/xlink">
    <style>
        path,polygon {
            fill: #205493;
        }
    </style>
    <!-- Generator: Sketch 44 (41411) - http://www.bohemiancoding.com/sketch -->
    <title>Group</title>
    <desc>Created with Sketch.</desc>
    <defs></defs>
    <g id="*Style-Library" stroke="none" stroke-width="1" fill="none" fill-rule="evenodd">
        <g id="Artboard" transform="translate(-1298.000000, -502.000000)" fill-rule="nonzero" fill="#212121">
            <g id="Group" transform="translate(1298.000000, 502.000000)">
                <path d="M1.37464275,10.5150933 L1.37464275,22.9060247 C1.37464275,23.1595548 1.57960148,23.3639752 1.83345681,23.3639752 L9.98364749,23.3639752 C10.2366274,23.3639752 10.4424616,23.1586535 10.4424616,22.9060247 L10.4424616,10.5150933 C10.4424616,10.2615632 10.2375028,10.0571429 9.98364749,10.0571429 L1.83345681,10.0571429 C1.58047694,10.0571429 1.37464275,10.2624646 1.37464275,10.5150933 Z M0,10.5150933 C0,9.50475518 0.821573718,8.68571429 1.83345681,8.68571429 L9.98364749,8.68571429 C10.9962377,8.68571429 11.8171043,9.50368593 11.8171043,10.5150933 L11.8171043,22.9060247 C11.8171043,23.9163628 10.9955306,24.7354037 9.98364749,24.7354037 L1.83345681,24.7354037 C0.820866577,24.7354037 0,23.9174321 0,22.9060247 L0,10.5150933 Z" id="Rectangle-4"></path>
                <path d="M5.82414426,9.81863354 C3.11320978,9.81863354 0.916428497,7.6201824 0.916428497,4.90931677 C0.916428497,2.19845115 3.11320978,0 5.82414426,0 C8.53507874,0 10.73186,2.19845115 10.73186,4.90931677 C10.73186,7.6201824 8.53507874,9.81863354 5.82414426,9.81863354 Z M5.82414426,8.44720497 C7.7749287,8.44720497 9.35721728,6.86371363 9.35721728,4.90931677 C9.35721728,2.95491991 7.7749287,1.37142857 5.82414426,1.37142857 C3.87335982,1.37142857 2.29107124,2.95491991 2.29107124,4.90931677 C2.29107124,6.86371363 3.87335982,8.44720497 5.82414426,8.44720497 Z" id="Oval-3"></path>
                <path d="M4.52185602,35.2905929 C4.5539935,35.5963605 4.87053257,35.8807453 5.17924731,35.8807453 L6.78620022,35.8807453 C7.0949894,35.8807453 7.41143714,35.5965213 7.44359151,35.2905929 L8.52624633,24.9898231 C8.54673224,24.7949127 8.44829531,24.6857143 8.25369101,24.6857143 L3.71175653,24.6857143 C3.51725069,24.6857143 3.4187204,24.7949612 3.43920121,24.9898231 L4.52185602,35.2905929 Z M2.07205402,25.1328449 C1.96649124,24.1284824 2.70128255,23.3142857 3.71175653,23.3142857 L8.25369101,23.3142857 C9.26483648,23.3142857 9.99890164,24.1290024 9.89339352,25.1328449 L8.81073871,35.4336148 C8.70517593,36.4379772 7.79847152,37.2521739 6.78620022,37.2521739 L5.17924731,37.2521739 C4.16668836,37.2521739 3.26021695,36.4374572 3.15470883,35.4336148 L2.07205402,25.1328449 Z" id="Rectangle-4-Copy"></path>
                <path d="M26.9019997,9.81863354 C24.1910652,9.81863354 21.9942839,7.6201824 21.9942839,4.90931677 C21.9942839,2.19845115 24.1910652,0 26.9019997,0 C29.6129342,0 31.8097155,2.19845115 31.8097155,4.90931677 C31.8097155,7.6201824 29.6129342,9.81863354 26.9019997,9.81863354 Z M26.9019997,8.44720497 C28.8527841,8.44720497 30.4350727,6.86371363 30.4350727,4.90931677 C30.4350727,2.95491991 28.8527841,1.37142857 26.9019997,1.37142857 C24.9512152,1.37142857 23.3689267,2.95491991 23.3689267,4.90931677 C23.3689267,6.86371363 24.9512152,8.44720497 26.9019997,8.44720497 Z" id="Oval-3"></path>
                <path d="M22.4524982,10.5150933 L22.4524982,22.9060247 C22.4524982,23.1595548 22.6574569,23.3639752 22.9113122,23.3639752 L31.0615029,23.3639752 C31.3144828,23.3639752 31.520317,23.1586535 31.520317,22.9060247 L31.520317,10.5150933 C31.520317,10.2615632 31.3153582,10.0571429 31.0615029,10.0571429 L22.9113122,10.0571429 C22.6583324,10.0571429 22.4524982,10.2624646 22.4524982,10.5150933 Z M21.0778554,10.5150933 C21.0778554,9.50475518 21.8994291,8.68571429 22.9113122,8.68571429 L31.0615029,8.68571429 C32.0740932,8.68571429 32.8949597,9.50368593 32.8949597,10.5150933 L32.8949597,22.9060247 C32.8949597,23.9163628 32.073386,24.7354037 31.0615029,24.7354037 L22.9113122,24.7354037 C21.898722,24.7354037 21.0778554,23.9174321 21.0778554,22.9060247 L21.0778554,10.5150933 Z" id="Rectangle-4"></path>
                <path d="M25.5997115,35.2905929 C25.6318489,35.5963605 25.948388,35.8807453 26.2571027,35.8807453 L27.8640557,35.8807453 C28.1728448,35.8807453 28.4892926,35.5965213 28.5214469,35.2905929 L29.6041018,24.9898231 C29.6245877,24.7949127 29.5261507,24.6857143 29.3315464,24.6857143 L24.789612,24.6857143 C24.5951061,24.6857143 24.4965758,24.7949612 24.5170566,24.9898231 L25.5997115,35.2905929 Z M23.1499094,25.1328449 C23.0443467,24.1284824 23.779138,23.3142857 24.789612,23.3142857 L29.3315464,23.3142857 C30.3426919,23.3142857 31.0767571,24.1290024 30.9712489,25.1328449 L29.8885941,35.4336148 C29.7830314,36.4379772 28.8763269,37.2521739 27.8640557,37.2521739 L26.2571027,37.2521739 C25.2445438,37.2521739 24.3380724,36.4374572 24.2325643,35.4336148 L23.1499094,25.1328449 Z" id="Rectangle-4-Copy"></path>
                <path d="M16.363072,12.5614907 C13.6521375,12.5614907 11.4553562,10.3630395 11.4553562,7.65217391 C11.4553562,4.94130829 13.6521375,2.74285714 16.363072,2.74285714 C19.0740065,2.74285714 21.2707877,4.94130829 21.2707877,7.65217391 C21.2707877,10.3630395 19.0740065,12.5614907 16.363072,12.5614907 Z M16.363072,11.1900621 C18.3138564,11.1900621 19.896145,9.60657077 19.896145,7.65217391 C19.896145,5.69777706 18.3138564,4.11428571 16.363072,4.11428571 C14.4122875,4.11428571 12.829999,5.69777706 12.829999,7.65217391 C12.829999,9.60657077 14.4122875,11.1900621 16.363072,11.1900621 Z" id="Oval-3"></path>
                <path d="M11.9135705,13.2579505 L11.9135705,25.6488818 C11.9135705,25.902412 12.1185292,26.1068323 12.3723845,26.1068323 L20.5225752,26.1068323 C20.7755551,26.1068323 20.9813893,25.9015106 20.9813893,25.6488818 L20.9813893,13.2579505 C20.9813893,13.0044203 20.7764305,12.8 20.5225752,12.8 L12.3723845,12.8 C12.1194047,12.8 11.9135705,13.0053217 11.9135705,13.2579505 Z M10.5389277,13.2579505 C10.5389277,12.2476123 11.3605014,11.4285714 12.3723845,11.4285714 L20.5225752,11.4285714 C21.5351654,11.4285714 22.356032,12.2465431 22.356032,13.2579505 L22.356032,25.6488818 C22.356032,26.65922 21.5344583,27.4782609 20.5225752,27.4782609 L12.3723845,27.4782609 C11.3597943,27.4782609 10.5389277,26.6602892 10.5389277,25.6488818 L10.5389277,13.2579505 Z" id="Rectangle-4"></path>
                <path d="M13.9781289,27.7326802 L15.0607837,38.0334501 C15.0929212,38.3392177 15.4094603,38.6236025 15.718175,38.6236025 L17.3251279,38.6236025 C17.6339171,38.6236025 17.9503648,38.3393785 17.9825192,38.0334501 L19.065174,27.7326802 C19.08566,27.5377698 18.987223,27.4285714 18.7926187,27.4285714 L14.2506842,27.4285714 C14.0561784,27.4285714 13.9576481,27.5378184 13.9781289,27.7326802 Z M12.6109817,27.875702 C12.505419,26.8713395 13.2402103,26.0571429 14.2506842,26.0571429 L18.7926187,26.0571429 C19.8037642,26.0571429 20.5378294,26.8718596 20.4323212,27.875702 L19.3496664,38.1764719 C19.2441036,39.1808344 18.3373992,39.9950311 17.3251279,39.9950311 L15.718175,39.9950311 C14.7056161,39.9950311 13.7991447,39.1803143 13.6936365,38.1764719 L12.6109817,27.875702 Z" id="Rectangle-4-Copy"></path>
            </g>
        </g>
    </g>
</svg>